{"glyphs":{"0":{"ha":1389,"x_min":167,"x_max":1222,"o":"m 357 73 q 345 77 349 73 q 340 87 340 81 q 345 96 340 92 q 357 100 349 100 l 1032 100 q 1044 96 1040 100 q 1048 87 1048 92 q 1044 77 1048 81 q 1032 73 1040 73 l 357 73 m 183 247 q 171 251 175 247 q 167 260 167 255 q 171 270 167 266 q 183 274 175 274 l 511 274 q 524 270 519 274 q 528 260 528 266 q 524 251 528 255 q 511 247 519 247 l 183 247 m 878 247 q 865 251 869 247 q 861 260 861 255 q 865 270 861 266 q 878 274 869 274 l 1206 274 q 1218 270 1214 274 q 1222 260 1222 266 q 1218 251 1222 255 q 1206 247 1214 247 l 878 247 m 183 420 q 171 425 175 420 q 167 434 167 429 q 171 444 167 439 q 183 448 175 448 l 511 448 q 524 444 519 448 q 528 434 528 439 q 524 425 528 429 q 511 420 519 420 l 183 420 m 878 420 q 865 425 869 420 q 861 434 861 429 q 865 444 861 439 q 878 448 869 448 l 1206 448 q 1218 444 1214 448 q 1222 434 1222 439 q 1218 425 1222 429 q 1206 420 1214 420 l 878 420 m 183 594 q 171 598 175 594 q 167 608 167 602 q 171 617 167 613 q 183 621 175 621 l 685 621 q 697 617 693 621 q 701 608 701 613 q 697 598 701 602 q 685 594 693 594 l 183 594 m 878 594 q 865 598 869 594 q 861 608 861 602 q 865 617 861 613 q 878 621 869 621 l 1206 621 q 1218 617 1214 621 q 1222 608 1222 613 q 1218 598 1222 602 q 1206 594 1214 594 l 878 594 m 183 768 q 171 772 175 768 q 167 781 167 776 q 171 791 167 787 q 183 795 175 795 l 511 795 q 524 791 519 795 q 528 781 528 787 q 524 772 528 776 q 511 768 519 768 l 183 768 m 704 768 q 692 772 696 768 q 688 781 688 776 q 692 791 688 787 q 704 795 696 795 l 1206 795 q 1218 791 1214 795 q 1222 781 1222 787 q 1218 772 1222 776 q 1206 768 1214 768 l 704 768 m 183 941 q 171 945 175 941 q 167 955 167 949 q 171 964 167 960 q 183 968 175 968 l 511 968 q 524 964 519 968 q 528 955 528 960 q 524 945 528 949 q 511 941 519 941 l 183 941 m 878 941 q 865 945 869 941 q 861 955 861 949 q 865 964 861 960 q 878 968 869 968 l 1206 968 q 1218 964 1214 968 q 1222 955 1222 960 q 1218 945 1222 949 q 1206 941 1214 941 l 878 941 m 357 1115 q 345 1119 349 1115 q 340 1128 340 1123 q 345 1138 340 1134 q 357 1142 349 1142 l 1032 1142 q 1044 1138 1040 1142 q 1048 1128 1048 1134 q 1044 1119 1048 1123 q 1032 1115 1040 1115 l 357 1115 z "},"1":{"ha":1389,"x_min":167,"x_max":1222,"o":"m 183 73 q 171 77 175 73 q 167 87 167 81 q 171 96 167 92 q 183 100 175 100 l 1206 100 q 1218 96 1214 100 q 1222 87 1222 92 q 1218 77 1222 81 q 1206 73 1214 73 l 183 73 m 530 247 q 518 251 522 247 q 514 260 514 255 q 518 270 514 266 q 530 274 522 274 l 859 274 q 871 270 867 274 q 875 260 875 266 q 871 251 875 255 q 859 247 867 247 l 530 247 m 530 420 q 518 425 522 420 q 514 434 514 429 q 518 444 514 439 q 530 448 522 448 l 859 448 q 871 444 867 448 q 875 434 875 439 q 871 425 875 429 q 859 420 867 420 l 530 420 m 530 594 q 518 598 522 594 q 514 608 514 602 q 518 617 514 613 q 530 621 522 621 l 859 621 q 871 617 867 621 q 875 608 875 613 q 871 598 875 602 q 859 594 867 594 l 530 594 m 357 768 q 345 772 349 768 q 340 781 340 776 q 345 791 340 787 q 357 795 349 795 l 859 795 q 871 791 867 795 q 875 781 875 787 q 871 772 875 776 q 859 768 867 768 l 357 768 m 530 941 q 518 945 522 941 q 514 955 514 949 q 518 964 514 960 q 530 968 522 968 l 859 968 q 871 964 867 968 q 875 955 875 960 q 871 945 875 949 q 859 941 867 941 l 530 941 m 530 1115 q 518 1119 522 1115 q 514 1128 514 1123 q 518 1138 514 1134 q 530 1142 522 1142 l 859 1142 q 871 1138 867 1142 q 875 1128 875 1134 q 871 1119 875 1123 q 859 1115 867 1115 l 530 1115 z "},"2":{"ha":1389,"x_min":167,"x_max":1222,"o":"m 183 73 q 171 77 175 73 q 167 87 167 81 q 171 96 167 92 q 183 100 175 100 l 1206 100 q 1218 96 1214 100 q 1222 87 1222 92 q 1218 77 1222 81 q 1206 73 1214 73 l 183 73 m 183 247 q 171 251 175 247 q 167 260 167 255 q 171 270 167 266 q 183 274 175 274 l 511 274 q 524 270 519 274 q 528 260 528 266 q 524 251 528 255 q 511 247 519 247 l 183 247 m 357 420 q 345 425 349 420 q 340 434 340 429 q 345 444 340 439 q 357 448 349 448 l 685 448 q 697 444 693 448 q 701 434 701 439 q 697 425 701 429 q 685 420 693 420 l 357 420 m 704 594 q 692 598 696 594 q 688 608 688 602 q 692 617 688 613 q 704 621 696 621 l 1032 621 q 1044 617 1040 621 q 1048 608 1048 613 q 1044 598 1048 602 q 1032 594 1040 594 l 704 594 m 878 768 q 865 772 869 768 q 861 781 861 776 q 865 791 861 787 q 878 795 869 795 l 1206 795 q 1218 791 1214 795 q 1222 781 1222 787 q 1218 772 1222 776 q 1206 768 1214 768 l 878 768 m 183 941 q 171 945 175 941 q 167 955 167 949 q 171 964 167 960 q 183 968 175 968 l 511 968 q 524 964 519 968 q 528 955 528 960 q 524 945 528 949 q 511 941 519 941 l 183 941 m 878 941 q 865 945 869 941 q 861 955 861 949 q 865 964 861 960 q 878 968 869 968 l 1206 968 q 1218 964 1214 968 q 1222 955 1222 960 q 1218 945 1222 949 q 1206 941 1214 941 l 878 941 m 357 1115 q 345 1119 349 1115 q 340 1128 340 1123 q 345 1138 340 1134 q 357 1142 349 1142 l 1032 1142 q 1044 1138 1040 1142 q 1048 1128 1048 1134 q 1044 1119 1048 1123 q 1032 1115 1040 1115 l 357 1115 z "},"3":{"ha":1389,"x_min":167,"x_max":1222,"o":"m 357 73 q 345 77 349 73 q 340 87 340 81 q 345 96 340 92 q 357 100 349 100 l 1032 100 q 1044 96 1040 100 q 1048 87 1048 92 q 1044 77 1048 81 q 1032 73 1040 73 l 357 73 m 183 247 q 171 251 175 247 q 167 260 167 255 q 171 270 167 266 q 183 274 175 274 l 511 274 q 524 270 519 274 q 528 260 528 266 q 524 251 528 255 q 511 247 519 247 l 183 247 m 878 247 q 865 251 869 247 q 861 260 861 255 q 865 270 861 266 q 878 274 869 274 l 1206 274 q 1218 270 1214 274 q 1222 260 1222 266 q 1218 251 1222 255 q 1206 247 1214 247 l 878 247 m 878 420 q 865 425 869 420 q 861 434 861 429 q 865 444 861 439 q 878 448 869 448 l 1206 448 q 1218 444 1214 448 q 1222 434 1222 439 q 1218 425 1222 429 q 1206 420 1214 420 l 878 420 m 530 594 q 518 598 522 594 q 514 608 514 602 q 518 617 514 613 q 530 621 522 621 l 1032 621 q 1044 617 1040 621 q 1048 608 1048 613 q 1044 598 1048 602 q 1032 594 1040 594 l 530 594 m 878 768 q 865 772 869 768 q 861 781 861 776 q 865 791 861 787 q 878 795 869 795 l 1206 795 q 1218 791 1214 795 q 1222 781 1222 787 q 1218 772 1222 776 q 1206 768 1214 768 l 878 768 m 183 941 q 171 945 175 941 q 167 955 167 949 q 171 964 167 960 q 183 968 175 968 l 511 968 q 524 964 519 968 q 528 955 528 960 q 524 945 528 949 q 511 941 519 941 l 183 941 m 878 941 q 865 945 869 941 q 861 955 861 949 q 865 964 861 960 q 878 968 869 968 l 1206 968 q 1218 964 1214 968 q 1222 955 1222 960 q 1218 945 1222 949 q 1206 941 1214 941 l 878 941 m 357 1115 q 345 1119 349 1115 q 340 1128 340 1123 q 345 1138 340 1134 q 357 1142 349 1142 l 1032 1142 q 1044 1138 1040 1142 q 1048 1128 1048 1134 q 1044 1119 1048 1123 q 1032 1115 1040 1115 l 357 1115 z "},"4":{"ha":1389,"x_min":167,"x_max":1396,"o":"m 878 73 q 865 77 869 73 q 861 87 861 81 q 865 96 861 92 q 878 100 869 100 l 1206 100 q 1218 96 1214 100 q 1222 87 1222 92 q 1218 77 1222 81 q 1206 73 1214 73 l 878 73 m 878 247 q 865 251 869 247 q 861 260 861 255 q 865 270 861 266 q 878 274 869 274 l 1206 274 q 1218 270 1214 274 q 1222 260 1222 266 q 1218 251 1222 255 q 1206 247 1214 247 l 878 247 m 183 420 q 171 425 175 420 q 167 434 167 429 q 171 444 167 439 q 183 448 175 448 l 1379 448 q 1392 444 1388 448 q 1396 434 1396 439 q 1392 425 1396 429 q 1379 420 1388 420 l 183 420 m 183 594 q 171 598 175 594 q 167 608 167 602 q 171 617 167 613 q 183 621 175 621 l 511 621 q 524 617 519 621 q 528 608 528 613 q 524 598 528 602 q 511 594 519 594 l 183 594 m 878 594 q 865 598 869 594 q 861 608 861 602 q 865 617 861 613 q 878 621 869 621 l 1206 621 q 1218 617 1214 621 q 1222 608 1222 613 q 1218 598 1222 602 q 1206 594 1214 594 l 878 594 m 530 768 q 518 772 522 768 q 514 781 514 776 q 518 791 514 787 q 530 795 522 795 l 1206 795 q 1218 791 1214 795 q 1222 781 1222 787 q 1218 772 1222 776 q 1206 768 1214 768 l 530 768 m 704 941 q 692 945 696 941 q 688 955 688 949 q 692 964 688 960 q 704 968 696 968 l 1206 968 q 1218 964 1214 968 q 1222 955 1222 960 q 1218 945 1222 949 q 1206 941 1214 941 l 704 941 m 878 1115 q 865 1119 869 1115 q 861 1128 861 1123 q 865 1138 861 1134 q 878 1142 869 1142 l 1206 1142 q 1218 1138 1214 1142 q 1222 1128 1222 1134 q 1218 1119 1222 1123 q 1206 1115 1214 1115 l 878 1115 z "},"5":{"ha":1389,"x_min":167,"x_max":1222,"o":"m 357 73 q 345 77 349 73 q 340 87 340 81 q 345 96 340 92 q 357 100 349 100 l 1032 100 q 1044 96 1040 100 q 1048 87 1048 92 q 1044 77 1048 81 q 1032 73 1040 73 l 357 73 m 183 247 q 171 251 175 247 q 167 260 167 255 q 171 270 167 266 q 183 274 175 274 l 511 274 q 524 270 519 274 q 528 260 528 266 q 524 251 528 255 q 511 247 519 247 l 183 247 m 878 247 q 865 251 869 247 q 861 260 861 255 q 865 270 861 266 q 878 274 869 274 l 1206 274 q 1218 270 1214 274 q 1222 260 1222 266 q 1218 251 1222 255 q 1206 247 1214 247 l 878 247 m 878 420 q 865 425 869 420 q 861 434 861 429 q 865 444 861 439 q 878 448 869 448 l 1206 448 q 1218 444 1214 448 q 1222 434 1222 439 q 1218 425 1222 429 q 1206 420 1214 420 l 878 420 m 878 594 q 865 598 869 594 q 861 608 861 602 q 865 617 861 613 q 878 621 869 621 l 1206 621 q 1218 617 1214 621 q 1222 608 1222 613 q 1218 598 1222 602 q 1206 594 1214 594 l 878 594 m 183 768 q 171 772 175 768 q 167 781 167 776 q 171 791 167 787 q 183 795 175 795 l 1032 795 q 1044 791 1040 795 q 1048 781 1048 787 q 1044 772 1048 776 q 1032 768 1040 768 l 183 768 m 183 941 q 171 945 175 941 q 167 955 167 949 q 171 964 167 960 q 183 968 175 968 l 511 968 q 524 964 519 968 q 528 955 528 960 q 524 945 528 949 q 511 941 519 941 l 183 941 m 183 1115 q 171 1119 175 1115 q 167 1128 167 1123 q 171 1138 167 1134 q 183 1142 175 1142 l 1206 1142 q 1218 1138 1214 1142 q 1222 1128 1222 1134 q 1218 1119 1222 1123 q 1206 1115 1214 1115 l 183 1115 z "},"6":{"ha":1389,"x_min":167,"x_max":1222,"o":"m 357 73 q 345 77 349 73 q 340 87 340 81 q 345 96 340 92 q 357 100 349 100 l 1032 100 q 1044 96 1040 100 q 1048 87 1048 92 q 1044 77 1048 81 q 1032 73 1040 73 l 357 73 m 183 247 q 171 251 175 247 q 167 260 167 255 q 171 270 167 266 q 183 274 175 274 l 511 274 q 524 270 519 274 q 528 260 528 266 q 524 251 528 255 q 511 247 519 247 l 183 247 m 878 247 q 865 251 869 247 q 861 260 861 255 q 865 270 861 266 q 878 274 869 274 l 1206 274 q 1218 270 1214 274 q 1222 260 1222 266 q 1218 251 1222 255 q 1206 247 1214 247 l 878 247 m 183 420 q 171 425 175 420 q 167 434 167 429 q 171 444 167 439 q 183 448 175 448 l 511 448 q 524 444 519 448 q 528 434 528 439 q 524 425 528 429 q 511 420 519 420 l 183 420 m 878 420 q 865 425 869 420 q 861 434 861 429 q 865 444 861 439 q 878 448 869 448 l 1206 448 q 1218 444 1214 448 q 1222 434 1222 439 q 1218 425 1222 429 q 1206 420 1214 420 l 878 420 m 183 594 q 171 598 175 594 q 167 608 167 602 q 171 617 167 613 q 183 621 175 621 l 1032 621 q 1044 617 1040 621 q 1048 608 1048 613 q 1044 598 1048 602 q 1032 594 1040 594 l 183 594 m 183 768 q 171 772 175 768 q 167 781 167 776 q 171 791 167 787 q 183 795 175 795 l 511 795 q 524 791 519 795 q 528 781 528 787 q 524 772 528 776 q 511 768 519 768 l 183 768 m 183 941 q 171 945 175 941 q 167 955 167 949 q 171 964 167 960 q 183 968 175 968 l 511 968 q 524 964 519 968 q 528 955 528 960 q 524 945 528 949 q 511 941 519 941 l 183 941 m 878 941 q 865 945 869 941 q 861 955 861 949 q 865 964 861 960 q 878 968 869 968 l 1206 968 q 1218 964 1214 968 q 1222 955 1222 960 q 1218 945 1222 949 q 1206 941 1214 941 l 878 941 m 357 1115 q 345 1119 349 1115 q 340 1128 340 1123 q 345 1138 340 1134 q 357 1142 349 1142 l 1032 1142 q 1044 1138 1040 1142 q 1048 1128 1048 1134 q 1044 1119 1048 1123 q 1032 1115 1040 1115 l 357 1115 z "},"7":{"ha":1389,"x_min":167,"x_max":1222,"o":"m 530 73 q 518 77 522 73 q 514 87 514 81 q 518 96 514 92 q 530 100 522 100 l 859 100 q 871 96 867 100 q 875 87 875 92 q 871 77 875 81 q 859 73 867 73 l 530 73 m 530 247 q 518 251 522 247 q 514 260 514 255 q 518 270 514 266 q 530 274 522 274 l 859 274 q 871 270 867 274 q 875 260 875 266 q 871 251 875 255 q 859 247 867 247 l 530 247 m 530 420 q 518 425 522 420 q 514 434 514 429 q 518 444 514 439 q 530 448 522 448 l 859 448 q 871 444 867 448 q 875 434 875 439 q 871 425 875 429 q 859 420 867 420 l 530 420 m 530 594 q 518 598 522 594 q 514 608 514 602 q 518 617 514 613 q 530 621 522 621 l 859 621 q 871 617 867 621 q 875 608 875 613 q 871 598 875 602 q 859 594 867 594 l 530 594 m 704 768 q 692 772 696 768 q 688 781 688 776 q 692 791 688 787 q 704 795 696 795 l 1032 795 q 1044 791 1040 795 q 1048 781 1048 787 q 1044 772 1048 776 q 1032 768 1040 768 l 704 768 m 183 941 q 171 945 175 941 q 167 955 167 949 q 171 964 167 960 q 183 968 175 968 l 511 968 q 524 964 519 968 q 528 955 528 960 q 524 945 528 949 q 511 941 519 941 l 183 941 m 878 941 q 865 945 869 941 q 861 955 861 949 q 865 964 861 960 q 878 968 869 968 l 1206 968 q 1218 964 1214 968 q 1222 955 1222 960 q 1218 945 1222 949 q 1206 941 1214 941 l 878 941 m 183 1115 q 171 1119 175 1115 q 167 1128 167 1123 q 171 1138 167 1134 q 183 1142 175 1142 l 1206 1142 q 1218 1138 1214 1142 q 1222 1128 1222 1134 q 1218 1119 1222 1123 q 1206 1115 1214 1115 l 183 1115 z "},"8":{"ha":1389,"x_min":167,"x_max":1222,"o":"m 357 73 q 345 77 349 73 q 340 87 340 81 q 345 96 340 92 q 357 100 349 100 l 1032 100 q 1044 96 1040 100 q 1048 87 1048 92 q 1044 77 1048 81 q 1032 73 1040 73 l 357 73 m 183 247 q 171 251 175 247 q 167 260 167 255 q 171 270 167 266 q 183 274 175 274 l 511 274 q 524 270 519 274 q 528 260 528 266 q 524 251 528 255 q 511 247 519 247 l 183 247 m 878 247 q 865 251 869 247 q 861 260 861 255 q 865 270 861 266 q 878 274 869 274 l 1206 274 q 1218 270 1214 274 q 1222 260 1222 266 q 1218 251 1222 255 q 1206 247 1214 247 l 878 247 m 183 420 q 171 425 175 420 q 167 434 167 429 q 171 444 167 439 q 183 448 175 448 l 511 448 q 524 444 519 448 q 528 434 528 439 q 524 425 528 429 q 511 420 519 420 l 183 420 m 878 420 q 865 425 869 420 q 861 434 861 429 q 865 444 861 439 q 878 448 869 448 l 1206 448 q 1218 444 1214 448 q 1222 434 1222 439 q 1218 425 1222 429 q 1206 420 1214 420 l 878 420 m 357 594 q 345 598 349 594 q 340 608 340 602 q 345 617 340 613 q 357 621 349 621 l 1032 621 q 1044 617 1040 621 q 1048 608 1048 613 q 1044 598 1048 602 q 1032 594 1040 594 l 357 594 m 183 768 q 171 772 175 768 q 167 781 167 776 q 171 791 167 787 q 183 795 175 795 l 511 795 q 524 791 519 795 q 528 781 528 787 q 524 772 528 776 q 511 768 519 768 l 183 768 m 878 768 q 865 772 869 768 q 861 781 861 776 q 865 791 861 787 q 878 795 869 795 l 1206 795 q 1218 791 1214 795 q 1222 781 1222 787 q 1218 772 1222 776 q 1206 768 1214 768 l 878 768 m 183 941 q 171 945 175 941 q 167 955 167 949 q 171 964 167 960 q 183 968 175 968 l 511 968 q 524 964 519 968 q 528 955 528 960 q 524 945 528 949 q 511 941 519 941 l 183 941 m 878 941 q 865 945 869 941 q 861 955 861 949 q 865 964 861 960 q 878 968 869 968 l 1206 968 q 1218 964 1214 968 q 1222 955 1222 960 q 1218 945 1222 949 q 1206 941 1214 941 l 878 941 m 357 1115 q 345 1119 349 1115 q 340 1128 340 1123 q 345 1138 340 1134 q 357 1142 349 1142 l 1032 1142 q 1044 1138 1040 1142 q 1048 1128 1048 1134 q 1044 1119 1048 1123 q 1032 1115 1040 1115 l 357 1115 z "},"9":{"ha":1389,"x_min":167,"x_max":1222,"o":"m 357 73 q 345 77 349 73 q 340 87 340 81 q 345 96 340 92 q 357 100 349 100 l 1032 100 q 1044 96 1040 100 q 1048 87 1048 92 q 1044 77 1048 81 q 1032 73 1040 73 l 357 73 m 183 247 q 171 251 175 247 q 167 260 167 255 q 171 270 167 266 q 183 274 175 274 l 511 274 q 524 270 519 274 q 528 260 528 266 q 524 251 528 255 q 511 247 519 247 l 183 247 m 878 247 q 865 251 869 247 q 861 260 861 255 q 865 270 861 266 q 878 274 869 274 l 1206 274 q 1218 270 1214 274 q 1222 260 1222 266 q 1218 251 1222 255 q 1206 247 1214 247 l 878 247 m 878 420 q 865 425 869 420 q 861 434 861 429 q 865 444 861 439 q 878 448 869 448 l 1206 448 q 1218 444 1214 448 q 1222 434 1222 439 q 1218 425 1222 429 q 1206 420 1214 420 l 878 420 m 357 594 q 345 598 349 594 q 340 608 340 602 q 345 617 340 613 q 357 621 349 621 l 1206 621 q 1218 617 1214 621 q 1222 608 1222 613 q 1218 598 1222 602 q 1206 594 1214 594 l 357 594 m 183 768 q 171 772 175 768 q 167 781 167 776 q 171 791 167 787 q 183 795 175 795 l 511 795 q 524 791 519 795 q 528 781 528 787 q 524 772 528 776 q 511 768 519 768 l 183 768 m 878 768 q 865 772 869 768 q 861 781 861 776 q 865 791 861 787 q 878 795 869 795 l 1206 795 q 1218 791 1214 795 q 1222 781 1222 787 q 1218 772 1222 776 q 1206 768 1214 768 l 878 768 m 183 941 q 171 945 175 941 q 167 955 167 949 q 171 964 167 960 q 183 968 175 968 l 511 968 q 524 964 519 968 q 528 955 528 960 q 524 945 528 949 q 511 941 519 941 l 183 941 m 878 941 q 865 945 869 941 q 861 955 861 949 q 865 964 861 960 q 878 968 869 968 l 1206 968 q 1218 964 1214 968 q 1222 955 1222 960 q 1218 945 1222 949 q 1206 941 1214 941 l 878 941 m 357 1115 q 345 1119 349 1115 q 340 1128 340 1123 q 345 1138 340 1134 q 357 1142 349 1142 l 1032 1142 q 1044 1138 1040 1142 q 1048 1128 1048 1134 q 1044 1119 1048 1123 q 1032 1115 1040 1115 l 357 1115 z "},"A":{"ha":1389,"x_min":167,"x_max":1222,"o":"m 183 73 q 171 77 175 73 q 167 87 167 81 q 171 96 167 92 q 183 100 175 100 l 511 100 q 524 96 519 100 q 528 87 528 92 q 524 77 528 81 q 511 73 519 73 l 183 73 m 878 73 q 865 77 869 73 q 861 87 861 81 q 865 96 861 92 q 878 100 869 100 l 1206 100 q 1218 96 1214 100 q 1222 87 1222 92 q 1218 77 1222 81 q 1206 73 1214 73 l 878 73 m 183 247 q 171 251 175 247 q 167 260 167 255 q 171 270 167 266 q 183 274 175 274 l 511 274 q 524 270 519 274 q 528 260 528 266 q 524 251 528 255 q 511 247 519 247 l 183 247 m 878 247 q 865 251 869 247 q 861 260 861 255 q 865 270 861 266 q 878 274 869 274 l 1206 274 q 1218 270 1214 274 q 1222 260 1222 266 q 1218 251 1222 255 q 1206 247 1214 247 l 878 247 m 183 420 q 171 425 175 420 q 167 434 167 429 q 171 444 167 439 q 183 448 175 448 l 511 448 q 524 444 519 448 q 528 434 528 439 q 524 425 528 429 q 511 420 519 420 l 183 420 m 878 420 q 865 425 869 420 q 861 434 861 429 q 865 444 861 439 q 878 448 869 448 l 1206 448 q 1218 444 1214 448 q 1222 434 1222 439 q 1218 425 1222 429 q 1206 420 1214 420 l 878 420 m 183 594 q 171 598 175 594 q 167 608 167 602 q 171 617 167 613 q 183 621 175 621 l 1206 621 q 1218 617 1214 621 q 1222 608 1222 613 q 1218 598 1222 602 q 1206 594 1214 594 l 183 594 m 183 768 q 171 772 175 768 q 167 781 167 776 q 171 791 167 787 q 183 795 175 795 l 511 795 q 524 791 519 795 q 528 781 528 787 q 524 772 528 776 q 511 768 519 768 l 183 768 m 878 768 q 865 772 869 768 q 861 781 861 776 q 865 791 861 787 q 878 795 869 795 l 1206 795 q 1218 791 1214 795 q 1222 781 1222 787 q 1218 772 1222 776 q 1206 768 1214 768 l 878 768 m 357 941 q 345 945 349 941 q 340 955 340 949 q 345 964 340 960 q 357 968 349 968 l 1032 968 q 1044 964 1040 968 q 1048 955 1048 960 q 1044 945 1048 949 q 1032 941 1040 941 l 357 941 m 530 1115 q 518 1119 522 1115 q 514 1128 514 1123 q 518 1138 514 1134 q 530 1142 522 1142 l 859 1142 q 871 1138 867 1142 q 875 1128 875 1134 q 871 1119 875 1123 q 859 1115 867 1115 l 530 1115 z "},"Á":{"ha":1389,"x_min":167,"x_max":1222,"o":"z "},"Â":{"ha":1389,"x_min":167,"x_max":1222,"o":"z "},"Ä":{"ha":1389,"x_min":167,"x_max":1222,"o":"z "},"À":{"ha":1389,"x_min":167,"x_max":1222,"o":"z "},"Å":{"ha":1389,"x_min":167,"x_max":1222,"o":"z "},"Ã":{"ha":1389,"x_min":167,"x_max":1396,"o":"z "},"Æ":{"ha":1389,"x_min":167,"x_max":1396,"o":"m 183 73 q 171 77 175 73 q 167 87 167 81 q 171 96 167 92 q 183 100 175 100 l 511 100 q 524 96 519 100 q 528 87 528 92 q 524 77 528 81 q 511 73 519 73 l 183 73 m 704 73 q 692 77 696 73 q 688 87 688 81 q 692 96 688 92 q 704 100 696 100 l 1379 100 q 1392 96 1388 100 q 1396 87 1396 92 q 1392 77 1396 81 q 1379 73 1388 73 l 704 73 m 183 247 q 171 251 175 247 q 167 260 167 255 q 171 270 167 266 q 183 274 175 274 l 511 274 q 524 270 519 274 q 528 260 528 266 q 524 251 528 255 q 511 247 519 247 l 183 247 m 704 247 q 692 251 696 247 q 688 260 688 255 q 692 270 688 266 q 704 274 696 274 l 1032 274 q 1044 270 1040 274 q 1048 260 1048 266 q 1044 251 1048 255 q 1032 247 1040 247 l 704 247 m 183 420 q 171 425 175 420 q 167 434 167 429 q 171 444 167 439 q 183 448 175 448 l 511 448 q 524 444 519 448 q 528 434 528 439 q 524 425 528 429 q 511 420 519 420 l 183 420 m 704 420 q 692 425 696 420 q 688 434 688 429 q 692 444 688 439 q 704 448 696 448 l 1032 448 q 1044 444 1040 448 q 1048 434 1048 439 q 1044 425 1048 429 q 1032 420 1040 420 l 704 420 m 183 594 q 171 598 175 594 q 167 608 167 602 q 171 617 167 613 q 183 621 175 621 l 1206 621 q 1218 617 1214 621 q 1222 608 1222 613 q 1218 598 1222 602 q 1206 594 1214 594 l 183 594 m 183 768 q 171 772 175 768 q 167 781 167 776 q 171 791 167 787 q 183 795 175 795 l 511 795 q 524 791 519 795 q 528 781 528 787 q 524 772 528 776 q 511 768 519 768 l 183 768 m 704 768 q 692 772 696 768 q 688 781 688 776 q 692 791 688 787 q 704 795 696 795 l 1032 795 q 1044 791 1040 795 q 1048 781 1048 787 q 1044 772 1048 776 q 1032 768 1040 768 l 704 768 m 357 941 q 345 945 349 941 q 340 955 340 949 q 345 964 340 960 q 357 968 349 968 l 1032 968 q 1044 964 1040 968 q 1048 955 1048 960 q 1044 945 1048 949 q 1032 941 1040 941 l 357 941 m 530 1115 q 518 1119 522 1115 q 514 1128 514 1123 q 518 1138 514 1134 q 530 1142 522 1142 l 1379 1142 q 1392 1138 1388 1142 q 1396 1128 1396 1134 q 1392 1119 1396 1123 q 1379 1115 1388 1115 l 530 1115 z "},"B":{"ha":1389,"x_min":167,"x_max":1222,"o":"m 183 73 q 171 77 175 73 q 167 87 167 81 q 171 96 167 92 q 183 100 175 100 l 1032 100 q 1044 96 1040 100 q 1048 87 1048 92 q 1044 77 1048 81 q 1032 73 1040 73 l 183 73 m 183 247 q 171 251 175 247 q 167 260 167 255 q 171 270 167 266 q 183 274 175 274 l 511 274 q 524 270 519 274 q 528 260 528 266 q 524 251 528 255 q 511 247 519 247 l 183 247 m 878 247 q 865 251 869 247 q 861 260 861 255 q 865 270 861 266 q 878 274 869 274 l 1206 274 q 1218 270 1214 274 q 1222 260 1222 266 q 1218 251 1222 255 q 1206 247 1214 247 l 878 247 m 183 420 q 171 425 175 420 q 167 434 167 429 q 171 444 167 439 q 183 448 175 448 l 511 448 q 524 444 519 448 q 528 434 528 439 q 524 425 528 429 q 511 420 519 420 l 183 420 m 878 420 q 865 425 869 420 q 861 434 861 429 q 865 444 861 439 q 878 448 869 448 l 1206 448 q 1218 444 1214 448 q 1222 434 1222 439 q 1218 425 1222 429 q 1206 420 1214 420 l 878 420 m 183 594 q 171 598 175 594 q 167 608 167 602 q 171 617 167 613 q 183 621 175 621 l 1032 621 q 1044 617 1040 621 q 1048 608 1048 613 q 1044 598 1048 602 q 1032 594 1040 594 l 183 594 m 183 768 q 171 772 175 768 q 167 781 167 776 q 171 791 167 787 q 183 795 175 795 l 511 795 q 524 791 519 795 q 528 781 528 787 q 524 772 528 776 q 511 768 519 768 l 183 768 m 878 768 q 865 772 869 768 q 861 781 861 776 q 865 791 861 787 q 878 795 869 795 l 1206 795 q 1218 791 1214 795 q 1222 781 1222 787 q 1218 772 1222 776 q 1206 768 1214 768 l 878 768 m 183 941 q 171 945 175 941 q 167 955 167 949 q 171 964 167 960 q 183 968 175 968 l 511 968 q 524 964 519 968 q 528 955 528 960 q 524 945 528 949 q 511 941 519 941 l 183 941 m 878 941 q 865 945 869 941 q 861 955 861 949 q 865 964 861 960 q 878 968 869 968 l 1206 968 q 1218 964 1214 968 q 1222 955 1222 960 q 1218 945 1222 949 q 1206 941 1214 941 l 878 941 m 183 1115 q 171 1119 175 1115 q 167 1128 167 1123 q 171 1138 167 1134 q 183 1142 175 1142 l 1032 1142 q 1044 1138 1040 1142 q 1048 1128 1048 1134 q 1044 1119 1048 1123 q 1032 1115 1040 1115 l 183 1115 z "},"C":{"ha":1389,"x_min":167,"x_max":1222,"o":"m 357 73 q 345 77 349 73 q 340 87 340 81 q 345 96 340 92 q 357 100 349 100 l 1032 100 q 1044 96 1040 100 q 1048 87 1048 92 q 1044 77 1048 81 q 1032 73 1040 73 l 357 73 m 183 247 q 171 251 175 247 q 167 260 167 255 q 171 270 167 266 q 183 274 175 274 l 511 274 q 524 270 519 274 q 528 260 528 266 q 524 251 528 255 q 511 247 519 247 l 183 247 m 878 247 q 865 251 869 247 q 861 260 861 255 q 865 270 861 266 q 878 274 869 274 l 1206 274 q 1218 270 1214 274 q 1222 260 1222 266 q 1218 251 1222 255 q 1206 247 1214 247 l 878 247 m 183 420 q 171 425 175 420 q 167 434 167 429 q 171 444 167 439 q 183 448 175 448 l 511 448 q 524 444 519 448 q 528 434 528 439 q 524 425 528 429 q 511 420 519 420 l 183 420 m 183 594 q 171 598 175 594 q 167 608 167 602 q 171 617 167 613 q 183 621 175 621 l 511 621 q 524 617 519 621 q 528 608 528 613 q 524 598 528 602 q 511 594 519 594 l 183 594 m 183 768 q 171 772 175 768 q 167 781 167 776 q 171 791 167 787 q 183 795 175 795 l 511 795 q 524 791 519 795 q 528 781 528 787 q 524 772 528 776 q 511 768 519 768 l 183 768 m 183 941 q 171 945 175 941 q 167 955 167 949 q 171 964 167 960 q 183 968 175 968 l 511 968 q 524 964 519 968 q 528 955 528 960 q 524 945 528 949 q 511 941 519 941 l 183 941 m 878 941 q 865 945 869 941 q 861 955 861 949 q 865 964 861 960 q 878 968 869 968 l 1206 968 q 1218 964 1214 968 q 1222 955 1222 960 q 1218 945 1222 949 q 1206 941 1214 941 l 878 941 m 357 1115 q 345 1119 349 1115 q 340 1128 340 1123 q 345 1138 340 1134 q 357 1142 349 1142 l 1032 1142 q 1044 1138 1040 1142 q 1048 1128 1048 1134 q 1044 1119 1048 1123 q 1032 1115 1040 1115 l 357 1115 z "},"Ç":{"ha":1389,"x_min":167,"x_max":1222,"o":"m 357 -100 q 345 -96 349 -100 q 340 -87 340 -92 q 345 -77 340 -81 q 357 -73 349 -73 l 685 -73 q 697 -77 693 -73 q 701 -87 701 -81 q 697 -96 701 -92 q 685 -100 693 -100 l 357 -100 m 530 73 q 518 77 522 73 q 514 87 514 81 q 518 96 514 92 q 530 100 522 100 l 859 100 q 871 96 867 100 q 875 87 875 92 q 871 77 875 81 q 859 73 867 73 l 530 73 m 357 247 q 345 251 349 247 q 340 260 340 255 q 345 270 340 266 q 357 274 349 274 l 1032 274 q 1044 270 1040 274 q 1048 260 1048 266 q 1044 251 1048 255 q 1032 247 1040 247 l 357 247 m 183 420 q 171 425 175 420 q 167 434 167 429 q 171 444 167 439 q 183 448 175 448 l 511 448 q 524 444 519 448 q 528 434 528 439 q 524 425 528 429 q 511 420 519 420 l 183 420 m 878 420 q 865 425 869 420 q 861 434 861 429 q 865 444 861 439 q 878 448 869 448 l 1206 448 q 1218 444 1214 448 q 1222 434 1222 439 q 1218 425 1222 429 q 1206 420 1214 420 l 878 420 m 183 594 q 171 598 175 594 q 167 608 167 602 q 171 617 167 613 q 183 621 175 621 l 511 621 q 524 617 519 621 q 528 608 528 613 q 524 598 528 602 q 511 594 519 594 l 183 594 m 183 768 q 171 772 175 768 q 167 781 167 776 q 171 791 167 787 q 183 795 175 795 l 511 795 q 524 791 519 795 q 528 781 528 787 q 524 772 528 776 q 511 768 519 768 l 183 768 m 183 941 q 171 945 175 941 q 167 955 167 949 q 171 964 167 960 q 183 968 175 968 l 511 968 q 524 964 519 968 q 528 955 528 960 q 524 945 528 949 q 511 941 519 941 l 183 941 m 878 941 q 865 945 869 941 q 861 955 861 949 q 865 964 861 960 q 878 968 869 968 l 1206 968 q 1218 964 1214 968 q 1222 955 1222 960 q 1218 945 1222 949 q 1206 941 1214 941 l 878 941 m 357 1115 q 345 1119 349 1115 q 340 1128 340 1123 q 345 1138 340 1134 q 357 1142 349 1142 l 1032 1142 q 1044 1138 1040 1142 q 1048 1128 1048 1134 q 1044 1119 1048 1123 q 1032 1115 1040 1115 l 357 1115 z "},"D":{"ha":1389,"x_min":167,"x_max":1222,"o":"m 183 73 q 171 77 175 73 q 167 87 167 81 q 171 96 167 92 q 183 100 175 100 l 859 100 q 871 96 867 100 q 875 87 875 92 q 871 77 875 81 q 859 73 867 73 l 183 73 m 183 247 q 171 251 175 247 q 167 260 167 255 q 171 270 167 266 q 183 274 175 274 l 511 274 q 524 270 519 274 q 528 260 528 266 q 524 251 528 255 q 511 247 519 247 l 183 247 m 704 247 q 692 251 696 247 q 688 260 688 255 q 692 270 688 266 q 704 274 696 274 l 1032 274 q 1044 270 1040 274 q 1048 260 1048 266 q 1044 251 1048 255 q 1032 247 1040 247 l 704 247 m 183 420 q 171 425 175 420 q 167 434 167 429 q 171 444 167 439 q 183 448 175 448 l 511 448 q 524 444 519 448 q 528 434 528 439 q 524 425 528 429 q 511 420 519 420 l 183 420 m 878 420 q 865 425 869 420 q 861 434 861 429 q 865 444 861 439 q 878 448 869 448 l 1206 448 q 1218 444 1214 448 q 1222 434 1222 439 q 1218 425 1222 429 q 1206 420 1214 420 l 878 420 m 183 594 q 171 598 175 594 q 167 608 167 602 q 171 617 167 613 q 183 621 175 621 l 511 621 q 524 617 519 621 q 528 608 528 613 q 524 598 528 602 q 511 594 519 594 l 183 594 m 878 594 q 865 598 869 594 q 861 608 861 602 q 865 617 861 613 q 878 621 869 621 l 1206 621 q 1218 617 1214 621 q 1222 608 1222 613 q 1218 598 1222 602 q 1206 594 1214 594 l 878 594 m 183 768 q 171 772 175 768 q 167 781 167 776 q 171 791 167 787 q 183 795 175 795 l 511 795 q 524 791 519 795 q 528 781 528 787 q 524 772 528 776 q 511 768 519 768 l 183 768 m 878 768 q 865 772 869 768 q 861 781 861 776 q 865 791 861 787 q 878 795 869 795 l 1206 795 q 1218 791 1214 795 q 1222 781 1222 787 q 1218 772 1222 776 q 1206 768 1214 768 l 878 768 m 183 941 q 171 945 175 941 q 167 955 167 949 q 171 964 167 960 q 183 968 175 968 l 511 968 q 524 964 519 968 q 528 955 528 960 q 524 945 528 949 q 511 941 519 941 l 183 941 m 704 941 q 692 945 696 941 q 688 955 688 949 q 692 964 688 960 q 704 968 696 968 l 1032 968 q 1044 964 1040 968 q 1048 955 1048 960 q 1044 945 1048 949 q 1032 941 1040 941 l 704 941 m 183 1115 q 171 1119 175 1115 q 167 1128 167 1123 q 171 1138 167 1134 q 183 1142 175 1142 l 859 1142 q 871 1138 867 1142 q 875 1128 875 1134 q 871 1119 875 1123 q 859 1115 867 1115 l 183 1115 z "},"Ð":{"ha":1389,"x_min":-7,"x_max":1222,"o":"m 183 73 q 171 77 175 73 q 167 87 167 81 q 171 96 167 92 q 183 100 175 100 l 859 100 q 871 96 867 100 q 875 87 875 92 q 871 77 875 81 q 859 73 867 73 l 183 73 m 183 247 q 171 251 175 247 q 167 260 167 255 q 171 270 167 266 q 183 274 175 274 l 511 274 q 524 270 519 274 q 528 260 528 266 q 524 251 528 255 q 511 247 519 247 l 183 247 m 704 247 q 692 251 696 247 q 688 260 688 255 q 692 270 688 266 q 704 274 696 274 l 1032 274 q 1044 270 1040 274 q 1048 260 1048 266 q 1044 251 1048 255 q 1032 247 1040 247 l 704 247 m 183 420 q 171 425 175 420 q 167 434 167 429 q 171 444 167 439 q 183 448 175 448 l 511 448 q 524 444 519 448 q 528 434 528 439 q 524 425 528 429 q 511 420 519 420 l 183 420 m 878 420 q 865 425 869 420 q 861 434 861 429 q 865 444 861 439 q 878 448 869 448 l 1206 448 q 1218 444 1214 448 q 1222 434 1222 439 q 1218 425 1222 429 q 1206 420 1214 420 l 878 420 m 9 594 q -3 598 1 594 q -7 608 -7 602 q -3 617 -7 613 q 9 621 1 621 l 685 621 q 697 617 693 621 q 701 608 701 613 q 697 598 701 602 q 685 594 693 594 l 9 594 m 878 594 q 865 598 869 594 q 861 608 861 602 q 865 617 861 613 q 878 621 869 621 l 1206 621 q 1218 617 1214 621 q 1222 608 1222 613 q 1218 598 1222 602 q 1206 594 1214 594 l 878 594 m 183 768 q 171 772 175 768 q 167 781 167 776 q 171 791 167 787 q 183 795 175 795 l 511 795 q 524 791 519 795 q 528 781 528 787 q 524 772 528 776 q 511 768 519 768 l 183 768 m 878 768 q 865 772 869 768 q 861 781 861 776 q 865 791 861 787 q 878 795 869 795 l 1206 795 q 1218 791 1214 795 q 1222 781 1222 787 q 1218 772 1222 776 q 1206 768 1214 768 l 878 768 m 183 941 q 171 945 175 941 q 167 955 167 949 q 171 964 167 960 q 183 968 175 968 l 511 968 q 524 964 519 968 q 528 955 528 960 q 524 945 528 949 q 511 941 519 941 l 183 941 m 704 941 q 692 945 696 941 q 688 955 688 949 q 692 964 688 960 q 704 968 696 968 l 1032 968 q 1044 964 1040 968 q 1048 955 1048 960 q 1044 945 1048 949 q 1032 941 1040 941 l 704 941 m 183 1115 q 171 1119 175 1115 q 167 1128 167 1123 q 171 1138 167 1134 q 183 1142 175 1142 l 859 1142 q 871 1138 867 1142 q 875 1128 875 1134 q 871 1119 875 1123 q 859 1115 867 1115 l 183 1115 z "},"E":{"ha":1389,"x_min":167,"x_max":1222,"o":"m 183 73 q 171 77 175 73 q 167 87 167 81 q 171 96 167 92 q 183 100 175 100 l 1206 100 q 1218 96 1214 100 q 1222 87 1222 92 q 1218 77 1222 81 q 1206 73 1214 73 l 183 73 m 183 247 q 171 251 175 247 q 167 260 167 255 q 171 270 167 266 q 183 274 175 274 l 511 274 q 524 270 519 274 q 528 260 528 266 q 524 251 528 255 q 511 247 519 247 l 183 247 m 183 420 q 171 425 175 420 q 167 434 167 429 q 171 444 167 439 q 183 448 175 448 l 511 448 q 524 444 519 448 q 528 434 528 439 q 524 425 528 429 q 511 420 519 420 l 183 420 m 183 594 q 171 598 175 594 q 167 608 167 602 q 171 617 167 613 q 183 621 175 621 l 859 621 q 871 617 867 621 q 875 608 875 613 q 871 598 875 602 q 859 594 867 594 l 183 594 m 183 768 q 171 772 175 768 q 167 781 167 776 q 171 791 167 787 q 183 795 175 795 l 511 795 q 524 791 519 795 q 528 781 528 787 q 524 772 528 776 q 511 768 519 768 l 183 768 m 183 941 q 171 945 175 941 q 167 955 167 949 q 171 964 167 960 q 183 968 175 968 l 511 968 q 524 964 519 968 q 528 955 528 960 q 524 945 528 949 q 511 941 519 941 l 183 941 m 183 1115 q 171 1119 175 1115 q 167 1128 167 1123 q 171 1138 167 1134 q 183 1142 175 1142 l 1206 1142 q 1218 1138 1214 1142 q 1222 1128 1222 1134 q 1218 1119 1222 1123 q 1206 1115 1214 1115 l 183 1115 z "},"É":{"ha":1389,"x_min":167,"x_max":1222,"o":"z "},"Ê":{"ha":1389,"x_min":167,"x_max":1222,"o":"z "},"Ë":{"ha":1389,"x_min":167,"x_max":1222,"o":"z "},"È":{"ha":1389,"x_min":167,"x_max":1222,"o":"z "},"F":{"ha":1389,"x_min":167,"x_max":1222,"o":"m 183 73 q 171 77 175 73 q 167 87 167 81 q 171 96 167 92 q 183 100 175 100 l 511 100 q 524 96 519 100 q 528 87 528 92 q 524 77 528 81 q 511 73 519 73 l 183 73 m 183 247 q 171 251 175 247 q 167 260 167 255 q 171 270 167 266 q 183 274 175 274 l 511 274 q 524 270 519 274 q 528 260 528 266 q 524 251 528 255 q 511 247 519 247 l 183 247 m 183 420 q 171 425 175 420 q 167 434 167 429 q 171 444 167 439 q 183 448 175 448 l 511 448 q 524 444 519 448 q 528 434 528 439 q 524 425 528 429 q 511 420 519 420 l 183 420 m 183 594 q 171 598 175 594 q 167 608 167 602 q 171 617 167 613 q 183 621 175 621 l 859 621 q 871 617 867 621 q 875 608 875 613 q 871 598 875 602 q 859 594 867 594 l 183 594 m 183 768 q 171 772 175 768 q 167 781 167 776 q 171 791 167 787 q 183 795 175 795 l 511 795 q 524 791 519 795 q 528 781 528 787 q 524 772 528 776 q 511 768 519 768 l 183 768 m 183 941 q 171 945 175 941 q 167 955 167 949 q 171 964 167 960 q 183 968 175 968 l 511 968 q 524 964 519 968 q 528 955 528 960 q 524 945 528 949 q 511 941 519 941 l 183 941 m 183 1115 q 171 1119 175 1115 q 167 1128 167 1123 q 171 1138 167 1134 q 183 1142 175 1142 l 1206 1142 q 1218 1138 1214 1142 q 1222 1128 1222 1134 q 1218 1119 1222 1123 q 1206 1115 1214 1115 l 183 1115 z "},"G":{"ha":1389,"x_min":167,"x_max":1222,"o":"m 357 73 q 345 77 349 73 q 340 87 340 81 q 345 96 340 92 q 357 100 349 100 l 1032 100 q 1044 96 1040 100 q 1048 87 1048 92 q 1044 77 1048 81 q 1032 73 1040 73 l 357 73 m 183 247 q 171 251 175 247 q 167 260 167 255 q 171 270 167 266 q 183 274 175 274 l 511 274 q 524 270 519 274 q 528 260 528 266 q 524 251 528 255 q 511 247 519 247 l 183 247 m 878 247 q 865 251 869 247 q 861 260 861 255 q 865 270 861 266 q 878 274 869 274 l 1206 274 q 1218 270 1214 274 q 1222 260 1222 266 q 1218 251 1222 255 q 1206 247 1214 247 l 878 247 m 183 420 q 171 425 175 420 q 167 434 167 429 q 171 444 167 439 q 183 448 175 448 l 511 448 q 524 444 519 448 q 528 434 528 439 q 524 425 528 429 q 511 420 519 420 l 183 420 m 878 420 q 865 425 869 420 q 861 434 861 429 q 865 444 861 439 q 878 448 869 448 l 1206 448 q 1218 444 1214 448 q 1222 434 1222 439 q 1218 425 1222 429 q 1206 420 1214 420 l 878 420 m 183 594 q 171 598 175 594 q 167 608 167 602 q 171 617 167 613 q 183 621 175 621 l 511 621 q 524 617 519 621 q 528 608 528 613 q 524 598 528 602 q 511 594 519 594 l 183 594 m 704 594 q 692 598 696 594 q 688 608 688 602 q 692 617 688 613 q 704 621 696 621 l 1206 621 q 1218 617 1214 621 q 1222 608 1222 613 q 1218 598 1222 602 q 1206 594 1214 594 l 704 594 m 183 768 q 171 772 175 768 q 167 781 167 776 q 171 791 167 787 q 183 795 175 795 l 511 795 q 524 791 519 795 q 528 781 528 787 q 524 772 528 776 q 511 768 519 768 l 183 768 m 183 941 q 171 945 175 941 q 167 955 167 949 q 171 964 167 960 q 183 968 175 968 l 511 968 q 524 964 519 968 q 528 955 528 960 q 524 945 528 949 q 511 941 519 941 l 183 941 m 878 941 q 865 945 869 941 q 861 955 861 949 q 865 964 861 960 q 878 968 869 968 l 1206 968 q 1218 964 1214 968 q 1222 955 1222 960 q 1218 945 1222 949 q 1206 941 1214 941 l 878 941 m 357 1115 q 345 1119 349 1115 q 340 1128 340 1123 q 345 1138 340 1134 q 357 1142 349 1142 l 1032 1142 q 1044 1138 1040 1142 q 1048 1128 1048 1134 q 1044 1119 1048 1123 q 1032 1115 1040 1115 l 357 1115 z "},"H":{"ha":1389,"x_min":167,"x_max":1222,"o":"m 183 73 q 171 77 175 73 q 167 87 167 81 q 171 96 167 92 q 183 100 175 100 l 511 100 q 524 96 519 100 q 528 87 528 92 q 524 77 528 81 q 511 73 519 73 l 183 73 m 878 73 q 865 77 869 73 q 861 87 861 81 q 865 96 861 92 q 878 100 869 100 l 1206 100 q 1218 96 1214 100 q 1222 87 1222 92 q 1218 77 1222 81 q 1206 73 1214 73 l 878 73 m 183 247 q 171 251 175 247 q 167 260 167 255 q 171 270 167 266 q 183 274 175 274 l 511 274 q 524 270 519 274 q 528 260 528 266 q 524 251 528 255 q 511 247 519 247 l 183 247 m 878 247 q 865 251 869 247 q 861 260 861 255 q 865 270 861 266 q 878 274 869 274 l 1206 274 q 1218 270 1214 274 q 1222 260 1222 266 q 1218 251 1222 255 q 1206 247 1214 247 l 878 247 m 183 420 q 171 425 175 420 q 167 434 167 429 q 171 444 167 439 q 183 448 175 448 l 511 448 q 524 444 519 448 q 528 434 528 439 q 524 425 528 429 q 511 420 519 420 l 183 420 m 878 420 q 865 425 869 420 q 861 434 861 429 q 865 444 861 439 q 878 448 869 448 l 1206 448 q 1218 444 1214 448 q 1222 434 1222 439 q 1218 425 1222 429 q 1206 420 1214 420 l 878 420 m 183 594 q 171 598 175 594 q 167 608 167 602 q 171 617 167 613 q 183 621 175 621 l 1206 621 q 1218 617 1214 621 q 1222 608 1222 613 q 1218 598 1222 602 q 1206 594 1214 594 l 183 594 m 183 768 q 171 772 175 768 q 167 781 167 776 q 171 791 167 787 q 183 795 175 795 l 511 795 q 524 791 519 795 q 528 781 528 787 q 524 772 528 776 q 511 768 519 768 l 183 768 m 878 768 q 865 772 869 768 q 861 781 861 776 q 865 791 861 787 q 878 795 869 795 l 1206 795 q 1218 791 1214 795 q 1222 781 1222 787 q 1218 772 1222 776 q 1206 768 1214 768 l 878 768 m 183 941 q 171 945 175 941 q 167 955 167 949 q 171 964 167 960 q 183 968 175 968 l 511 968 q 524 964 519 968 q 528 955 528 960 q 524 945 528 949 q 511 941 519 941 l 183 941 m 878 941 q 865 945 869 941 q 861 955 861 949 q 865 964 861 960 q 878 968 869 968 l 1206 968 q 1218 964 1214 968 q 1222 955 1222 960 q 1218 945 1222 949 q 1206 941 1214 941 l 878 941 m 183 1115 q 171 1119 175 1115 q 167 1128 167 1123 q 171 1138 167 1134 q 183 1142 175 1142 l 511 1142 q 524 1138 519 1142 q 528 1128 528 1134 q 524 1119 528 1123 q 511 1115 519 1115 l 183 1115 m 878 1115 q 865 1119 869 1115 q 861 1128 861 1123 q 865 1138 861 1134 q 878 1142 869 1142 l 1206 1142 q 1218 1138 1214 1142 q 1222 1128 1222 1134 q 1218 1119 1222 1123 q 1206 1115 1214 1115 l 878 1115 z "},"I":{"ha":1389,"x_min":340,"x_max":1048,"o":"m 357 73 q 345 77 349 73 q 340 87 340 81 q 345 96 340 92 q 357 100 349 100 l 1032 100 q 1044 96 1040 100 q 1048 87 1048 92 q 1044 77 1048 81 q 1032 73 1040 73 l 357 73 m 530 247 q 518 251 522 247 q 514 260 514 255 q 518 270 514 266 q 530 274 522 274 l 859 274 q 871 270 867 274 q 875 260 875 266 q 871 251 875 255 q 859 247 867 247 l 530 247 m 530 420 q 518 425 522 420 q 514 434 514 429 q 518 444 514 439 q 530 448 522 448 l 859 448 q 871 444 867 448 q 875 434 875 439 q 871 425 875 429 q 859 420 867 420 l 530 420 m 530 594 q 518 598 522 594 q 514 608 514 602 q 518 617 514 613 q 530 621 522 621 l 859 621 q 871 617 867 621 q 875 608 875 613 q 871 598 875 602 q 859 594 867 594 l 530 594 m 530 768 q 518 772 522 768 q 514 781 514 776 q 518 791 514 787 q 530 795 522 795 l 859 795 q 871 791 867 795 q 875 781 875 787 q 871 772 875 776 q 859 768 867 768 l 530 768 m 530 941 q 518 945 522 941 q 514 955 514 949 q 518 964 514 960 q 530 968 522 968 l 859 968 q 871 964 867 968 q 875 955 875 960 q 871 945 875 949 q 859 941 867 941 l 530 941 m 357 1115 q 345 1119 349 1115 q 340 1128 340 1123 q 345 1138 340 1134 q 357 1142 349 1142 l 1032 1142 q 1044 1138 1040 1142 q 1048 1128 1048 1134 q 1044 1119 1048 1123 q 1032 1115 1040 1115 l 357 1115 z "},"Í":{"ha":1389,"x_min":340,"x_max":1048,"o":"z "},"Î":{"ha":1389,"x_min":167,"x_max":1222,"o":"z "},"Ï":{"ha":1389,"x_min":167,"x_max":1222,"o":"z "},"Ì":{"ha":1389,"x_min":340,"x_max":1048,"o":"z "},"J":{"ha":1389,"x_min":167,"x_max":1222,"o":"m 357 73 q 345 77 349 73 q 340 87 340 81 q 345 96 340 92 q 357 100 349 100 l 859 100 q 871 96 867 100 q 875 87 875 92 q 871 77 875 81 q 859 73 867 73 l 357 73 m 183 247 q 171 251 175 247 q 167 260 167 255 q 171 270 167 266 q 183 274 175 274 l 511 274 q 524 270 519 274 q 528 260 528 266 q 524 251 528 255 q 511 247 519 247 l 183 247 m 704 247 q 692 251 696 247 q 688 260 688 255 q 692 270 688 266 q 704 274 696 274 l 1032 274 q 1044 270 1040 274 q 1048 260 1048 266 q 1044 251 1048 255 q 1032 247 1040 247 l 704 247 m 704 420 q 692 425 696 420 q 688 434 688 429 q 692 444 688 439 q 704 448 696 448 l 1032 448 q 1044 444 1040 448 q 1048 434 1048 439 q 1044 425 1048 429 q 1032 420 1040 420 l 704 420 m 704 594 q 692 598 696 594 q 688 608 688 602 q 692 617 688 613 q 704 621 696 621 l 1032 621 q 1044 617 1040 621 q 1048 608 1048 613 q 1044 598 1048 602 q 1032 594 1040 594 l 704 594 m 704 768 q 692 772 696 768 q 688 781 688 776 q 692 791 688 787 q 704 795 696 795 l 1032 795 q 1044 791 1040 795 q 1048 781 1048 787 q 1044 772 1048 776 q 1032 768 1040 768 l 704 768 m 704 941 q 692 945 696 941 q 688 955 688 949 q 692 964 688 960 q 704 968 696 968 l 1032 968 q 1044 964 1040 968 q 1048 955 1048 960 q 1044 945 1048 949 q 1032 941 1040 941 l 704 941 m 530 1115 q 518 1119 522 1115 q 514 1128 514 1123 q 518 1138 514 1134 q 530 1142 522 1142 l 1206 1142 q 1218 1138 1214 1142 q 1222 1128 1222 1134 q 1218 1119 1222 1123 q 1206 1115 1214 1115 l 530 1115 z "},"K":{"ha":1389,"x_min":167,"x_max":1222,"o":"m 183 73 q 171 77 175 73 q 167 87 167 81 q 171 96 167 92 q 183 100 175 100 l 511 100 q 524 96 519 100 q 528 87 528 92 q 524 77 528 81 q 511 73 519 73 l 183 73 m 878 73 q 865 77 869 73 q 861 87 861 81 q 865 96 861 92 q 878 100 869 100 l 1206 100 q 1218 96 1214 100 q 1222 87 1222 92 q 1218 77 1222 81 q 1206 73 1214 73 l 878 73 m 183 247 q 171 251 175 247 q 167 260 167 255 q 171 270 167 266 q 183 274 175 274 l 511 274 q 524 270 519 274 q 528 260 528 266 q 524 251 528 255 q 511 247 519 247 l 183 247 m 704 247 q 692 251 696 247 q 688 260 688 255 q 692 270 688 266 q 704 274 696 274 l 1032 274 q 1044 270 1040 274 q 1048 260 1048 266 q 1044 251 1048 255 q 1032 247 1040 247 l 704 247 m 183 420 q 171 425 175 420 q 167 434 167 429 q 171 444 167 439 q 183 448 175 448 l 859 448 q 871 444 867 448 q 875 434 875 439 q 871 425 875 429 q 859 420 867 420 l 183 420 m 183 594 q 171 598 175 594 q 167 608 167 602 q 171 617 167 613 q 183 621 175 621 l 685 621 q 697 617 693 621 q 701 608 701 613 q 697 598 701 602 q 685 594 693 594 l 183 594 m 183 768 q 171 772 175 768 q 167 781 167 776 q 171 791 167 787 q 183 795 175 795 l 859 795 q 871 791 867 795 q 875 781 875 787 q 871 772 875 776 q 859 768 867 768 l 183 768 m 183 941 q 171 945 175 941 q 167 955 167 949 q 171 964 167 960 q 183 968 175 968 l 511 968 q 524 964 519 968 q 528 955 528 960 q 524 945 528 949 q 511 941 519 941 l 183 941 m 704 941 q 692 945 696 941 q 688 955 688 949 q 692 964 688 960 q 704 968 696 968 l 1032 968 q 1044 964 1040 968 q 1048 955 1048 960 q 1044 945 1048 949 q 1032 941 1040 941 l 704 941 m 183 1115 q 171 1119 175 1115 q 167 1128 167 1123 q 171 1138 167 1134 q 183 1142 175 1142 l 511 1142 q 524 1138 519 1142 q 528 1128 528 1134 q 524 1119 528 1123 q 511 1115 519 1115 l 183 1115 m 878 1115 q 865 1119 869 1115 q 861 1128 861 1123 q 865 1138 861 1134 q 878 1142 869 1142 l 1206 1142 q 1218 1138 1214 1142 q 1222 1128 1222 1134 q 1218 1119 1222 1123 q 1206 1115 1214 1115 l 878 1115 z "},"L":{"ha":1389,"x_min":167,"x_max":1222,"o":"m 183 73 q 171 77 175 73 q 167 87 167 81 q 171 96 167 92 q 183 100 175 100 l 1206 100 q 1218 96 1214 100 q 1222 87 1222 92 q 1218 77 1222 81 q 1206 73 1214 73 l 183 73 m 183 247 q 171 251 175 247 q 167 260 167 255 q 171 270 167 266 q 183 274 175 274 l 511 274 q 524 270 519 274 q 528 260 528 266 q 524 251 528 255 q 511 247 519 247 l 183 247 m 183 420 q 171 425 175 420 q 167 434 167 429 q 171 444 167 439 q 183 448 175 448 l 511 448 q 524 444 519 448 q 528 434 528 439 q 524 425 528 429 q 511 420 519 420 l 183 420 m 183 594 q 171 598 175 594 q 167 608 167 602 q 171 617 167 613 q 183 621 175 621 l 511 621 q 524 617 519 621 q 528 608 528 613 q 524 598 528 602 q 511 594 519 594 l 183 594 m 183 768 q 171 772 175 768 q 167 781 167 776 q 171 791 167 787 q 183 795 175 795 l 511 795 q 524 791 519 795 q 528 781 528 787 q 524 772 528 776 q 511 768 519 768 l 183 768 m 183 941 q 171 945 175 941 q 167 955 167 949 q 171 964 167 960 q 183 968 175 968 l 511 968 q 524 964 519 968 q 528 955 528 960 q 524 945 528 949 q 511 941 519 941 l 183 941 m 183 1115 q 171 1119 175 1115 q 167 1128 167 1123 q 171 1138 167 1134 q 183 1142 175 1142 l 511 1142 q 524 1138 519 1142 q 528 1128 528 1134 q 524 1119 528 1123 q 511 1115 519 1115 l 183 1115 z "},"M":{"ha":1389,"x_min":167,"x_max":1396,"o":"m 183 73 q 171 77 175 73 q 167 87 167 81 q 171 96 167 92 q 183 100 175 100 l 511 100 q 524 96 519 100 q 528 87 528 92 q 524 77 528 81 q 511 73 519 73 l 183 73 m 1051 73 q 1039 77 1043 73 q 1035 87 1035 81 q 1039 96 1035 92 q 1051 100 1043 100 l 1379 100 q 1392 96 1388 100 q 1396 87 1396 92 q 1392 77 1396 81 q 1379 73 1388 73 l 1051 73 m 183 247 q 171 251 175 247 q 167 260 167 255 q 171 270 167 266 q 183 274 175 274 l 511 274 q 524 270 519 274 q 528 260 528 266 q 524 251 528 255 q 511 247 519 247 l 183 247 m 1051 247 q 1039 251 1043 247 q 1035 260 1035 255 q 1039 270 1035 266 q 1051 274 1043 274 l 1379 274 q 1392 270 1388 274 q 1396 260 1396 266 q 1392 251 1396 255 q 1379 247 1388 247 l 1051 247 m 183 420 q 171 425 175 420 q 167 434 167 429 q 171 444 167 439 q 183 448 175 448 l 511 448 q 524 444 519 448 q 528 434 528 439 q 524 425 528 429 q 511 420 519 420 l 183 420 m 1051 420 q 1039 425 1043 420 q 1035 434 1035 429 q 1039 444 1035 439 q 1051 448 1043 448 l 1379 448 q 1392 444 1388 448 q 1396 434 1396 439 q 1392 425 1396 429 q 1379 420 1388 420 l 1051 420 m 183 594 q 171 598 175 594 q 167 608 167 602 q 171 617 167 613 q 183 621 175 621 l 511 621 q 524 617 519 621 q 528 608 528 613 q 524 598 528 602 q 511 594 519 594 l 183 594 m 704 594 q 692 598 696 594 q 688 608 688 602 q 692 617 688 613 q 704 621 696 621 l 859 621 q 871 617 867 621 q 875 608 875 613 q 871 598 875 602 q 859 594 867 594 l 704 594 m 1051 594 q 1039 598 1043 594 q 1035 608 1035 602 q 1039 617 1035 613 q 1051 621 1043 621 l 1379 621 q 1392 617 1388 621 q 1396 608 1396 613 q 1392 598 1396 602 q 1379 594 1388 594 l 1051 594 m 183 768 q 171 772 175 768 q 167 781 167 776 q 171 791 167 787 q 183 795 175 795 l 1379 795 q 1392 791 1388 795 q 1396 781 1396 787 q 1392 772 1396 776 q 1379 768 1388 768 l 183 768 m 183 941 q 171 945 175 941 q 167 955 167 949 q 171 964 167 960 q 183 968 175 968 l 685 968 q 697 964 693 968 q 701 955 701 960 q 697 945 701 949 q 685 941 693 941 l 183 941 m 878 941 q 865 945 869 941 q 861 955 861 949 q 865 964 861 960 q 878 968 869 968 l 1379 968 q 1392 964 1388 968 q 1396 955 1396 960 q 1392 945 1396 949 q 1379 941 1388 941 l 878 941 m 183 1115 q 171 1119 175 1115 q 167 1128 167 1123 q 171 1138 167 1134 q 183 1142 175 1142 l 511 1142 q 524 1138 519 1142 q 528 1128 528 1134 q 524 1119 528 1123 q 511 1115 519 1115 l 183 1115 m 1051 1115 q 1039 1119 1043 1115 q 1035 1128 1035 1123 q 1039 1138 1035 1134 q 1051 1142 1043 1142 l 1379 1142 q 1392 1138 1388 1142 q 1396 1128 1396 1134 q 1392 1119 1396 1123 q 1379 1115 1388 1115 l 1051 1115 z "},"N":{"ha":1389,"x_min":167,"x_max":1222,"o":"m 183 73 q 171 77 175 73 q 167 87 167 81 q 171 96 167 92 q 183 100 175 100 l 511 100 q 524 96 519 100 q 528 87 528 92 q 524 77 528 81 q 511 73 519 73 l 183 73 m 878 73 q 865 77 869 73 q 861 87 861 81 q 865 96 861 92 q 878 100 869 100 l 1206 100 q 1218 96 1214 100 q 1222 87 1222 92 q 1218 77 1222 81 q 1206 73 1214 73 l 878 73 m 183 247 q 171 251 175 247 q 167 260 167 255 q 171 270 167 266 q 183 274 175 274 l 511 274 q 524 270 519 274 q 528 260 528 266 q 524 251 528 255 q 511 247 519 247 l 183 247 m 878 247 q 865 251 869 247 q 861 260 861 255 q 865 270 861 266 q 878 274 869 274 l 1206 274 q 1218 270 1214 274 q 1222 260 1222 266 q 1218 251 1222 255 q 1206 247 1214 247 l 878 247 m 183 420 q 171 425 175 420 q 167 434 167 429 q 171 444 167 439 q 183 448 175 448 l 511 448 q 524 444 519 448 q 528 434 528 439 q 524 425 528 429 q 511 420 519 420 l 183 420 m 878 420 q 865 425 869 420 q 861 434 861 429 q 865 444 861 439 q 878 448 869 448 l 1206 448 q 1218 444 1214 448 q 1222 434 1222 439 q 1218 425 1222 429 q 1206 420 1214 420 l 878 420 m 183 594 q 171 598 175 594 q 167 608 167 602 q 171 617 167 613 q 183 621 175 621 l 511 621 q 524 617 519 621 q 528 608 528 613 q 524 598 528 602 q 511 594 519 594 l 183 594 m 704 594 q 692 598 696 594 q 688 608 688 602 q 692 617 688 613 q 704 621 696 621 l 1206 621 q 1218 617 1214 621 q 1222 608 1222 613 q 1218 598 1222 602 q 1206 594 1214 594 l 704 594 m 183 768 q 171 772 175 768 q 167 781 167 776 q 171 791 167 787 q 183 795 175 795 l 1206 795 q 1218 791 1214 795 q 1222 781 1222 787 q 1218 772 1222 776 q 1206 768 1214 768 l 183 768 m 183 941 q 171 945 175 941 q 167 955 167 949 q 171 964 167 960 q 183 968 175 968 l 685 968 q 697 964 693 968 q 701 955 701 960 q 697 945 701 949 q 685 941 693 941 l 183 941 m 878 941 q 865 945 869 941 q 861 955 861 949 q 865 964 861 960 q 878 968 869 968 l 1206 968 q 1218 964 1214 968 q 1222 955 1222 960 q 1218 945 1222 949 q 1206 941 1214 941 l 878 941 m 183 1115 q 171 1119 175 1115 q 167 1128 167 1123 q 171 1138 167 1134 q 183 1142 175 1142 l 511 1142 q 524 1138 519 1142 q 528 1128 528 1134 q 524 1119 528 1123 q 511 1115 519 1115 l 183 1115 m 878 1115 q 865 1119 869 1115 q 861 1128 861 1123 q 865 1138 861 1134 q 878 1142 869 1142 l 1206 1142 q 1218 1138 1214 1142 q 1222 1128 1222 1134 q 1218 1119 1222 1123 q 1206 1115 1214 1115 l 878 1115 z "},"Ñ":{"ha":1389,"x_min":167,"x_max":1396,"o":"z "},"O":{"ha":1389,"x_min":167,"x_max":1222,"o":"m 357 73 q 345 77 349 73 q 340 87 340 81 q 345 96 340 92 q 357 100 349 100 l 1032 100 q 1044 96 1040 100 q 1048 87 1048 92 q 1044 77 1048 81 q 1032 73 1040 73 l 357 73 m 183 247 q 171 251 175 247 q 167 260 167 255 q 171 270 167 266 q 183 274 175 274 l 511 274 q 524 270 519 274 q 528 260 528 266 q 524 251 528 255 q 511 247 519 247 l 183 247 m 878 247 q 865 251 869 247 q 861 260 861 255 q 865 270 861 266 q 878 274 869 274 l 1206 274 q 1218 270 1214 274 q 1222 260 1222 266 q 1218 251 1222 255 q 1206 247 1214 247 l 878 247 m 183 420 q 171 425 175 420 q 167 434 167 429 q 171 444 167 439 q 183 448 175 448 l 511 448 q 524 444 519 448 q 528 434 528 439 q 524 425 528 429 q 511 420 519 420 l 183 420 m 878 420 q 865 425 869 420 q 861 434 861 429 q 865 444 861 439 q 878 448 869 448 l 1206 448 q 1218 444 1214 448 q 1222 434 1222 439 q 1218 425 1222 429 q 1206 420 1214 420 l 878 420 m 183 594 q 171 598 175 594 q 167 608 167 602 q 171 617 167 613 q 183 621 175 621 l 511 621 q 524 617 519 621 q 528 608 528 613 q 524 598 528 602 q 511 594 519 594 l 183 594 m 878 594 q 865 598 869 594 q 861 608 861 602 q 865 617 861 613 q 878 621 869 621 l 1206 621 q 1218 617 1214 621 q 1222 608 1222 613 q 1218 598 1222 602 q 1206 594 1214 594 l 878 594 m 183 768 q 171 772 175 768 q 167 781 167 776 q 171 791 167 787 q 183 795 175 795 l 511 795 q 524 791 519 795 q 528 781 528 787 q 524 772 528 776 q 511 768 519 768 l 183 768 m 878 768 q 865 772 869 768 q 861 781 861 776 q 865 791 861 787 q 878 795 869 795 l 1206 795 q 1218 791 1214 795 q 1222 781 1222 787 q 1218 772 1222 776 q 1206 768 1214 768 l 878 768 m 183 941 q 171 945 175 941 q 167 955 167 949 q 171 964 167 960 q 183 968 175 968 l 511 968 q 524 964 519 968 q 528 955 528 960 q 524 945 528 949 q 511 941 519 941 l 183 941 m 878 941 q 865 945 869 941 q 861 955 861 949 q 865 964 861 960 q 878 968 869 968 l 1206 968 q 1218 964 1214 968 q 1222 955 1222 960 q 1218 945 1222 949 q 1206 941 1214 941 l 878 941 m 357 1115 q 345 1119 349 1115 q 340 1128 340 1123 q 345 1138 340 1134 q 357 1142 349 1142 l 1032 1142 q 1044 1138 1040 1142 q 1048 1128 1048 1134 q 1044 1119 1048 1123 q 1032 1115 1040 1115 l 357 1115 z "},"Ó":{"ha":1389,"x_min":167,"x_max":1222,"o":"z "},"Ô":{"ha":1389,"x_min":167,"x_max":1222,"o":"z "},"Ö":{"ha":1389,"x_min":167,"x_max":1222,"o":"z "},"Ò":{"ha":1389,"x_min":167,"x_max":1222,"o":"z "},"Ø":{"ha":1389,"x_min":167,"x_max":1222,"o":"m 183 73 q 171 77 175 73 q 167 87 167 81 q 171 96 167 92 q 183 100 175 100 l 1032 100 q 1044 96 1040 100 q 1048 87 1048 92 q 1044 77 1048 81 q 1032 73 1040 73 l 183 73 m 183 247 q 171 251 175 247 q 167 260 167 255 q 171 270 167 266 q 183 274 175 274 l 511 274 q 524 270 519 274 q 528 260 528 266 q 524 251 528 255 q 511 247 519 247 l 183 247 m 878 247 q 865 251 869 247 q 861 260 861 255 q 865 270 861 266 q 878 274 869 274 l 1206 274 q 1218 270 1214 274 q 1222 260 1222 266 q 1218 251 1222 255 q 1206 247 1214 247 l 878 247 m 183 420 q 171 425 175 420 q 167 434 167 429 q 171 444 167 439 q 183 448 175 448 l 685 448 q 697 444 693 448 q 701 434 701 439 q 697 425 701 429 q 685 420 693 420 l 183 420 m 878 420 q 865 425 869 420 q 861 434 861 429 q 865 444 861 439 q 878 448 869 448 l 1206 448 q 1218 444 1214 448 q 1222 434 1222 439 q 1218 425 1222 429 q 1206 420 1214 420 l 878 420 m 183 594 q 171 598 175 594 q 167 608 167 602 q 171 617 167 613 q 183 621 175 621 l 1206 621 q 1218 617 1214 621 q 1222 608 1222 613 q 1218 598 1222 602 q 1206 594 1214 594 l 183 594 m 183 768 q 171 772 175 768 q 167 781 167 776 q 171 791 167 787 q 183 795 175 795 l 511 795 q 524 791 519 795 q 528 781 528 787 q 524 772 528 776 q 511 768 519 768 l 183 768 m 704 768 q 692 772 696 768 q 688 781 688 776 q 692 791 688 787 q 704 795 696 795 l 1206 795 q 1218 791 1214 795 q 1222 781 1222 787 q 1218 772 1222 776 q 1206 768 1214 768 l 704 768 m 183 941 q 171 945 175 941 q 167 955 167 949 q 171 964 167 960 q 183 968 175 968 l 511 968 q 524 964 519 968 q 528 955 528 960 q 524 945 528 949 q 511 941 519 941 l 183 941 m 878 941 q 865 945 869 941 q 861 955 861 949 q 865 964 861 960 q 878 968 869 968 l 1206 968 q 1218 964 1214 968 q 1222 955 1222 960 q 1218 945 1222 949 q 1206 941 1214 941 l 878 941 m 357 1115 q 345 1119 349 1115 q 340 1128 340 1123 q 345 1138 340 1134 q 357 1142 349 1142 l 1206 1142 q 1218 1138 1214 1142 q 1222 1128 1222 1134 q 1218 1119 1222 1123 q 1206 1115 1214 1115 l 357 1115 z "},"Õ":{"ha":1389,"x_min":167,"x_max":1396,"o":"z "},"Œ":{"ha":1389,"x_min":167,"x_max":1396,"o":"m 357 73 q 345 77 349 73 q 340 87 340 81 q 345 96 340 92 q 357 100 349 100 l 1379 100 q 1392 96 1388 100 q 1396 87 1396 92 q 1392 77 1396 81 q 1379 73 1388 73 l 357 73 m 183 247 q 171 251 175 247 q 167 260 167 255 q 171 270 167 266 q 183 274 175 274 l 511 274 q 524 270 519 274 q 528 260 528 266 q 524 251 528 255 q 511 247 519 247 l 183 247 m 704 247 q 692 251 696 247 q 688 260 688 255 q 692 270 688 266 q 704 274 696 274 l 1032 274 q 1044 270 1040 274 q 1048 260 1048 266 q 1044 251 1048 255 q 1032 247 1040 247 l 704 247 m 183 420 q 171 425 175 420 q 167 434 167 429 q 171 444 167 439 q 183 448 175 448 l 511 448 q 524 444 519 448 q 528 434 528 439 q 524 425 528 429 q 511 420 519 420 l 183 420 m 704 420 q 692 425 696 420 q 688 434 688 429 q 692 444 688 439 q 704 448 696 448 l 1032 448 q 1044 444 1040 448 q 1048 434 1048 439 q 1044 425 1048 429 q 1032 420 1040 420 l 704 420 m 183 594 q 171 598 175 594 q 167 608 167 602 q 171 617 167 613 q 183 621 175 621 l 511 621 q 524 617 519 621 q 528 608 528 613 q 524 598 528 602 q 511 594 519 594 l 183 594 m 704 594 q 692 598 696 594 q 688 608 688 602 q 692 617 688 613 q 704 621 696 621 l 1206 621 q 1218 617 1214 621 q 1222 608 1222 613 q 1218 598 1222 602 q 1206 594 1214 594 l 704 594 m 183 768 q 171 772 175 768 q 167 781 167 776 q 171 791 167 787 q 183 795 175 795 l 511 795 q 524 791 519 795 q 528 781 528 787 q 524 772 528 776 q 511 768 519 768 l 183 768 m 704 768 q 692 772 696 768 q 688 781 688 776 q 692 791 688 787 q 704 795 696 795 l 1032 795 q 1044 791 1040 795 q 1048 781 1048 787 q 1044 772 1048 776 q 1032 768 1040 768 l 704 768 m 183 941 q 171 945 175 941 q 167 955 167 949 q 171 964 167 960 q 183 968 175 968 l 511 968 q 524 964 519 968 q 528 955 528 960 q 524 945 528 949 q 511 941 519 941 l 183 941 m 704 941 q 692 945 696 941 q 688 955 688 949 q 692 964 688 960 q 704 968 696 968 l 1032 968 q 1044 964 1040 968 q 1048 955 1048 960 q 1044 945 1048 949 q 1032 941 1040 941 l 704 941 m 357 1115 q 345 1119 349 1115 q 340 1128 340 1123 q 345 1138 340 1134 q 357 1142 349 1142 l 1379 1142 q 1392 1138 1388 1142 q 1396 1128 1396 1134 q 1392 1119 1396 1123 q 1379 1115 1388 1115 l 357 1115 z "},"P":{"ha":1389,"x_min":167,"x_max":1222,"o":"m 183 73 q 171 77 175 73 q 167 87 167 81 q 171 96 167 92 q 183 100 175 100 l 511 100 q 524 96 519 100 q 528 87 528 92 q 524 77 528 81 q 511 73 519 73 l 183 73 m 183 247 q 171 251 175 247 q 167 260 167 255 q 171 270 167 266 q 183 274 175 274 l 511 274 q 524 270 519 274 q 528 260 528 266 q 524 251 528 255 q 511 247 519 247 l 183 247 m 183 420 q 171 425 175 420 q 167 434 167 429 q 171 444 167 439 q 183 448 175 448 l 511 448 q 524 444 519 448 q 528 434 528 439 q 524 425 528 429 q 511 420 519 420 l 183 420 m 183 594 q 171 598 175 594 q 167 608 167 602 q 171 617 167 613 q 183 621 175 621 l 1032 621 q 1044 617 1040 621 q 1048 608 1048 613 q 1044 598 1048 602 q 1032 594 1040 594 l 183 594 m 183 768 q 171 772 175 768 q 167 781 167 776 q 171 791 167 787 q 183 795 175 795 l 511 795 q 524 791 519 795 q 528 781 528 787 q 524 772 528 776 q 511 768 519 768 l 183 768 m 878 768 q 865 772 869 768 q 861 781 861 776 q 865 791 861 787 q 878 795 869 795 l 1206 795 q 1218 791 1214 795 q 1222 781 1222 787 q 1218 772 1222 776 q 1206 768 1214 768 l 878 768 m 183 941 q 171 945 175 941 q 167 955 167 949 q 171 964 167 960 q 183 968 175 968 l 511 968 q 524 964 519 968 q 528 955 528 960 q 524 945 528 949 q 511 941 519 941 l 183 941 m 878 941 q 865 945 869 941 q 861 955 861 949 q 865 964 861 960 q 878 968 869 968 l 1206 968 q 1218 964 1214 968 q 1222 955 1222 960 q 1218 945 1222 949 q 1206 941 1214 941 l 878 941 m 183 1115 q 171 1119 175 1115 q 167 1128 167 1123 q 171 1138 167 1134 q 183 1142 175 1142 l 1032 1142 q 1044 1138 1040 1142 q 1048 1128 1048 1134 q 1044 1119 1048 1123 q 1032 1115 1040 1115 l 183 1115 z "},"Þ":{"ha":1389,"x_min":167,"x_max":1222,"o":"m 183 73 q 171 77 175 73 q 167 87 167 81 q 171 96 167 92 q 183 100 175 100 l 511 100 q 524 96 519 100 q 528 87 528 92 q 524 77 528 81 q 511 73 519 73 l 183 73 m 183 247 q 171 251 175 247 q 167 260 167 255 q 171 270 167 266 q 183 274 175 274 l 1032 274 q 1044 270 1040 274 q 1048 260 1048 266 q 1044 251 1048 255 q 1032 247 1040 247 l 183 247 m 183 420 q 171 425 175 420 q 167 434 167 429 q 171 444 167 439 q 183 448 175 448 l 511 448 q 524 444 519 448 q 528 434 528 439 q 524 425 528 429 q 511 420 519 420 l 183 420 m 878 420 q 865 425 869 420 q 861 434 861 429 q 865 444 861 439 q 878 448 869 448 l 1206 448 q 1218 444 1214 448 q 1222 434 1222 439 q 1218 425 1222 429 q 1206 420 1214 420 l 878 420 m 183 594 q 171 598 175 594 q 167 608 167 602 q 171 617 167 613 q 183 621 175 621 l 511 621 q 524 617 519 621 q 528 608 528 613 q 524 598 528 602 q 511 594 519 594 l 183 594 m 878 594 q 865 598 869 594 q 861 608 861 602 q 865 617 861 613 q 878 621 869 621 l 1206 621 q 1218 617 1214 621 q 1222 608 1222 613 q 1218 598 1222 602 q 1206 594 1214 594 l 878 594 m 183 768 q 171 772 175 768 q 167 781 167 776 q 171 791 167 787 q 183 795 175 795 l 511 795 q 524 791 519 795 q 528 781 528 787 q 524 772 528 776 q 511 768 519 768 l 183 768 m 878 768 q 865 772 869 768 q 861 781 861 776 q 865 791 861 787 q 878 795 869 795 l 1206 795 q 1218 791 1214 795 q 1222 781 1222 787 q 1218 772 1222 776 q 1206 768 1214 768 l 878 768 m 183 941 q 171 945 175 941 q 167 955 167 949 q 171 964 167 960 q 183 968 175 968 l 1032 968 q 1044 964 1040 968 q 1048 955 1048 960 q 1044 945 1048 949 q 1032 941 1040 941 l 183 941 m 183 1115 q 171 1119 175 1115 q 167 1128 167 1123 q 171 1138 167 1134 q 183 1142 175 1142 l 511 1142 q 524 1138 519 1142 q 528 1128 528 1134 q 524 1119 528 1123 q 511 1115 519 1115 l 183 1115 z "},"Q":{"ha":1389,"x_min":167,"x_max":1222,"o":"m 704 73 q 692 77 696 73 q 688 87 688 81 q 692 96 688 92 q 704 100 696 100 l 1206 100 q 1218 96 1214 100 q 1222 87 1222 92 q 1218 77 1222 81 q 1206 73 1214 73 l 704 73 m 357 247 q 345 251 349 247 q 340 260 340 255 q 345 270 340 266 q 357 274 349 274 l 1032 274 q 1044 270 1040 274 q 1048 260 1048 266 q 1044 251 1048 255 q 1032 247 1040 247 l 357 247 m 183 420 q 171 425 175 420 q 167 434 167 429 q 171 444 167 439 q 183 448 175 448 l 511 448 q 524 444 519 448 q 528 434 528 439 q 524 425 528 429 q 511 420 519 420 l 183 420 m 878 420 q 865 425 869 420 q 861 434 861 429 q 865 444 861 439 q 878 448 869 448 l 1206 448 q 1218 444 1214 448 q 1222 434 1222 439 q 1218 425 1222 429 q 1206 420 1214 420 l 878 420 m 183 594 q 171 598 175 594 q 167 608 167 602 q 171 617 167 613 q 183 621 175 621 l 511 621 q 524 617 519 621 q 528 608 528 613 q 524 598 528 602 q 511 594 519 594 l 183 594 m 878 594 q 865 598 869 594 q 861 608 861 602 q 865 617 861 613 q 878 621 869 621 l 1206 621 q 1218 617 1214 621 q 1222 608 1222 613 q 1218 598 1222 602 q 1206 594 1214 594 l 878 594 m 183 768 q 171 772 175 768 q 167 781 167 776 q 171 791 167 787 q 183 795 175 795 l 511 795 q 524 791 519 795 q 528 781 528 787 q 524 772 528 776 q 511 768 519 768 l 183 768 m 878 768 q 865 772 869 768 q 861 781 861 776 q 865 791 861 787 q 878 795 869 795 l 1206 795 q 1218 791 1214 795 q 1222 781 1222 787 q 1218 772 1222 776 q 1206 768 1214 768 l 878 768 m 183 941 q 171 945 175 941 q 167 955 167 949 q 171 964 167 960 q 183 968 175 968 l 511 968 q 524 964 519 968 q 528 955 528 960 q 524 945 528 949 q 511 941 519 941 l 183 941 m 878 941 q 865 945 869 941 q 861 955 861 949 q 865 964 861 960 q 878 968 869 968 l 1206 968 q 1218 964 1214 968 q 1222 955 1222 960 q 1218 945 1222 949 q 1206 941 1214 941 l 878 941 m 357 1115 q 345 1119 349 1115 q 340 1128 340 1123 q 345 1138 340 1134 q 357 1142 349 1142 l 1032 1142 q 1044 1138 1040 1142 q 1048 1128 1048 1134 q 1044 1119 1048 1123 q 1032 1115 1040 1115 l 357 1115 z "},"R":{"ha":1389,"x_min":167,"x_max":1222,"o":"m 183 73 q 171 77 175 73 q 167 87 167 81 q 171 96 167 92 q 183 100 175 100 l 511 100 q 524 96 519 100 q 528 87 528 92 q 524 77 528 81 q 511 73 519 73 l 183 73 m 878 73 q 865 77 869 73 q 861 87 861 81 q 865 96 861 92 q 878 100 869 100 l 1206 100 q 1218 96 1214 100 q 1222 87 1222 92 q 1218 77 1222 81 q 1206 73 1214 73 l 878 73 m 183 247 q 171 251 175 247 q 167 260 167 255 q 171 270 167 266 q 183 274 175 274 l 511 274 q 524 270 519 274 q 528 260 528 266 q 524 251 528 255 q 511 247 519 247 l 183 247 m 704 247 q 692 251 696 247 q 688 260 688 255 q 692 270 688 266 q 704 274 696 274 l 1032 274 q 1044 270 1040 274 q 1048 260 1048 266 q 1044 251 1048 255 q 1032 247 1040 247 l 704 247 m 183 420 q 171 425 175 420 q 167 434 167 429 q 171 444 167 439 q 183 448 175 448 l 859 448 q 871 444 867 448 q 875 434 875 439 q 871 425 875 429 q 859 420 867 420 l 183 420 m 183 594 q 171 598 175 594 q 167 608 167 602 q 171 617 167 613 q 183 621 175 621 l 1032 621 q 1044 617 1040 621 q 1048 608 1048 613 q 1044 598 1048 602 q 1032 594 1040 594 l 183 594 m 183 768 q 171 772 175 768 q 167 781 167 776 q 171 791 167 787 q 183 795 175 795 l 511 795 q 524 791 519 795 q 528 781 528 787 q 524 772 528 776 q 511 768 519 768 l 183 768 m 878 768 q 865 772 869 768 q 861 781 861 776 q 865 791 861 787 q 878 795 869 795 l 1206 795 q 1218 791 1214 795 q 1222 781 1222 787 q 1218 772 1222 776 q 1206 768 1214 768 l 878 768 m 183 941 q 171 945 175 941 q 167 955 167 949 q 171 964 167 960 q 183 968 175 968 l 511 968 q 524 964 519 968 q 528 955 528 960 q 524 945 528 949 q 511 941 519 941 l 183 941 m 878 941 q 865 945 869 941 q 861 955 861 949 q 865 964 861 960 q 878 968 869 968 l 1206 968 q 1218 964 1214 968 q 1222 955 1222 960 q 1218 945 1222 949 q 1206 941 1214 941 l 878 941 m 183 1115 q 171 1119 175 1115 q 167 1128 167 1123 q 171 1138 167 1134 q 183 1142 175 1142 l 1032 1142 q 1044 1138 1040 1142 q 1048 1128 1048 1134 q 1044 1119 1048 1123 q 1032 1115 1040 1115 l 183 1115 z "},"S":{"ha":1389,"x_min":167,"x_max":1222,"o":"m 357 73 q 345 77 349 73 q 340 87 340 81 q 345 96 340 92 q 357 100 349 100 l 1032 100 q 1044 96 1040 100 q 1048 87 1048 92 q 1044 77 1048 81 q 1032 73 1040 73 l 357 73 m 183 247 q 171 251 175 247 q 167 260 167 255 q 171 270 167 266 q 183 274 175 274 l 511 274 q 524 270 519 274 q 528 260 528 266 q 524 251 528 255 q 511 247 519 247 l 183 247 m 878 247 q 865 251 869 247 q 861 260 861 255 q 865 270 861 266 q 878 274 869 274 l 1206 274 q 1218 270 1214 274 q 1222 260 1222 266 q 1218 251 1222 255 q 1206 247 1214 247 l 878 247 m 878 420 q 865 425 869 420 q 861 434 861 429 q 865 444 861 439 q 878 448 869 448 l 1206 448 q 1218 444 1214 448 q 1222 434 1222 439 q 1218 425 1222 429 q 1206 420 1214 420 l 878 420 m 357 594 q 345 598 349 594 q 340 608 340 602 q 345 617 340 613 q 357 621 349 621 l 1032 621 q 1044 617 1040 621 q 1048 608 1048 613 q 1044 598 1048 602 q 1032 594 1040 594 l 357 594 m 183 768 q 171 772 175 768 q 167 781 167 776 q 171 791 167 787 q 183 795 175 795 l 511 795 q 524 791 519 795 q 528 781 528 787 q 524 772 528 776 q 511 768 519 768 l 183 768 m 183 941 q 171 945 175 941 q 167 955 167 949 q 171 964 167 960 q 183 968 175 968 l 511 968 q 524 964 519 968 q 528 955 528 960 q 524 945 528 949 q 511 941 519 941 l 183 941 m 878 941 q 865 945 869 941 q 861 955 861 949 q 865 964 861 960 q 878 968 869 968 l 1206 968 q 1218 964 1214 968 q 1222 955 1222 960 q 1218 945 1222 949 q 1206 941 1214 941 l 878 941 m 357 1115 q 345 1119 349 1115 q 340 1128 340 1123 q 345 1138 340 1134 q 357 1142 349 1142 l 1032 1142 q 1044 1138 1040 1142 q 1048 1128 1048 1134 q 1044 1119 1048 1123 q 1032 1115 1040 1115 l 357 1115 z "},"T":{"ha":1389,"x_min":167,"x_max":1222,"o":"m 530 73 q 518 77 522 73 q 514 87 514 81 q 518 96 514 92 q 530 100 522 100 l 859 100 q 871 96 867 100 q 875 87 875 92 q 871 77 875 81 q 859 73 867 73 l 530 73 m 530 247 q 518 251 522 247 q 514 260 514 255 q 518 270 514 266 q 530 274 522 274 l 859 274 q 871 270 867 274 q 875 260 875 266 q 871 251 875 255 q 859 247 867 247 l 530 247 m 530 420 q 518 425 522 420 q 514 434 514 429 q 518 444 514 439 q 530 448 522 448 l 859 448 q 871 444 867 448 q 875 434 875 439 q 871 425 875 429 q 859 420 867 420 l 530 420 m 530 594 q 518 598 522 594 q 514 608 514 602 q 518 617 514 613 q 530 621 522 621 l 859 621 q 871 617 867 621 q 875 608 875 613 q 871 598 875 602 q 859 594 867 594 l 530 594 m 530 768 q 518 772 522 768 q 514 781 514 776 q 518 791 514 787 q 530 795 522 795 l 859 795 q 871 791 867 795 q 875 781 875 787 q 871 772 875 776 q 859 768 867 768 l 530 768 m 530 941 q 518 945 522 941 q 514 955 514 949 q 518 964 514 960 q 530 968 522 968 l 859 968 q 871 964 867 968 q 875 955 875 960 q 871 945 875 949 q 859 941 867 941 l 530 941 m 183 1115 q 171 1119 175 1115 q 167 1128 167 1123 q 171 1138 167 1134 q 183 1142 175 1142 l 1206 1142 q 1218 1138 1214 1142 q 1222 1128 1222 1134 q 1218 1119 1222 1123 q 1206 1115 1214 1115 l 183 1115 z "},"U":{"ha":1389,"x_min":167,"x_max":1222,"o":"m 357 73 q 345 77 349 73 q 340 87 340 81 q 345 96 340 92 q 357 100 349 100 l 1032 100 q 1044 96 1040 100 q 1048 87 1048 92 q 1044 77 1048 81 q 1032 73 1040 73 l 357 73 m 183 247 q 171 251 175 247 q 167 260 167 255 q 171 270 167 266 q 183 274 175 274 l 511 274 q 524 270 519 274 q 528 260 528 266 q 524 251 528 255 q 511 247 519 247 l 183 247 m 878 247 q 865 251 869 247 q 861 260 861 255 q 865 270 861 266 q 878 274 869 274 l 1206 274 q 1218 270 1214 274 q 1222 260 1222 266 q 1218 251 1222 255 q 1206 247 1214 247 l 878 247 m 183 420 q 171 425 175 420 q 167 434 167 429 q 171 444 167 439 q 183 448 175 448 l 511 448 q 524 444 519 448 q 528 434 528 439 q 524 425 528 429 q 511 420 519 420 l 183 420 m 878 420 q 865 425 869 420 q 861 434 861 429 q 865 444 861 439 q 878 448 869 448 l 1206 448 q 1218 444 1214 448 q 1222 434 1222 439 q 1218 425 1222 429 q 1206 420 1214 420 l 878 420 m 183 594 q 171 598 175 594 q 167 608 167 602 q 171 617 167 613 q 183 621 175 621 l 511 621 q 524 617 519 621 q 528 608 528 613 q 524 598 528 602 q 511 594 519 594 l 183 594 m 878 594 q 865 598 869 594 q 861 608 861 602 q 865 617 861 613 q 878 621 869 621 l 1206 621 q 1218 617 1214 621 q 1222 608 1222 613 q 1218 598 1222 602 q 1206 594 1214 594 l 878 594 m 183 768 q 171 772 175 768 q 167 781 167 776 q 171 791 167 787 q 183 795 175 795 l 511 795 q 524 791 519 795 q 528 781 528 787 q 524 772 528 776 q 511 768 519 768 l 183 768 m 878 768 q 865 772 869 768 q 861 781 861 776 q 865 791 861 787 q 878 795 869 795 l 1206 795 q 1218 791 1214 795 q 1222 781 1222 787 q 1218 772 1222 776 q 1206 768 1214 768 l 878 768 m 183 941 q 171 945 175 941 q 167 955 167 949 q 171 964 167 960 q 183 968 175 968 l 511 968 q 524 964 519 968 q 528 955 528 960 q 524 945 528 949 q 511 941 519 941 l 183 941 m 878 941 q 865 945 869 941 q 861 955 861 949 q 865 964 861 960 q 878 968 869 968 l 1206 968 q 1218 964 1214 968 q 1222 955 1222 960 q 1218 945 1222 949 q 1206 941 1214 941 l 878 941 m 183 1115 q 171 1119 175 1115 q 167 1128 167 1123 q 171 1138 167 1134 q 183 1142 175 1142 l 511 1142 q 524 1138 519 1142 q 528 1128 528 1134 q 524 1119 528 1123 q 511 1115 519 1115 l 183 1115 m 878 1115 q 865 1119 869 1115 q 861 1128 861 1123 q 865 1138 861 1134 q 878 1142 869 1142 l 1206 1142 q 1218 1138 1214 1142 q 1222 1128 1222 1134 q 1218 1119 1222 1123 q 1206 1115 1214 1115 l 878 1115 z "},"Ú":{"ha":1389,"x_min":167,"x_max":1222,"o":"z "},"Û":{"ha":1389,"x_min":167,"x_max":1222,"o":"z "},"Ü":{"ha":1389,"x_min":167,"x_max":1222,"o":"z "},"Ù":{"ha":1389,"x_min":167,"x_max":1222,"o":"z "},"V":{"ha":1389,"x_min":167,"x_max":1222,"o":"m 530 73 q 518 77 522 73 q 514 87 514 81 q 518 96 514 92 q 530 100 522 100 l 859 100 q 871 96 867 100 q 875 87 875 92 q 871 77 875 81 q 859 73 867 73 l 530 73 m 357 247 q 345 251 349 247 q 340 260 340 255 q 345 270 340 266 q 357 274 349 274 l 1032 274 q 1044 270 1040 274 q 1048 260 1048 266 q 1044 251 1048 255 q 1032 247 1040 247 l 357 247 m 183 420 q 171 425 175 420 q 167 434 167 429 q 171 444 167 439 q 183 448 175 448 l 511 448 q 524 444 519 448 q 528 434 528 439 q 524 425 528 429 q 511 420 519 420 l 183 420 m 878 420 q 865 425 869 420 q 861 434 861 429 q 865 444 861 439 q 878 448 869 448 l 1206 448 q 1218 444 1214 448 q 1222 434 1222 439 q 1218 425 1222 429 q 1206 420 1214 420 l 878 420 m 183 594 q 171 598 175 594 q 167 608 167 602 q 171 617 167 613 q 183 621 175 621 l 511 621 q 524 617 519 621 q 528 608 528 613 q 524 598 528 602 q 511 594 519 594 l 183 594 m 878 594 q 865 598 869 594 q 861 608 861 602 q 865 617 861 613 q 878 621 869 621 l 1206 621 q 1218 617 1214 621 q 1222 608 1222 613 q 1218 598 1222 602 q 1206 594 1214 594 l 878 594 m 183 768 q 171 772 175 768 q 167 781 167 776 q 171 791 167 787 q 183 795 175 795 l 511 795 q 524 791 519 795 q 528 781 528 787 q 524 772 528 776 q 511 768 519 768 l 183 768 m 878 768 q 865 772 869 768 q 861 781 861 776 q 865 791 861 787 q 878 795 869 795 l 1206 795 q 1218 791 1214 795 q 1222 781 1222 787 q 1218 772 1222 776 q 1206 768 1214 768 l 878 768 m 183 941 q 171 945 175 941 q 167 955 167 949 q 171 964 167 960 q 183 968 175 968 l 511 968 q 524 964 519 968 q 528 955 528 960 q 524 945 528 949 q 511 941 519 941 l 183 941 m 878 941 q 865 945 869 941 q 861 955 861 949 q 865 964 861 960 q 878 968 869 968 l 1206 968 q 1218 964 1214 968 q 1222 955 1222 960 q 1218 945 1222 949 q 1206 941 1214 941 l 878 941 m 183 1115 q 171 1119 175 1115 q 167 1128 167 1123 q 171 1138 167 1134 q 183 1142 175 1142 l 511 1142 q 524 1138 519 1142 q 528 1128 528 1134 q 524 1119 528 1123 q 511 1115 519 1115 l 183 1115 m 878 1115 q 865 1119 869 1115 q 861 1128 861 1123 q 865 1138 861 1134 q 878 1142 869 1142 l 1206 1142 q 1218 1138 1214 1142 q 1222 1128 1222 1134 q 1218 1119 1222 1123 q 1206 1115 1214 1115 l 878 1115 z "},"W":{"ha":1389,"x_min":167,"x_max":1396,"o":"m 183 73 q 171 77 175 73 q 167 87 167 81 q 171 96 167 92 q 183 100 175 100 l 511 100 q 524 96 519 100 q 528 87 528 92 q 524 77 528 81 q 511 73 519 73 l 183 73 m 1051 73 q 1039 77 1043 73 q 1035 87 1035 81 q 1039 96 1035 92 q 1051 100 1043 100 l 1379 100 q 1392 96 1388 100 q 1396 87 1396 92 q 1392 77 1396 81 q 1379 73 1388 73 l 1051 73 m 183 247 q 171 251 175 247 q 167 260 167 255 q 171 270 167 266 q 183 274 175 274 l 685 274 q 697 270 693 274 q 701 260 701 266 q 697 251 701 255 q 685 247 693 247 l 183 247 m 878 247 q 865 251 869 247 q 861 260 861 255 q 865 270 861 266 q 878 274 869 274 l 1379 274 q 1392 270 1388 274 q 1396 260 1396 266 q 1392 251 1396 255 q 1379 247 1388 247 l 878 247 m 183 420 q 171 425 175 420 q 167 434 167 429 q 171 444 167 439 q 183 448 175 448 l 1379 448 q 1392 444 1388 448 q 1396 434 1396 439 q 1392 425 1396 429 q 1379 420 1388 420 l 183 420 m 183 594 q 171 598 175 594 q 167 608 167 602 q 171 617 167 613 q 183 621 175 621 l 511 621 q 524 617 519 621 q 528 608 528 613 q 524 598 528 602 q 511 594 519 594 l 183 594 m 704 594 q 692 598 696 594 q 688 608 688 602 q 692 617 688 613 q 704 621 696 621 l 859 621 q 871 617 867 621 q 875 608 875 613 q 871 598 875 602 q 859 594 867 594 l 704 594 m 1051 594 q 1039 598 1043 594 q 1035 608 1035 602 q 1039 617 1035 613 q 1051 621 1043 621 l 1379 621 q 1392 617 1388 621 q 1396 608 1396 613 q 1392 598 1396 602 q 1379 594 1388 594 l 1051 594 m 183 768 q 171 772 175 768 q 167 781 167 776 q 171 791 167 787 q 183 795 175 795 l 511 795 q 524 791 519 795 q 528 781 528 787 q 524 772 528 776 q 511 768 519 768 l 183 768 m 1051 768 q 1039 772 1043 768 q 1035 781 1035 776 q 1039 791 1035 787 q 1051 795 1043 795 l 1379 795 q 1392 791 1388 795 q 1396 781 1396 787 q 1392 772 1396 776 q 1379 768 1388 768 l 1051 768 m 183 941 q 171 945 175 941 q 167 955 167 949 q 171 964 167 960 q 183 968 175 968 l 511 968 q 524 964 519 968 q 528 955 528 960 q 524 945 528 949 q 511 941 519 941 l 183 941 m 1051 941 q 1039 945 1043 941 q 1035 955 1035 949 q 1039 964 1035 960 q 1051 968 1043 968 l 1379 968 q 1392 964 1388 968 q 1396 955 1396 960 q 1392 945 1396 949 q 1379 941 1388 941 l 1051 941 m 183 1115 q 171 1119 175 1115 q 167 1128 167 1123 q 171 1138 167 1134 q 183 1142 175 1142 l 511 1142 q 524 1138 519 1142 q 528 1128 528 1134 q 524 1119 528 1123 q 511 1115 519 1115 l 183 1115 m 1051 1115 q 1039 1119 1043 1115 q 1035 1128 1035 1123 q 1039 1138 1035 1134 q 1051 1142 1043 1142 l 1379 1142 q 1392 1138 1388 1142 q 1396 1128 1396 1134 q 1392 1119 1396 1123 q 1379 1115 1388 1115 l 1051 1115 z "},"X":{"ha":1389,"x_min":167,"x_max":1222,"o":"m 183 73 q 171 77 175 73 q 167 87 167 81 q 171 96 167 92 q 183 100 175 100 l 511 100 q 524 96 519 100 q 528 87 528 92 q 524 77 528 81 q 511 73 519 73 l 183 73 m 878 73 q 865 77 869 73 q 861 87 861 81 q 865 96 861 92 q 878 100 869 100 l 1206 100 q 1218 96 1214 100 q 1222 87 1222 92 q 1218 77 1222 81 q 1206 73 1214 73 l 878 73 m 183 247 q 171 251 175 247 q 167 260 167 255 q 171 270 167 266 q 183 274 175 274 l 511 274 q 524 270 519 274 q 528 260 528 266 q 524 251 528 255 q 511 247 519 247 l 183 247 m 878 247 q 865 251 869 247 q 861 260 861 255 q 865 270 861 266 q 878 274 869 274 l 1206 274 q 1218 270 1214 274 q 1222 260 1222 266 q 1218 251 1222 255 q 1206 247 1214 247 l 878 247 m 357 420 q 345 425 349 420 q 340 434 340 429 q 345 444 340 439 q 357 448 349 448 l 1032 448 q 1044 444 1040 448 q 1048 434 1048 439 q 1044 425 1048 429 q 1032 420 1040 420 l 357 420 m 530 594 q 518 598 522 594 q 514 608 514 602 q 518 617 514 613 q 530 621 522 621 l 859 621 q 871 617 867 621 q 875 608 875 613 q 871 598 875 602 q 859 594 867 594 l 530 594 m 357 768 q 345 772 349 768 q 340 781 340 776 q 345 791 340 787 q 357 795 349 795 l 1032 795 q 1044 791 1040 795 q 1048 781 1048 787 q 1044 772 1048 776 q 1032 768 1040 768 l 357 768 m 183 941 q 171 945 175 941 q 167 955 167 949 q 171 964 167 960 q 183 968 175 968 l 511 968 q 524 964 519 968 q 528 955 528 960 q 524 945 528 949 q 511 941 519 941 l 183 941 m 878 941 q 865 945 869 941 q 861 955 861 949 q 865 964 861 960 q 878 968 869 968 l 1206 968 q 1218 964 1214 968 q 1222 955 1222 960 q 1218 945 1222 949 q 1206 941 1214 941 l 878 941 m 183 1115 q 171 1119 175 1115 q 167 1128 167 1123 q 171 1138 167 1134 q 183 1142 175 1142 l 511 1142 q 524 1138 519 1142 q 528 1128 528 1134 q 524 1119 528 1123 q 511 1115 519 1115 l 183 1115 m 878 1115 q 865 1119 869 1115 q 861 1128 861 1123 q 865 1138 861 1134 q 878 1142 869 1142 l 1206 1142 q 1218 1138 1214 1142 q 1222 1128 1222 1134 q 1218 1119 1222 1123 q 1206 1115 1214 1115 l 878 1115 z "},"Y":{"ha":1389,"x_min":167,"x_max":1222,"o":"m 530 73 q 518 77 522 73 q 514 87 514 81 q 518 96 514 92 q 530 100 522 100 l 859 100 q 871 96 867 100 q 875 87 875 92 q 871 77 875 81 q 859 73 867 73 l 530 73 m 530 247 q 518 251 522 247 q 514 260 514 255 q 518 270 514 266 q 530 274 522 274 l 859 274 q 871 270 867 274 q 875 260 875 266 q 871 251 875 255 q 859 247 867 247 l 530 247 m 530 420 q 518 425 522 420 q 514 434 514 429 q 518 444 514 439 q 530 448 522 448 l 859 448 q 871 444 867 448 q 875 434 875 439 q 871 425 875 429 q 859 420 867 420 l 530 420 m 357 594 q 345 598 349 594 q 340 608 340 602 q 345 617 340 613 q 357 621 349 621 l 1032 621 q 1044 617 1040 621 q 1048 608 1048 613 q 1044 598 1048 602 q 1032 594 1040 594 l 357 594 m 183 768 q 171 772 175 768 q 167 781 167 776 q 171 791 167 787 q 183 795 175 795 l 511 795 q 524 791 519 795 q 528 781 528 787 q 524 772 528 776 q 511 768 519 768 l 183 768 m 878 768 q 865 772 869 768 q 861 781 861 776 q 865 791 861 787 q 878 795 869 795 l 1206 795 q 1218 791 1214 795 q 1222 781 1222 787 q 1218 772 1222 776 q 1206 768 1214 768 l 878 768 m 183 941 q 171 945 175 941 q 167 955 167 949 q 171 964 167 960 q 183 968 175 968 l 511 968 q 524 964 519 968 q 528 955 528 960 q 524 945 528 949 q 511 941 519 941 l 183 941 m 878 941 q 865 945 869 941 q 861 955 861 949 q 865 964 861 960 q 878 968 869 968 l 1206 968 q 1218 964 1214 968 q 1222 955 1222 960 q 1218 945 1222 949 q 1206 941 1214 941 l 878 941 m 183 1115 q 171 1119 175 1115 q 167 1128 167 1123 q 171 1138 167 1134 q 183 1142 175 1142 l 511 1142 q 524 1138 519 1142 q 528 1128 528 1134 q 524 1119 528 1123 q 511 1115 519 1115 l 183 1115 m 878 1115 q 865 1119 869 1115 q 861 1128 861 1123 q 865 1138 861 1134 q 878 1142 869 1142 l 1206 1142 q 1218 1138 1214 1142 q 1222 1128 1222 1134 q 1218 1119 1222 1123 q 1206 1115 1214 1115 l 878 1115 z "},"Ý":{"ha":1389,"x_min":167,"x_max":1222,"o":"z "},"Z":{"ha":1389,"x_min":167,"x_max":1222,"o":"m 183 73 q 171 77 175 73 q 167 87 167 81 q 171 96 167 92 q 183 100 175 100 l 1206 100 q 1218 96 1214 100 q 1222 87 1222 92 q 1218 77 1222 81 q 1206 73 1214 73 l 183 73 m 183 247 q 171 251 175 247 q 167 260 167 255 q 171 270 167 266 q 183 274 175 274 l 511 274 q 524 270 519 274 q 528 260 528 266 q 524 251 528 255 q 511 247 519 247 l 183 247 m 357 420 q 345 425 349 420 q 340 434 340 429 q 345 444 340 439 q 357 448 349 448 l 685 448 q 697 444 693 448 q 701 434 701 439 q 697 425 701 429 q 685 420 693 420 l 357 420 m 530 594 q 518 598 522 594 q 514 608 514 602 q 518 617 514 613 q 530 621 522 621 l 859 621 q 871 617 867 621 q 875 608 875 613 q 871 598 875 602 q 859 594 867 594 l 530 594 m 704 768 q 692 772 696 768 q 688 781 688 776 q 692 791 688 787 q 704 795 696 795 l 1032 795 q 1044 791 1040 795 q 1048 781 1048 787 q 1044 772 1048 776 q 1032 768 1040 768 l 704 768 m 878 941 q 865 945 869 941 q 861 955 861 949 q 865 964 861 960 q 878 968 869 968 l 1206 968 q 1218 964 1214 968 q 1222 955 1222 960 q 1218 945 1222 949 q 1206 941 1214 941 l 878 941 m 183 1115 q 171 1119 175 1115 q 167 1128 167 1123 q 171 1138 167 1134 q 183 1142 175 1142 l 1206 1142 q 1218 1138 1214 1142 q 1222 1128 1222 1134 q 1218 1119 1222 1123 q 1206 1115 1214 1115 l 183 1115 z "},"a":{"ha":1389,"x_min":167,"x_max":1222,"o":"m 357 73 q 345 77 349 73 q 340 87 340 81 q 345 96 340 92 q 357 100 349 100 l 1206 100 q 1218 96 1214 100 q 1222 87 1222 92 q 1218 77 1222 81 q 1206 73 1214 73 l 357 73 m 183 247 q 171 251 175 247 q 167 260 167 255 q 171 270 167 266 q 183 274 175 274 l 511 274 q 524 270 519 274 q 528 260 528 266 q 524 251 528 255 q 511 247 519 247 l 183 247 m 878 247 q 865 251 869 247 q 861 260 861 255 q 865 270 861 266 q 878 274 869 274 l 1206 274 q 1218 270 1214 274 q 1222 260 1222 266 q 1218 251 1222 255 q 1206 247 1214 247 l 878 247 m 357 420 q 345 425 349 420 q 340 434 340 429 q 345 444 340 439 q 357 448 349 448 l 1206 448 q 1218 444 1214 448 q 1222 434 1222 439 q 1218 425 1222 429 q 1206 420 1214 420 l 357 420 m 878 594 q 865 598 869 594 q 861 608 861 602 q 865 617 861 613 q 878 621 869 621 l 1206 621 q 1218 617 1214 621 q 1222 608 1222 613 q 1218 598 1222 602 q 1206 594 1214 594 l 878 594 m 357 768 q 345 772 349 768 q 340 781 340 776 q 345 791 340 787 q 357 795 349 795 l 1032 795 q 1044 791 1040 795 q 1048 781 1048 787 q 1044 772 1048 776 q 1032 768 1040 768 l 357 768 z "},"á":{"ha":1389,"x_min":167,"x_max":1222,"o":"m 357 73 q 345 77 349 73 q 340 87 340 81 q 345 96 340 92 q 357 100 349 100 l 1206 100 q 1218 96 1214 100 q 1222 87 1222 92 q 1218 77 1222 81 q 1206 73 1214 73 l 357 73 m 183 247 q 171 251 175 247 q 167 260 167 255 q 171 270 167 266 q 183 274 175 274 l 511 274 q 524 270 519 274 q 528 260 528 266 q 524 251 528 255 q 511 247 519 247 l 183 247 m 878 247 q 865 251 869 247 q 861 260 861 255 q 865 270 861 266 q 878 274 869 274 l 1206 274 q 1218 270 1214 274 q 1222 260 1222 266 q 1218 251 1222 255 q 1206 247 1214 247 l 878 247 m 357 420 q 345 425 349 420 q 340 434 340 429 q 345 444 340 439 q 357 448 349 448 l 1206 448 q 1218 444 1214 448 q 1222 434 1222 439 q 1218 425 1222 429 q 1206 420 1214 420 l 357 420 m 878 594 q 865 598 869 594 q 861 608 861 602 q 865 617 861 613 q 878 621 869 621 l 1206 621 q 1218 617 1214 621 q 1222 608 1222 613 q 1218 598 1222 602 q 1206 594 1214 594 l 878 594 m 357 768 q 345 772 349 768 q 340 781 340 776 q 345 791 340 787 q 357 795 349 795 l 1032 795 q 1044 791 1040 795 q 1048 781 1048 787 q 1044 772 1048 776 q 1032 768 1040 768 l 357 768 z "},"â":{"ha":1389,"x_min":167,"x_max":1222,"o":"m 357 73 q 345 77 349 73 q 340 87 340 81 q 345 96 340 92 q 357 100 349 100 l 1206 100 q 1218 96 1214 100 q 1222 87 1222 92 q 1218 77 1222 81 q 1206 73 1214 73 l 357 73 m 183 247 q 171 251 175 247 q 167 260 167 255 q 171 270 167 266 q 183 274 175 274 l 511 274 q 524 270 519 274 q 528 260 528 266 q 524 251 528 255 q 511 247 519 247 l 183 247 m 878 247 q 865 251 869 247 q 861 260 861 255 q 865 270 861 266 q 878 274 869 274 l 1206 274 q 1218 270 1214 274 q 1222 260 1222 266 q 1218 251 1222 255 q 1206 247 1214 247 l 878 247 m 357 420 q 345 425 349 420 q 340 434 340 429 q 345 444 340 439 q 357 448 349 448 l 1206 448 q 1218 444 1214 448 q 1222 434 1222 439 q 1218 425 1222 429 q 1206 420 1214 420 l 357 420 m 878 594 q 865 598 869 594 q 861 608 861 602 q 865 617 861 613 q 878 621 869 621 l 1206 621 q 1218 617 1214 621 q 1222 608 1222 613 q 1218 598 1222 602 q 1206 594 1214 594 l 878 594 m 357 768 q 345 772 349 768 q 340 781 340 776 q 345 791 340 787 q 357 795 349 795 l 1032 795 q 1044 791 1040 795 q 1048 781 1048 787 q 1044 772 1048 776 q 1032 768 1040 768 l 357 768 z "},"ä":{"ha":1389,"x_min":167,"x_max":1222,"o":"m 357 73 q 345 77 349 73 q 340 87 340 81 q 345 96 340 92 q 357 100 349 100 l 1206 100 q 1218 96 1214 100 q 1222 87 1222 92 q 1218 77 1222 81 q 1206 73 1214 73 l 357 73 m 183 247 q 171 251 175 247 q 167 260 167 255 q 171 270 167 266 q 183 274 175 274 l 511 274 q 524 270 519 274 q 528 260 528 266 q 524 251 528 255 q 511 247 519 247 l 183 247 m 878 247 q 865 251 869 247 q 861 260 861 255 q 865 270 861 266 q 878 274 869 274 l 1206 274 q 1218 270 1214 274 q 1222 260 1222 266 q 1218 251 1222 255 q 1206 247 1214 247 l 878 247 m 357 420 q 345 425 349 420 q 340 434 340 429 q 345 444 340 439 q 357 448 349 448 l 1206 448 q 1218 444 1214 448 q 1222 434 1222 439 q 1218 425 1222 429 q 1206 420 1214 420 l 357 420 m 878 594 q 865 598 869 594 q 861 608 861 602 q 865 617 861 613 q 878 621 869 621 l 1206 621 q 1218 617 1214 621 q 1222 608 1222 613 q 1218 598 1222 602 q 1206 594 1214 594 l 878 594 m 357 768 q 345 772 349 768 q 340 781 340 776 q 345 791 340 787 q 357 795 349 795 l 1032 795 q 1044 791 1040 795 q 1048 781 1048 787 q 1044 772 1048 776 q 1032 768 1040 768 l 357 768 z "},"à":{"ha":1389,"x_min":167,"x_max":1222,"o":"m 357 73 q 345 77 349 73 q 340 87 340 81 q 345 96 340 92 q 357 100 349 100 l 1206 100 q 1218 96 1214 100 q 1222 87 1222 92 q 1218 77 1222 81 q 1206 73 1214 73 l 357 73 m 183 247 q 171 251 175 247 q 167 260 167 255 q 171 270 167 266 q 183 274 175 274 l 511 274 q 524 270 519 274 q 528 260 528 266 q 524 251 528 255 q 511 247 519 247 l 183 247 m 878 247 q 865 251 869 247 q 861 260 861 255 q 865 270 861 266 q 878 274 869 274 l 1206 274 q 1218 270 1214 274 q 1222 260 1222 266 q 1218 251 1222 255 q 1206 247 1214 247 l 878 247 m 357 420 q 345 425 349 420 q 340 434 340 429 q 345 444 340 439 q 357 448 349 448 l 1206 448 q 1218 444 1214 448 q 1222 434 1222 439 q 1218 425 1222 429 q 1206 420 1214 420 l 357 420 m 878 594 q 865 598 869 594 q 861 608 861 602 q 865 617 861 613 q 878 621 869 621 l 1206 621 q 1218 617 1214 621 q 1222 608 1222 613 q 1218 598 1222 602 q 1206 594 1214 594 l 878 594 m 357 768 q 345 772 349 768 q 340 781 340 776 q 345 791 340 787 q 357 795 349 795 l 1032 795 q 1044 791 1040 795 q 1048 781 1048 787 q 1044 772 1048 776 q 1032 768 1040 768 l 357 768 z "},"å":{"ha":1389,"x_min":167,"x_max":1222,"o":"m 357 73 q 345 77 349 73 q 340 87 340 81 q 345 96 340 92 q 357 100 349 100 l 1206 100 q 1218 96 1214 100 q 1222 87 1222 92 q 1218 77 1222 81 q 1206 73 1214 73 l 357 73 m 183 247 q 171 251 175 247 q 167 260 167 255 q 171 270 167 266 q 183 274 175 274 l 511 274 q 524 270 519 274 q 528 260 528 266 q 524 251 528 255 q 511 247 519 247 l 183 247 m 878 247 q 865 251 869 247 q 861 260 861 255 q 865 270 861 266 q 878 274 869 274 l 1206 274 q 1218 270 1214 274 q 1222 260 1222 266 q 1218 251 1222 255 q 1206 247 1214 247 l 878 247 m 183 420 q 171 425 175 420 q 167 434 167 429 q 171 444 167 439 q 183 448 175 448 l 511 448 q 524 444 519 448 q 528 434 528 439 q 524 425 528 429 q 511 420 519 420 l 183 420 m 878 420 q 865 425 869 420 q 861 434 861 429 q 865 444 861 439 q 878 448 869 448 l 1206 448 q 1218 444 1214 448 q 1222 434 1222 439 q 1218 425 1222 429 q 1206 420 1214 420 l 878 420 m 357 594 q 345 598 349 594 q 340 608 340 602 q 345 617 340 613 q 357 621 349 621 l 1206 621 q 1218 617 1214 621 q 1222 608 1222 613 q 1218 598 1222 602 q 1206 594 1214 594 l 357 594 m 357 768 q 345 772 349 768 q 340 781 340 776 q 345 791 340 787 q 357 795 349 795 l 1032 795 q 1044 791 1040 795 q 1048 781 1048 787 q 1044 772 1048 776 q 1032 768 1040 768 l 357 768 m 183 941 q 171 945 175 941 q 167 955 167 949 q 171 964 167 960 q 183 968 175 968 l 511 968 q 524 964 519 968 q 528 955 528 960 q 524 945 528 949 q 511 941 519 941 l 183 941 m 878 941 q 865 945 869 941 q 861 955 861 949 q 865 964 861 960 q 878 968 869 968 l 1206 968 q 1218 964 1214 968 q 1222 955 1222 960 q 1218 945 1222 949 q 1206 941 1214 941 l 878 941 m 357 1115 q 345 1119 349 1115 q 340 1128 340 1123 q 345 1138 340 1134 q 357 1142 349 1142 l 1032 1142 q 1044 1138 1040 1142 q 1048 1128 1048 1134 q 1044 1119 1048 1123 q 1032 1115 1040 1115 l 357 1115 z "},"ã":{"ha":1389,"x_min":167,"x_max":1396,"o":"m 357 73 q 345 77 349 73 q 340 87 340 81 q 345 96 340 92 q 357 100 349 100 l 1206 100 q 1218 96 1214 100 q 1222 87 1222 92 q 1218 77 1222 81 q 1206 73 1214 73 l 357 73 m 183 247 q 171 251 175 247 q 167 260 167 255 q 171 270 167 266 q 183 274 175 274 l 511 274 q 524 270 519 274 q 528 260 528 266 q 524 251 528 255 q 511 247 519 247 l 183 247 m 878 247 q 865 251 869 247 q 861 260 861 255 q 865 270 861 266 q 878 274 869 274 l 1206 274 q 1218 270 1214 274 q 1222 260 1222 266 q 1218 251 1222 255 q 1206 247 1214 247 l 878 247 m 357 420 q 345 425 349 420 q 340 434 340 429 q 345 444 340 439 q 357 448 349 448 l 1206 448 q 1218 444 1214 448 q 1222 434 1222 439 q 1218 425 1222 429 q 1206 420 1214 420 l 357 420 m 878 594 q 865 598 869 594 q 861 608 861 602 q 865 617 861 613 q 878 621 869 621 l 1206 621 q 1218 617 1214 621 q 1222 608 1222 613 q 1218 598 1222 602 q 1206 594 1214 594 l 878 594 m 357 768 q 345 772 349 768 q 340 781 340 776 q 345 791 340 787 q 357 795 349 795 l 1032 795 q 1044 791 1040 795 q 1048 781 1048 787 q 1044 772 1048 776 q 1032 768 1040 768 l 357 768 z "},"æ":{"ha":1389,"x_min":167,"x_max":1396,"o":"m 357 73 q 345 77 349 73 q 340 87 340 81 q 345 96 340 92 q 357 100 349 100 l 685 100 q 697 96 693 100 q 701 87 701 92 q 697 77 701 81 q 685 73 693 73 l 357 73 m 878 73 q 865 77 869 73 q 861 87 861 81 q 865 96 861 92 q 878 100 869 100 l 1379 100 q 1392 96 1388 100 q 1396 87 1396 92 q 1392 77 1396 81 q 1379 73 1388 73 l 878 73 m 183 247 q 171 251 175 247 q 167 260 167 255 q 171 270 167 266 q 183 274 175 274 l 511 274 q 524 270 519 274 q 528 260 528 266 q 524 251 528 255 q 511 247 519 247 l 183 247 m 704 247 q 692 251 696 247 q 688 260 688 255 q 692 270 688 266 q 704 274 696 274 l 1032 274 q 1044 270 1040 274 q 1048 260 1048 266 q 1044 251 1048 255 q 1032 247 1040 247 l 704 247 m 357 420 q 345 425 349 420 q 340 434 340 429 q 345 444 340 439 q 357 448 349 448 l 1379 448 q 1392 444 1388 448 q 1396 434 1396 439 q 1392 425 1396 429 q 1379 420 1388 420 l 357 420 m 704 594 q 692 598 696 594 q 688 608 688 602 q 692 617 688 613 q 704 621 696 621 l 1032 621 q 1044 617 1040 621 q 1048 608 1048 613 q 1044 598 1048 602 q 1032 594 1040 594 l 704 594 m 1225 594 q 1213 598 1217 594 q 1208 608 1208 602 q 1213 617 1208 613 q 1225 621 1217 621 l 1379 621 q 1392 617 1388 621 q 1396 608 1396 613 q 1392 598 1396 602 q 1379 594 1388 594 l 1225 594 m 357 768 q 345 772 349 768 q 340 781 340 776 q 345 791 340 787 q 357 795 349 795 l 1206 795 q 1218 791 1214 795 q 1222 781 1222 787 q 1218 772 1222 776 q 1206 768 1214 768 l 357 768 z "},"b":{"ha":1389,"x_min":167,"x_max":1222,"o":"m 183 73 q 171 77 175 73 q 167 87 167 81 q 171 96 167 92 q 183 100 175 100 l 1032 100 q 1044 96 1040 100 q 1048 87 1048 92 q 1044 77 1048 81 q 1032 73 1040 73 l 183 73 m 183 247 q 171 251 175 247 q 167 260 167 255 q 171 270 167 266 q 183 274 175 274 l 511 274 q 524 270 519 274 q 528 260 528 266 q 524 251 528 255 q 511 247 519 247 l 183 247 m 878 247 q 865 251 869 247 q 861 260 861 255 q 865 270 861 266 q 878 274 869 274 l 1206 274 q 1218 270 1214 274 q 1222 260 1222 266 q 1218 251 1222 255 q 1206 247 1214 247 l 878 247 m 183 420 q 171 425 175 420 q 167 434 167 429 q 171 444 167 439 q 183 448 175 448 l 511 448 q 524 444 519 448 q 528 434 528 439 q 524 425 528 429 q 511 420 519 420 l 183 420 m 878 420 q 865 425 869 420 q 861 434 861 429 q 865 444 861 439 q 878 448 869 448 l 1206 448 q 1218 444 1214 448 q 1222 434 1222 439 q 1218 425 1222 429 q 1206 420 1214 420 l 878 420 m 183 594 q 171 598 175 594 q 167 608 167 602 q 171 617 167 613 q 183 621 175 621 l 1032 621 q 1044 617 1040 621 q 1048 608 1048 613 q 1044 598 1048 602 q 1032 594 1040 594 l 183 594 m 183 768 q 171 772 175 768 q 167 781 167 776 q 171 791 167 787 q 183 795 175 795 l 511 795 q 524 791 519 795 q 528 781 528 787 q 524 772 528 776 q 511 768 519 768 l 183 768 m 183 941 q 171 945 175 941 q 167 955 167 949 q 171 964 167 960 q 183 968 175 968 l 511 968 q 524 964 519 968 q 528 955 528 960 q 524 945 528 949 q 511 941 519 941 l 183 941 z "},"c":{"ha":1389,"x_min":167,"x_max":1048,"o":"m 357 73 q 345 77 349 73 q 340 87 340 81 q 345 96 340 92 q 357 100 349 100 l 1032 100 q 1044 96 1040 100 q 1048 87 1048 92 q 1044 77 1048 81 q 1032 73 1040 73 l 357 73 m 183 247 q 171 251 175 247 q 167 260 167 255 q 171 270 167 266 q 183 274 175 274 l 511 274 q 524 270 519 274 q 528 260 528 266 q 524 251 528 255 q 511 247 519 247 l 183 247 m 183 420 q 171 425 175 420 q 167 434 167 429 q 171 444 167 439 q 183 448 175 448 l 511 448 q 524 444 519 448 q 528 434 528 439 q 524 425 528 429 q 511 420 519 420 l 183 420 m 183 594 q 171 598 175 594 q 167 608 167 602 q 171 617 167 613 q 183 621 175 621 l 511 621 q 524 617 519 621 q 528 608 528 613 q 524 598 528 602 q 511 594 519 594 l 183 594 m 357 768 q 345 772 349 768 q 340 781 340 776 q 345 791 340 787 q 357 795 349 795 l 1032 795 q 1044 791 1040 795 q 1048 781 1048 787 q 1044 772 1048 776 q 1032 768 1040 768 l 357 768 z "},"ç":{"ha":1389,"x_min":167,"x_max":1048,"o":"m 357 -100 q 345 -96 349 -100 q 340 -87 340 -92 q 345 -77 340 -81 q 357 -73 349 -73 l 685 -73 q 697 -77 693 -73 q 701 -87 701 -81 q 697 -96 701 -92 q 685 -100 693 -100 l 357 -100 m 530 73 q 518 77 522 73 q 514 87 514 81 q 518 96 514 92 q 530 100 522 100 l 859 100 q 871 96 867 100 q 875 87 875 92 q 871 77 875 81 q 859 73 867 73 l 530 73 m 357 247 q 345 251 349 247 q 340 260 340 255 q 345 270 340 266 q 357 274 349 274 l 1032 274 q 1044 270 1040 274 q 1048 260 1048 266 q 1044 251 1048 255 q 1032 247 1040 247 l 357 247 m 183 420 q 171 425 175 420 q 167 434 167 429 q 171 444 167 439 q 183 448 175 448 l 511 448 q 524 444 519 448 q 528 434 528 439 q 524 425 528 429 q 511 420 519 420 l 183 420 m 183 594 q 171 598 175 594 q 167 608 167 602 q 171 617 167 613 q 183 621 175 621 l 511 621 q 524 617 519 621 q 528 608 528 613 q 524 598 528 602 q 511 594 519 594 l 183 594 m 357 768 q 345 772 349 768 q 340 781 340 776 q 345 791 340 787 q 357 795 349 795 l 1032 795 q 1044 791 1040 795 q 1048 781 1048 787 q 1044 772 1048 776 q 1032 768 1040 768 l 357 768 z "},"d":{"ha":1389,"x_min":167,"x_max":1222,"o":"m 357 73 q 345 77 349 73 q 340 87 340 81 q 345 96 340 92 q 357 100 349 100 l 1206 100 q 1218 96 1214 100 q 1222 87 1222 92 q 1218 77 1222 81 q 1206 73 1214 73 l 357 73 m 183 247 q 171 251 175 247 q 167 260 167 255 q 171 270 167 266 q 183 274 175 274 l 511 274 q 524 270 519 274 q 528 260 528 266 q 524 251 528 255 q 511 247 519 247 l 183 247 m 878 247 q 865 251 869 247 q 861 260 861 255 q 865 270 861 266 q 878 274 869 274 l 1206 274 q 1218 270 1214 274 q 1222 260 1222 266 q 1218 251 1222 255 q 1206 247 1214 247 l 878 247 m 183 420 q 171 425 175 420 q 167 434 167 429 q 171 444 167 439 q 183 448 175 448 l 511 448 q 524 444 519 448 q 528 434 528 439 q 524 425 528 429 q 511 420 519 420 l 183 420 m 878 420 q 865 425 869 420 q 861 434 861 429 q 865 444 861 439 q 878 448 869 448 l 1206 448 q 1218 444 1214 448 q 1222 434 1222 439 q 1218 425 1222 429 q 1206 420 1214 420 l 878 420 m 357 594 q 345 598 349 594 q 340 608 340 602 q 345 617 340 613 q 357 621 349 621 l 1206 621 q 1218 617 1214 621 q 1222 608 1222 613 q 1218 598 1222 602 q 1206 594 1214 594 l 357 594 m 878 768 q 865 772 869 768 q 861 781 861 776 q 865 791 861 787 q 878 795 869 795 l 1206 795 q 1218 791 1214 795 q 1222 781 1222 787 q 1218 772 1222 776 q 1206 768 1214 768 l 878 768 m 878 941 q 865 945 869 941 q 861 955 861 949 q 865 964 861 960 q 878 968 869 968 l 1206 968 q 1218 964 1214 968 q 1222 955 1222 960 q 1218 945 1222 949 q 1206 941 1214 941 l 878 941 z "},"ð":{"ha":1389,"x_min":167,"x_max":1396,"o":"m 357 73 q 345 77 349 73 q 340 87 340 81 q 345 96 340 92 q 357 100 349 100 l 1032 100 q 1044 96 1040 100 q 1048 87 1048 92 q 1044 77 1048 81 q 1032 73 1040 73 l 357 73 m 183 247 q 171 251 175 247 q 167 260 167 255 q 171 270 167 266 q 183 274 175 274 l 511 274 q 524 270 519 274 q 528 260 528 266 q 524 251 528 255 q 511 247 519 247 l 183 247 m 878 247 q 865 251 869 247 q 861 260 861 255 q 865 270 861 266 q 878 274 869 274 l 1206 274 q 1218 270 1214 274 q 1222 260 1222 266 q 1218 251 1222 255 q 1206 247 1214 247 l 878 247 m 183 420 q 171 425 175 420 q 167 434 167 429 q 171 444 167 439 q 183 448 175 448 l 511 448 q 524 444 519 448 q 528 434 528 439 q 524 425 528 429 q 511 420 519 420 l 183 420 m 878 420 q 865 425 869 420 q 861 434 861 429 q 865 444 861 439 q 878 448 869 448 l 1206 448 q 1218 444 1214 448 q 1222 434 1222 439 q 1218 425 1222 429 q 1206 420 1214 420 l 878 420 m 357 594 q 345 598 349 594 q 340 608 340 602 q 345 617 340 613 q 357 621 349 621 l 1206 621 q 1218 617 1214 621 q 1222 608 1222 613 q 1218 598 1222 602 q 1206 594 1214 594 l 357 594 m 878 768 q 865 772 869 768 q 861 781 861 776 q 865 791 861 787 q 878 795 869 795 l 1206 795 q 1218 791 1214 795 q 1222 781 1222 787 q 1218 772 1222 776 q 1206 768 1214 768 l 878 768 m 704 941 q 692 945 696 941 q 688 955 688 949 q 692 964 688 960 q 704 968 696 968 l 1379 968 q 1392 964 1388 968 q 1396 955 1396 960 q 1392 945 1396 949 q 1379 941 1388 941 l 704 941 m 357 1115 q 345 1119 349 1115 q 340 1128 340 1123 q 345 1138 340 1134 q 357 1142 349 1142 l 1032 1142 q 1044 1138 1040 1142 q 1048 1128 1048 1134 q 1044 1119 1048 1123 q 1032 1115 1040 1115 l 357 1115 z "},"e":{"ha":1389,"x_min":167,"x_max":1222,"o":"m 357 73 q 345 77 349 73 q 340 87 340 81 q 345 96 340 92 q 357 100 349 100 l 1032 100 q 1044 96 1040 100 q 1048 87 1048 92 q 1044 77 1048 81 q 1032 73 1040 73 l 357 73 m 183 247 q 171 251 175 247 q 167 260 167 255 q 171 270 167 266 q 183 274 175 274 l 511 274 q 524 270 519 274 q 528 260 528 266 q 524 251 528 255 q 511 247 519 247 l 183 247 m 183 420 q 171 425 175 420 q 167 434 167 429 q 171 444 167 439 q 183 448 175 448 l 1206 448 q 1218 444 1214 448 q 1222 434 1222 439 q 1218 425 1222 429 q 1206 420 1214 420 l 183 420 m 183 594 q 171 598 175 594 q 167 608 167 602 q 171 617 167 613 q 183 621 175 621 l 511 621 q 524 617 519 621 q 528 608 528 613 q 524 598 528 602 q 511 594 519 594 l 183 594 m 878 594 q 865 598 869 594 q 861 608 861 602 q 865 617 861 613 q 878 621 869 621 l 1206 621 q 1218 617 1214 621 q 1222 608 1222 613 q 1218 598 1222 602 q 1206 594 1214 594 l 878 594 m 357 768 q 345 772 349 768 q 340 781 340 776 q 345 791 340 787 q 357 795 349 795 l 1032 795 q 1044 791 1040 795 q 1048 781 1048 787 q 1044 772 1048 776 q 1032 768 1040 768 l 357 768 z "},"é":{"ha":1389,"x_min":167,"x_max":1222,"o":"m 357 73 q 345 77 349 73 q 340 87 340 81 q 345 96 340 92 q 357 100 349 100 l 1032 100 q 1044 96 1040 100 q 1048 87 1048 92 q 1044 77 1048 81 q 1032 73 1040 73 l 357 73 m 183 247 q 171 251 175 247 q 167 260 167 255 q 171 270 167 266 q 183 274 175 274 l 511 274 q 524 270 519 274 q 528 260 528 266 q 524 251 528 255 q 511 247 519 247 l 183 247 m 183 420 q 171 425 175 420 q 167 434 167 429 q 171 444 167 439 q 183 448 175 448 l 1206 448 q 1218 444 1214 448 q 1222 434 1222 439 q 1218 425 1222 429 q 1206 420 1214 420 l 183 420 m 183 594 q 171 598 175 594 q 167 608 167 602 q 171 617 167 613 q 183 621 175 621 l 511 621 q 524 617 519 621 q 528 608 528 613 q 524 598 528 602 q 511 594 519 594 l 183 594 m 878 594 q 865 598 869 594 q 861 608 861 602 q 865 617 861 613 q 878 621 869 621 l 1206 621 q 1218 617 1214 621 q 1222 608 1222 613 q 1218 598 1222 602 q 1206 594 1214 594 l 878 594 m 357 768 q 345 772 349 768 q 340 781 340 776 q 345 791 340 787 q 357 795 349 795 l 1032 795 q 1044 791 1040 795 q 1048 781 1048 787 q 1044 772 1048 776 q 1032 768 1040 768 l 357 768 z "},"ê":{"ha":1389,"x_min":167,"x_max":1222,"o":"m 357 73 q 345 77 349 73 q 340 87 340 81 q 345 96 340 92 q 357 100 349 100 l 1032 100 q 1044 96 1040 100 q 1048 87 1048 92 q 1044 77 1048 81 q 1032 73 1040 73 l 357 73 m 183 247 q 171 251 175 247 q 167 260 167 255 q 171 270 167 266 q 183 274 175 274 l 511 274 q 524 270 519 274 q 528 260 528 266 q 524 251 528 255 q 511 247 519 247 l 183 247 m 183 420 q 171 425 175 420 q 167 434 167 429 q 171 444 167 439 q 183 448 175 448 l 1206 448 q 1218 444 1214 448 q 1222 434 1222 439 q 1218 425 1222 429 q 1206 420 1214 420 l 183 420 m 183 594 q 171 598 175 594 q 167 608 167 602 q 171 617 167 613 q 183 621 175 621 l 511 621 q 524 617 519 621 q 528 608 528 613 q 524 598 528 602 q 511 594 519 594 l 183 594 m 878 594 q 865 598 869 594 q 861 608 861 602 q 865 617 861 613 q 878 621 869 621 l 1206 621 q 1218 617 1214 621 q 1222 608 1222 613 q 1218 598 1222 602 q 1206 594 1214 594 l 878 594 m 357 768 q 345 772 349 768 q 340 781 340 776 q 345 791 340 787 q 357 795 349 795 l 1032 795 q 1044 791 1040 795 q 1048 781 1048 787 q 1044 772 1048 776 q 1032 768 1040 768 l 357 768 z "},"ë":{"ha":1389,"x_min":167,"x_max":1222,"o":"m 357 73 q 345 77 349 73 q 340 87 340 81 q 345 96 340 92 q 357 100 349 100 l 1032 100 q 1044 96 1040 100 q 1048 87 1048 92 q 1044 77 1048 81 q 1032 73 1040 73 l 357 73 m 183 247 q 171 251 175 247 q 167 260 167 255 q 171 270 167 266 q 183 274 175 274 l 511 274 q 524 270 519 274 q 528 260 528 266 q 524 251 528 255 q 511 247 519 247 l 183 247 m 183 420 q 171 425 175 420 q 167 434 167 429 q 171 444 167 439 q 183 448 175 448 l 1206 448 q 1218 444 1214 448 q 1222 434 1222 439 q 1218 425 1222 429 q 1206 420 1214 420 l 183 420 m 183 594 q 171 598 175 594 q 167 608 167 602 q 171 617 167 613 q 183 621 175 621 l 511 621 q 524 617 519 621 q 528 608 528 613 q 524 598 528 602 q 511 594 519 594 l 183 594 m 878 594 q 865 598 869 594 q 861 608 861 602 q 865 617 861 613 q 878 621 869 621 l 1206 621 q 1218 617 1214 621 q 1222 608 1222 613 q 1218 598 1222 602 q 1206 594 1214 594 l 878 594 m 357 768 q 345 772 349 768 q 340 781 340 776 q 345 791 340 787 q 357 795 349 795 l 1032 795 q 1044 791 1040 795 q 1048 781 1048 787 q 1044 772 1048 776 q 1032 768 1040 768 l 357 768 z "},"è":{"ha":1389,"x_min":167,"x_max":1222,"o":"m 357 73 q 345 77 349 73 q 340 87 340 81 q 345 96 340 92 q 357 100 349 100 l 1032 100 q 1044 96 1040 100 q 1048 87 1048 92 q 1044 77 1048 81 q 1032 73 1040 73 l 357 73 m 183 247 q 171 251 175 247 q 167 260 167 255 q 171 270 167 266 q 183 274 175 274 l 511 274 q 524 270 519 274 q 528 260 528 266 q 524 251 528 255 q 511 247 519 247 l 183 247 m 183 420 q 171 425 175 420 q 167 434 167 429 q 171 444 167 439 q 183 448 175 448 l 1206 448 q 1218 444 1214 448 q 1222 434 1222 439 q 1218 425 1222 429 q 1206 420 1214 420 l 183 420 m 183 594 q 171 598 175 594 q 167 608 167 602 q 171 617 167 613 q 183 621 175 621 l 511 621 q 524 617 519 621 q 528 608 528 613 q 524 598 528 602 q 511 594 519 594 l 183 594 m 878 594 q 865 598 869 594 q 861 608 861 602 q 865 617 861 613 q 878 621 869 621 l 1206 621 q 1218 617 1214 621 q 1222 608 1222 613 q 1218 598 1222 602 q 1206 594 1214 594 l 878 594 m 357 768 q 345 772 349 768 q 340 781 340 776 q 345 791 340 787 q 357 795 349 795 l 1032 795 q 1044 791 1040 795 q 1048 781 1048 787 q 1044 772 1048 776 q 1032 768 1040 768 l 357 768 z "},"f":{"ha":1389,"x_min":340,"x_max":1222,"o":"m 530 73 q 518 77 522 73 q 514 87 514 81 q 518 96 514 92 q 530 100 522 100 l 859 100 q 871 96 867 100 q 875 87 875 92 q 871 77 875 81 q 859 73 867 73 l 530 73 m 530 247 q 518 251 522 247 q 514 260 514 255 q 518 270 514 266 q 530 274 522 274 l 859 274 q 871 270 867 274 q 875 260 875 266 q 871 251 875 255 q 859 247 867 247 l 530 247 m 530 420 q 518 425 522 420 q 514 434 514 429 q 518 444 514 439 q 530 448 522 448 l 859 448 q 871 444 867 448 q 875 434 875 439 q 871 425 875 429 q 859 420 867 420 l 530 420 m 357 594 q 345 598 349 594 q 340 608 340 602 q 345 617 340 613 q 357 621 349 621 l 1206 621 q 1218 617 1214 621 q 1222 608 1222 613 q 1218 598 1222 602 q 1206 594 1214 594 l 357 594 m 530 768 q 518 772 522 768 q 514 781 514 776 q 518 791 514 787 q 530 795 522 795 l 859 795 q 871 791 867 795 q 875 781 875 787 q 871 772 875 776 q 859 768 867 768 l 530 768 m 704 941 q 692 945 696 941 q 688 955 688 949 q 692 964 688 960 q 704 968 696 968 l 1206 968 q 1218 964 1214 968 q 1222 955 1222 960 q 1218 945 1222 949 q 1206 941 1214 941 l 704 941 z "},"g":{"ha":1389,"x_min":167,"x_max":1222,"o":"m 183 -100 q 171 -96 175 -100 q 167 -87 167 -92 q 171 -77 167 -81 q 183 -73 175 -73 l 1032 -73 q 1044 -77 1040 -73 q 1048 -87 1048 -81 q 1044 -96 1048 -92 q 1032 -100 1040 -100 l 183 -100 m 878 73 q 865 77 869 73 q 861 87 861 81 q 865 96 861 92 q 878 100 869 100 l 1206 100 q 1218 96 1214 100 q 1222 87 1222 92 q 1218 77 1222 81 q 1206 73 1214 73 l 878 73 m 357 247 q 345 251 349 247 q 340 260 340 255 q 345 270 340 266 q 357 274 349 274 l 1206 274 q 1218 270 1214 274 q 1222 260 1222 266 q 1218 251 1222 255 q 1206 247 1214 247 l 357 247 m 183 420 q 171 425 175 420 q 167 434 167 429 q 171 444 167 439 q 183 448 175 448 l 511 448 q 524 444 519 448 q 528 434 528 439 q 524 425 528 429 q 511 420 519 420 l 183 420 m 878 420 q 865 425 869 420 q 861 434 861 429 q 865 444 861 439 q 878 448 869 448 l 1206 448 q 1218 444 1214 448 q 1222 434 1222 439 q 1218 425 1222 429 q 1206 420 1214 420 l 878 420 m 183 594 q 171 598 175 594 q 167 608 167 602 q 171 617 167 613 q 183 621 175 621 l 511 621 q 524 617 519 621 q 528 608 528 613 q 524 598 528 602 q 511 594 519 594 l 183 594 m 878 594 q 865 598 869 594 q 861 608 861 602 q 865 617 861 613 q 878 621 869 621 l 1206 621 q 1218 617 1214 621 q 1222 608 1222 613 q 1218 598 1222 602 q 1206 594 1214 594 l 878 594 m 357 768 q 345 772 349 768 q 340 781 340 776 q 345 791 340 787 q 357 795 349 795 l 1206 795 q 1218 791 1214 795 q 1222 781 1222 787 q 1218 772 1222 776 q 1206 768 1214 768 l 357 768 z "},"h":{"ha":1389,"x_min":167,"x_max":1222,"o":"m 183 73 q 171 77 175 73 q 167 87 167 81 q 171 96 167 92 q 183 100 175 100 l 511 100 q 524 96 519 100 q 528 87 528 92 q 524 77 528 81 q 511 73 519 73 l 183 73 m 878 73 q 865 77 869 73 q 861 87 861 81 q 865 96 861 92 q 878 100 869 100 l 1206 100 q 1218 96 1214 100 q 1222 87 1222 92 q 1218 77 1222 81 q 1206 73 1214 73 l 878 73 m 183 247 q 171 251 175 247 q 167 260 167 255 q 171 270 167 266 q 183 274 175 274 l 511 274 q 524 270 519 274 q 528 260 528 266 q 524 251 528 255 q 511 247 519 247 l 183 247 m 878 247 q 865 251 869 247 q 861 260 861 255 q 865 270 861 266 q 878 274 869 274 l 1206 274 q 1218 270 1214 274 q 1222 260 1222 266 q 1218 251 1222 255 q 1206 247 1214 247 l 878 247 m 183 420 q 171 425 175 420 q 167 434 167 429 q 171 444 167 439 q 183 448 175 448 l 511 448 q 524 444 519 448 q 528 434 528 439 q 524 425 528 429 q 511 420 519 420 l 183 420 m 878 420 q 865 425 869 420 q 861 434 861 429 q 865 444 861 439 q 878 448 869 448 l 1206 448 q 1218 444 1214 448 q 1222 434 1222 439 q 1218 425 1222 429 q 1206 420 1214 420 l 878 420 m 183 594 q 171 598 175 594 q 167 608 167 602 q 171 617 167 613 q 183 621 175 621 l 1032 621 q 1044 617 1040 621 q 1048 608 1048 613 q 1044 598 1048 602 q 1032 594 1040 594 l 183 594 m 183 768 q 171 772 175 768 q 167 781 167 776 q 171 791 167 787 q 183 795 175 795 l 511 795 q 524 791 519 795 q 528 781 528 787 q 524 772 528 776 q 511 768 519 768 l 183 768 m 183 941 q 171 945 175 941 q 167 955 167 949 q 171 964 167 960 q 183 968 175 968 l 511 968 q 524 964 519 968 q 528 955 528 960 q 524 945 528 949 q 511 941 519 941 l 183 941 z "},"i":{"ha":1389,"x_min":340,"x_max":1048,"o":"m 357 73 q 345 77 349 73 q 340 87 340 81 q 345 96 340 92 q 357 100 349 100 l 1032 100 q 1044 96 1040 100 q 1048 87 1048 92 q 1044 77 1048 81 q 1032 73 1040 73 l 357 73 m 530 247 q 518 251 522 247 q 514 260 514 255 q 518 270 514 266 q 530 274 522 274 l 859 274 q 871 270 867 274 q 875 260 875 266 q 871 251 875 255 q 859 247 867 247 l 530 247 m 530 420 q 518 425 522 420 q 514 434 514 429 q 518 444 514 439 q 530 448 522 448 l 859 448 q 871 444 867 448 q 875 434 875 439 q 871 425 875 429 q 859 420 867 420 l 530 420 m 357 594 q 345 598 349 594 q 340 608 340 602 q 345 617 340 613 q 357 621 349 621 l 859 621 q 871 617 867 621 q 875 608 875 613 q 871 598 875 602 q 859 594 867 594 l 357 594 m 530 941 q 518 945 522 941 q 514 955 514 949 q 518 964 514 960 q 530 968 522 968 l 859 968 q 871 964 867 968 q 875 955 875 960 q 871 945 875 949 q 859 941 867 941 l 530 941 z "},"ı":{"ha":1389,"x_min":340,"x_max":1048,"o":"m 357 73 q 345 77 349 73 q 340 87 340 81 q 345 96 340 92 q 357 100 349 100 l 1032 100 q 1044 96 1040 100 q 1048 87 1048 92 q 1044 77 1048 81 q 1032 73 1040 73 l 357 73 m 530 247 q 518 251 522 247 q 514 260 514 255 q 518 270 514 266 q 530 274 522 274 l 859 274 q 871 270 867 274 q 875 260 875 266 q 871 251 875 255 q 859 247 867 247 l 530 247 m 530 420 q 518 425 522 420 q 514 434 514 429 q 518 444 514 439 q 530 448 522 448 l 859 448 q 871 444 867 448 q 875 434 875 439 q 871 425 875 429 q 859 420 867 420 l 530 420 m 357 594 q 345 598 349 594 q 340 608 340 602 q 345 617 340 613 q 357 621 349 621 l 859 621 q 871 617 867 621 q 875 608 875 613 q 871 598 875 602 q 859 594 867 594 l 357 594 z "},"í":{"ha":1389,"x_min":340,"x_max":1048,"o":"m 357 73 q 345 77 349 73 q 340 87 340 81 q 345 96 340 92 q 357 100 349 100 l 1032 100 q 1044 96 1040 100 q 1048 87 1048 92 q 1044 77 1048 81 q 1032 73 1040 73 l 357 73 m 530 247 q 518 251 522 247 q 514 260 514 255 q 518 270 514 266 q 530 274 522 274 l 859 274 q 871 270 867 274 q 875 260 875 266 q 871 251 875 255 q 859 247 867 247 l 530 247 m 530 420 q 518 425 522 420 q 514 434 514 429 q 518 444 514 439 q 530 448 522 448 l 859 448 q 871 444 867 448 q 875 434 875 439 q 871 425 875 429 q 859 420 867 420 l 530 420 m 357 594 q 345 598 349 594 q 340 608 340 602 q 345 617 340 613 q 357 621 349 621 l 859 621 q 871 617 867 621 q 875 608 875 613 q 871 598 875 602 q 859 594 867 594 l 357 594 z "},"î":{"ha":1389,"x_min":167,"x_max":1222,"o":"m 357 73 q 345 77 349 73 q 340 87 340 81 q 345 96 340 92 q 357 100 349 100 l 1032 100 q 1044 96 1040 100 q 1048 87 1048 92 q 1044 77 1048 81 q 1032 73 1040 73 l 357 73 m 530 247 q 518 251 522 247 q 514 260 514 255 q 518 270 514 266 q 530 274 522 274 l 859 274 q 871 270 867 274 q 875 260 875 266 q 871 251 875 255 q 859 247 867 247 l 530 247 m 530 420 q 518 425 522 420 q 514 434 514 429 q 518 444 514 439 q 530 448 522 448 l 859 448 q 871 444 867 448 q 875 434 875 439 q 871 425 875 429 q 859 420 867 420 l 530 420 m 357 594 q 345 598 349 594 q 340 608 340 602 q 345 617 340 613 q 357 621 349 621 l 859 621 q 871 617 867 621 q 875 608 875 613 q 871 598 875 602 q 859 594 867 594 l 357 594 z "},"ï":{"ha":1389,"x_min":167,"x_max":1222,"o":"m 357 73 q 345 77 349 73 q 340 87 340 81 q 345 96 340 92 q 357 100 349 100 l 1032 100 q 1044 96 1040 100 q 1048 87 1048 92 q 1044 77 1048 81 q 1032 73 1040 73 l 357 73 m 530 247 q 518 251 522 247 q 514 260 514 255 q 518 270 514 266 q 530 274 522 274 l 859 274 q 871 270 867 274 q 875 260 875 266 q 871 251 875 255 q 859 247 867 247 l 530 247 m 530 420 q 518 425 522 420 q 514 434 514 429 q 518 444 514 439 q 530 448 522 448 l 859 448 q 871 444 867 448 q 875 434 875 439 q 871 425 875 429 q 859 420 867 420 l 530 420 m 357 594 q 345 598 349 594 q 340 608 340 602 q 345 617 340 613 q 357 621 349 621 l 859 621 q 871 617 867 621 q 875 608 875 613 q 871 598 875 602 q 859 594 867 594 l 357 594 z "},"ì":{"ha":1389,"x_min":340,"x_max":1048,"o":"m 357 73 q 345 77 349 73 q 340 87 340 81 q 345 96 340 92 q 357 100 349 100 l 1032 100 q 1044 96 1040 100 q 1048 87 1048 92 q 1044 77 1048 81 q 1032 73 1040 73 l 357 73 m 530 247 q 518 251 522 247 q 514 260 514 255 q 518 270 514 266 q 530 274 522 274 l 859 274 q 871 270 867 274 q 875 260 875 266 q 871 251 875 255 q 859 247 867 247 l 530 247 m 530 420 q 518 425 522 420 q 514 434 514 429 q 518 444 514 439 q 530 448 522 448 l 859 448 q 871 444 867 448 q 875 434 875 439 q 871 425 875 429 q 859 420 867 420 l 530 420 m 357 594 q 345 598 349 594 q 340 608 340 602 q 345 617 340 613 q 357 621 349 621 l 859 621 q 871 617 867 621 q 875 608 875 613 q 871 598 875 602 q 859 594 867 594 l 357 594 z "},"j":{"ha":1389,"x_min":340,"x_max":1222,"o":"m 357 -100 q 345 -96 349 -100 q 340 -87 340 -92 q 345 -77 340 -81 q 357 -73 349 -73 l 1032 -73 q 1044 -77 1040 -73 q 1048 -87 1048 -81 q 1044 -96 1048 -92 q 1032 -100 1040 -100 l 357 -100 m 878 73 q 865 77 869 73 q 861 87 861 81 q 865 96 861 92 q 878 100 869 100 l 1206 100 q 1218 96 1214 100 q 1222 87 1222 92 q 1218 77 1222 81 q 1206 73 1214 73 l 878 73 m 878 247 q 865 251 869 247 q 861 260 861 255 q 865 270 861 266 q 878 274 869 274 l 1206 274 q 1218 270 1214 274 q 1222 260 1222 266 q 1218 251 1222 255 q 1206 247 1214 247 l 878 247 m 878 420 q 865 425 869 420 q 861 434 861 429 q 865 444 861 439 q 878 448 869 448 l 1206 448 q 1218 444 1214 448 q 1222 434 1222 439 q 1218 425 1222 429 q 1206 420 1214 420 l 878 420 m 878 594 q 865 598 869 594 q 861 608 861 602 q 865 617 861 613 q 878 621 869 621 l 1206 621 q 1218 617 1214 621 q 1222 608 1222 613 q 1218 598 1222 602 q 1206 594 1214 594 l 878 594 m 878 941 q 865 945 869 941 q 861 955 861 949 q 865 964 861 960 q 878 968 869 968 l 1206 968 q 1218 964 1214 968 q 1222 955 1222 960 q 1218 945 1222 949 q 1206 941 1214 941 l 878 941 z "},"k":{"ha":1389,"x_min":167,"x_max":1222,"o":"m 183 73 q 171 77 175 73 q 167 87 167 81 q 171 96 167 92 q 183 100 175 100 l 511 100 q 524 96 519 100 q 528 87 528 92 q 524 77 528 81 q 511 73 519 73 l 183 73 m 878 73 q 865 77 869 73 q 861 87 861 81 q 865 96 861 92 q 878 100 869 100 l 1206 100 q 1218 96 1214 100 q 1222 87 1222 92 q 1218 77 1222 81 q 1206 73 1214 73 l 878 73 m 183 247 q 171 251 175 247 q 167 260 167 255 q 171 270 167 266 q 183 274 175 274 l 511 274 q 524 270 519 274 q 528 260 528 266 q 524 251 528 255 q 511 247 519 247 l 183 247 m 704 247 q 692 251 696 247 q 688 260 688 255 q 692 270 688 266 q 704 274 696 274 l 1032 274 q 1044 270 1040 274 q 1048 260 1048 266 q 1044 251 1048 255 q 1032 247 1040 247 l 704 247 m 183 420 q 171 425 175 420 q 167 434 167 429 q 171 444 167 439 q 183 448 175 448 l 859 448 q 871 444 867 448 q 875 434 875 439 q 871 425 875 429 q 859 420 867 420 l 183 420 m 183 594 q 171 598 175 594 q 167 608 167 602 q 171 617 167 613 q 183 621 175 621 l 511 621 q 524 617 519 621 q 528 608 528 613 q 524 598 528 602 q 511 594 519 594 l 183 594 m 704 594 q 692 598 696 594 q 688 608 688 602 q 692 617 688 613 q 704 621 696 621 l 1032 621 q 1044 617 1040 621 q 1048 608 1048 613 q 1044 598 1048 602 q 1032 594 1040 594 l 704 594 m 183 768 q 171 772 175 768 q 167 781 167 776 q 171 791 167 787 q 183 795 175 795 l 511 795 q 524 791 519 795 q 528 781 528 787 q 524 772 528 776 q 511 768 519 768 l 183 768 m 183 941 q 171 945 175 941 q 167 955 167 949 q 171 964 167 960 q 183 968 175 968 l 511 968 q 524 964 519 968 q 528 955 528 960 q 524 945 528 949 q 511 941 519 941 l 183 941 z "},"l":{"ha":1389,"x_min":340,"x_max":1048,"o":"m 357 73 q 345 77 349 73 q 340 87 340 81 q 345 96 340 92 q 357 100 349 100 l 1032 100 q 1044 96 1040 100 q 1048 87 1048 92 q 1044 77 1048 81 q 1032 73 1040 73 l 357 73 m 530 247 q 518 251 522 247 q 514 260 514 255 q 518 270 514 266 q 530 274 522 274 l 859 274 q 871 270 867 274 q 875 260 875 266 q 871 251 875 255 q 859 247 867 247 l 530 247 m 530 420 q 518 425 522 420 q 514 434 514 429 q 518 444 514 439 q 530 448 522 448 l 859 448 q 871 444 867 448 q 875 434 875 439 q 871 425 875 429 q 859 420 867 420 l 530 420 m 530 594 q 518 598 522 594 q 514 608 514 602 q 518 617 514 613 q 530 621 522 621 l 859 621 q 871 617 867 621 q 875 608 875 613 q 871 598 875 602 q 859 594 867 594 l 530 594 m 530 768 q 518 772 522 768 q 514 781 514 776 q 518 791 514 787 q 530 795 522 795 l 859 795 q 871 791 867 795 q 875 781 875 787 q 871 772 875 776 q 859 768 867 768 l 530 768 m 357 941 q 345 945 349 941 q 340 955 340 949 q 345 964 340 960 q 357 968 349 968 l 859 968 q 871 964 867 968 q 875 955 875 960 q 871 945 875 949 q 859 941 867 941 l 357 941 z "},"m":{"ha":1389,"x_min":167,"x_max":1396,"o":"m 183 73 q 171 77 175 73 q 167 87 167 81 q 171 96 167 92 q 183 100 175 100 l 511 100 q 524 96 519 100 q 528 87 528 92 q 524 77 528 81 q 511 73 519 73 l 183 73 m 1051 73 q 1039 77 1043 73 q 1035 87 1035 81 q 1039 96 1035 92 q 1051 100 1043 100 l 1379 100 q 1392 96 1388 100 q 1396 87 1396 92 q 1392 77 1396 81 q 1379 73 1388 73 l 1051 73 m 183 247 q 171 251 175 247 q 167 260 167 255 q 171 270 167 266 q 183 274 175 274 l 511 274 q 524 270 519 274 q 528 260 528 266 q 524 251 528 255 q 511 247 519 247 l 183 247 m 704 247 q 692 251 696 247 q 688 260 688 255 q 692 270 688 266 q 704 274 696 274 l 859 274 q 871 270 867 274 q 875 260 875 266 q 871 251 875 255 q 859 247 867 247 l 704 247 m 1051 247 q 1039 251 1043 247 q 1035 260 1035 255 q 1039 270 1035 266 q 1051 274 1043 274 l 1379 274 q 1392 270 1388 274 q 1396 260 1396 266 q 1392 251 1396 255 q 1379 247 1388 247 l 1051 247 m 183 420 q 171 425 175 420 q 167 434 167 429 q 171 444 167 439 q 183 448 175 448 l 1379 448 q 1392 444 1388 448 q 1396 434 1396 439 q 1392 425 1396 429 q 1379 420 1388 420 l 183 420 m 183 594 q 171 598 175 594 q 167 608 167 602 q 171 617 167 613 q 183 621 175 621 l 1379 621 q 1392 617 1388 621 q 1396 608 1396 613 q 1392 598 1396 602 q 1379 594 1388 594 l 183 594 m 183 768 q 171 772 175 768 q 167 781 167 776 q 171 791 167 787 q 183 795 175 795 l 511 795 q 524 791 519 795 q 528 781 528 787 q 524 772 528 776 q 511 768 519 768 l 183 768 m 878 768 q 865 772 869 768 q 861 781 861 776 q 865 791 861 787 q 878 795 869 795 l 1206 795 q 1218 791 1214 795 q 1222 781 1222 787 q 1218 772 1222 776 q 1206 768 1214 768 l 878 768 z "},"n":{"ha":1389,"x_min":167,"x_max":1222,"o":"m 183 73 q 171 77 175 73 q 167 87 167 81 q 171 96 167 92 q 183 100 175 100 l 511 100 q 524 96 519 100 q 528 87 528 92 q 524 77 528 81 q 511 73 519 73 l 183 73 m 878 73 q 865 77 869 73 q 861 87 861 81 q 865 96 861 92 q 878 100 869 100 l 1206 100 q 1218 96 1214 100 q 1222 87 1222 92 q 1218 77 1222 81 q 1206 73 1214 73 l 878 73 m 183 247 q 171 251 175 247 q 167 260 167 255 q 171 270 167 266 q 183 274 175 274 l 511 274 q 524 270 519 274 q 528 260 528 266 q 524 251 528 255 q 511 247 519 247 l 183 247 m 878 247 q 865 251 869 247 q 861 260 861 255 q 865 270 861 266 q 878 274 869 274 l 1206 274 q 1218 270 1214 274 q 1222 260 1222 266 q 1218 251 1222 255 q 1206 247 1214 247 l 878 247 m 183 420 q 171 425 175 420 q 167 434 167 429 q 171 444 167 439 q 183 448 175 448 l 511 448 q 524 444 519 448 q 528 434 528 439 q 524 425 528 429 q 511 420 519 420 l 183 420 m 878 420 q 865 425 869 420 q 861 434 861 429 q 865 444 861 439 q 878 448 869 448 l 1206 448 q 1218 444 1214 448 q 1222 434 1222 439 q 1218 425 1222 429 q 1206 420 1214 420 l 878 420 m 183 594 q 171 598 175 594 q 167 608 167 602 q 171 617 167 613 q 183 621 175 621 l 511 621 q 524 617 519 621 q 528 608 528 613 q 524 598 528 602 q 511 594 519 594 l 183 594 m 878 594 q 865 598 869 594 q 861 608 861 602 q 865 617 861 613 q 878 621 869 621 l 1206 621 q 1218 617 1214 621 q 1222 608 1222 613 q 1218 598 1222 602 q 1206 594 1214 594 l 878 594 m 183 768 q 171 772 175 768 q 167 781 167 776 q 171 791 167 787 q 183 795 175 795 l 1032 795 q 1044 791 1040 795 q 1048 781 1048 787 q 1044 772 1048 776 q 1032 768 1040 768 l 183 768 z "},"ñ":{"ha":1389,"x_min":167,"x_max":1396,"o":"m 183 73 q 171 77 175 73 q 167 87 167 81 q 171 96 167 92 q 183 100 175 100 l 511 100 q 524 96 519 100 q 528 87 528 92 q 524 77 528 81 q 511 73 519 73 l 183 73 m 878 73 q 865 77 869 73 q 861 87 861 81 q 865 96 861 92 q 878 100 869 100 l 1206 100 q 1218 96 1214 100 q 1222 87 1222 92 q 1218 77 1222 81 q 1206 73 1214 73 l 878 73 m 183 247 q 171 251 175 247 q 167 260 167 255 q 171 270 167 266 q 183 274 175 274 l 511 274 q 524 270 519 274 q 528 260 528 266 q 524 251 528 255 q 511 247 519 247 l 183 247 m 878 247 q 865 251 869 247 q 861 260 861 255 q 865 270 861 266 q 878 274 869 274 l 1206 274 q 1218 270 1214 274 q 1222 260 1222 266 q 1218 251 1222 255 q 1206 247 1214 247 l 878 247 m 183 420 q 171 425 175 420 q 167 434 167 429 q 171 444 167 439 q 183 448 175 448 l 511 448 q 524 444 519 448 q 528 434 528 439 q 524 425 528 429 q 511 420 519 420 l 183 420 m 878 420 q 865 425 869 420 q 861 434 861 429 q 865 444 861 439 q 878 448 869 448 l 1206 448 q 1218 444 1214 448 q 1222 434 1222 439 q 1218 425 1222 429 q 1206 420 1214 420 l 878 420 m 183 594 q 171 598 175 594 q 167 608 167 602 q 171 617 167 613 q 183 621 175 621 l 511 621 q 524 617 519 621 q 528 608 528 613 q 524 598 528 602 q 511 594 519 594 l 183 594 m 878 594 q 865 598 869 594 q 861 608 861 602 q 865 617 861 613 q 878 621 869 621 l 1206 621 q 1218 617 1214 621 q 1222 608 1222 613 q 1218 598 1222 602 q 1206 594 1214 594 l 878 594 m 183 768 q 171 772 175 768 q 167 781 167 776 q 171 791 167 787 q 183 795 175 795 l 1032 795 q 1044 791 1040 795 q 1048 781 1048 787 q 1044 772 1048 776 q 1032 768 1040 768 l 183 768 z "},"o":{"ha":1389,"x_min":167,"x_max":1222,"o":"m 357 73 q 345 77 349 73 q 340 87 340 81 q 345 96 340 92 q 357 100 349 100 l 1032 100 q 1044 96 1040 100 q 1048 87 1048 92 q 1044 77 1048 81 q 1032 73 1040 73 l 357 73 m 183 247 q 171 251 175 247 q 167 260 167 255 q 171 270 167 266 q 183 274 175 274 l 511 274 q 524 270 519 274 q 528 260 528 266 q 524 251 528 255 q 511 247 519 247 l 183 247 m 878 247 q 865 251 869 247 q 861 260 861 255 q 865 270 861 266 q 878 274 869 274 l 1206 274 q 1218 270 1214 274 q 1222 260 1222 266 q 1218 251 1222 255 q 1206 247 1214 247 l 878 247 m 183 420 q 171 425 175 420 q 167 434 167 429 q 171 444 167 439 q 183 448 175 448 l 511 448 q 524 444 519 448 q 528 434 528 439 q 524 425 528 429 q 511 420 519 420 l 183 420 m 878 420 q 865 425 869 420 q 861 434 861 429 q 865 444 861 439 q 878 448 869 448 l 1206 448 q 1218 444 1214 448 q 1222 434 1222 439 q 1218 425 1222 429 q 1206 420 1214 420 l 878 420 m 183 594 q 171 598 175 594 q 167 608 167 602 q 171 617 167 613 q 183 621 175 621 l 511 621 q 524 617 519 621 q 528 608 528 613 q 524 598 528 602 q 511 594 519 594 l 183 594 m 878 594 q 865 598 869 594 q 861 608 861 602 q 865 617 861 613 q 878 621 869 621 l 1206 621 q 1218 617 1214 621 q 1222 608 1222 613 q 1218 598 1222 602 q 1206 594 1214 594 l 878 594 m 357 768 q 345 772 349 768 q 340 781 340 776 q 345 791 340 787 q 357 795 349 795 l 1032 795 q 1044 791 1040 795 q 1048 781 1048 787 q 1044 772 1048 776 q 1032 768 1040 768 l 357 768 z "},"ó":{"ha":1389,"x_min":167,"x_max":1222,"o":"m 357 73 q 345 77 349 73 q 340 87 340 81 q 345 96 340 92 q 357 100 349 100 l 1032 100 q 1044 96 1040 100 q 1048 87 1048 92 q 1044 77 1048 81 q 1032 73 1040 73 l 357 73 m 183 247 q 171 251 175 247 q 167 260 167 255 q 171 270 167 266 q 183 274 175 274 l 511 274 q 524 270 519 274 q 528 260 528 266 q 524 251 528 255 q 511 247 519 247 l 183 247 m 878 247 q 865 251 869 247 q 861 260 861 255 q 865 270 861 266 q 878 274 869 274 l 1206 274 q 1218 270 1214 274 q 1222 260 1222 266 q 1218 251 1222 255 q 1206 247 1214 247 l 878 247 m 183 420 q 171 425 175 420 q 167 434 167 429 q 171 444 167 439 q 183 448 175 448 l 511 448 q 524 444 519 448 q 528 434 528 439 q 524 425 528 429 q 511 420 519 420 l 183 420 m 878 420 q 865 425 869 420 q 861 434 861 429 q 865 444 861 439 q 878 448 869 448 l 1206 448 q 1218 444 1214 448 q 1222 434 1222 439 q 1218 425 1222 429 q 1206 420 1214 420 l 878 420 m 183 594 q 171 598 175 594 q 167 608 167 602 q 171 617 167 613 q 183 621 175 621 l 511 621 q 524 617 519 621 q 528 608 528 613 q 524 598 528 602 q 511 594 519 594 l 183 594 m 878 594 q 865 598 869 594 q 861 608 861 602 q 865 617 861 613 q 878 621 869 621 l 1206 621 q 1218 617 1214 621 q 1222 608 1222 613 q 1218 598 1222 602 q 1206 594 1214 594 l 878 594 m 357 768 q 345 772 349 768 q 340 781 340 776 q 345 791 340 787 q 357 795 349 795 l 1032 795 q 1044 791 1040 795 q 1048 781 1048 787 q 1044 772 1048 776 q 1032 768 1040 768 l 357 768 z "},"ô":{"ha":1389,"x_min":167,"x_max":1222,"o":"m 357 73 q 345 77 349 73 q 340 87 340 81 q 345 96 340 92 q 357 100 349 100 l 1032 100 q 1044 96 1040 100 q 1048 87 1048 92 q 1044 77 1048 81 q 1032 73 1040 73 l 357 73 m 183 247 q 171 251 175 247 q 167 260 167 255 q 171 270 167 266 q 183 274 175 274 l 511 274 q 524 270 519 274 q 528 260 528 266 q 524 251 528 255 q 511 247 519 247 l 183 247 m 878 247 q 865 251 869 247 q 861 260 861 255 q 865 270 861 266 q 878 274 869 274 l 1206 274 q 1218 270 1214 274 q 1222 260 1222 266 q 1218 251 1222 255 q 1206 247 1214 247 l 878 247 m 183 420 q 171 425 175 420 q 167 434 167 429 q 171 444 167 439 q 183 448 175 448 l 511 448 q 524 444 519 448 q 528 434 528 439 q 524 425 528 429 q 511 420 519 420 l 183 420 m 878 420 q 865 425 869 420 q 861 434 861 429 q 865 444 861 439 q 878 448 869 448 l 1206 448 q 1218 444 1214 448 q 1222 434 1222 439 q 1218 425 1222 429 q 1206 420 1214 420 l 878 420 m 183 594 q 171 598 175 594 q 167 608 167 602 q 171 617 167 613 q 183 621 175 621 l 511 621 q 524 617 519 621 q 528 608 528 613 q 524 598 528 602 q 511 594 519 594 l 183 594 m 878 594 q 865 598 869 594 q 861 608 861 602 q 865 617 861 613 q 878 621 869 621 l 1206 621 q 1218 617 1214 621 q 1222 608 1222 613 q 1218 598 1222 602 q 1206 594 1214 594 l 878 594 m 357 768 q 345 772 349 768 q 340 781 340 776 q 345 791 340 787 q 357 795 349 795 l 1032 795 q 1044 791 1040 795 q 1048 781 1048 787 q 1044 772 1048 776 q 1032 768 1040 768 l 357 768 z "},"ö":{"ha":1389,"x_min":167,"x_max":1222,"o":"m 357 73 q 345 77 349 73 q 340 87 340 81 q 345 96 340 92 q 357 100 349 100 l 1032 100 q 1044 96 1040 100 q 1048 87 1048 92 q 1044 77 1048 81 q 1032 73 1040 73 l 357 73 m 183 247 q 171 251 175 247 q 167 260 167 255 q 171 270 167 266 q 183 274 175 274 l 511 274 q 524 270 519 274 q 528 260 528 266 q 524 251 528 255 q 511 247 519 247 l 183 247 m 878 247 q 865 251 869 247 q 861 260 861 255 q 865 270 861 266 q 878 274 869 274 l 1206 274 q 1218 270 1214 274 q 1222 260 1222 266 q 1218 251 1222 255 q 1206 247 1214 247 l 878 247 m 183 420 q 171 425 175 420 q 167 434 167 429 q 171 444 167 439 q 183 448 175 448 l 511 448 q 524 444 519 448 q 528 434 528 439 q 524 425 528 429 q 511 420 519 420 l 183 420 m 878 420 q 865 425 869 420 q 861 434 861 429 q 865 444 861 439 q 878 448 869 448 l 1206 448 q 1218 444 1214 448 q 1222 434 1222 439 q 1218 425 1222 429 q 1206 420 1214 420 l 878 420 m 183 594 q 171 598 175 594 q 167 608 167 602 q 171 617 167 613 q 183 621 175 621 l 511 621 q 524 617 519 621 q 528 608 528 613 q 524 598 528 602 q 511 594 519 594 l 183 594 m 878 594 q 865 598 869 594 q 861 608 861 602 q 865 617 861 613 q 878 621 869 621 l 1206 621 q 1218 617 1214 621 q 1222 608 1222 613 q 1218 598 1222 602 q 1206 594 1214 594 l 878 594 m 357 768 q 345 772 349 768 q 340 781 340 776 q 345 791 340 787 q 357 795 349 795 l 1032 795 q 1044 791 1040 795 q 1048 781 1048 787 q 1044 772 1048 776 q 1032 768 1040 768 l 357 768 z "},"ò":{"ha":1389,"x_min":167,"x_max":1222,"o":"m 357 73 q 345 77 349 73 q 340 87 340 81 q 345 96 340 92 q 357 100 349 100 l 1032 100 q 1044 96 1040 100 q 1048 87 1048 92 q 1044 77 1048 81 q 1032 73 1040 73 l 357 73 m 183 247 q 171 251 175 247 q 167 260 167 255 q 171 270 167 266 q 183 274 175 274 l 511 274 q 524 270 519 274 q 528 260 528 266 q 524 251 528 255 q 511 247 519 247 l 183 247 m 878 247 q 865 251 869 247 q 861 260 861 255 q 865 270 861 266 q 878 274 869 274 l 1206 274 q 1218 270 1214 274 q 1222 260 1222 266 q 1218 251 1222 255 q 1206 247 1214 247 l 878 247 m 183 420 q 171 425 175 420 q 167 434 167 429 q 171 444 167 439 q 183 448 175 448 l 511 448 q 524 444 519 448 q 528 434 528 439 q 524 425 528 429 q 511 420 519 420 l 183 420 m 878 420 q 865 425 869 420 q 861 434 861 429 q 865 444 861 439 q 878 448 869 448 l 1206 448 q 1218 444 1214 448 q 1222 434 1222 439 q 1218 425 1222 429 q 1206 420 1214 420 l 878 420 m 183 594 q 171 598 175 594 q 167 608 167 602 q 171 617 167 613 q 183 621 175 621 l 511 621 q 524 617 519 621 q 528 608 528 613 q 524 598 528 602 q 511 594 519 594 l 183 594 m 878 594 q 865 598 869 594 q 861 608 861 602 q 865 617 861 613 q 878 621 869 621 l 1206 621 q 1218 617 1214 621 q 1222 608 1222 613 q 1218 598 1222 602 q 1206 594 1214 594 l 878 594 m 357 768 q 345 772 349 768 q 340 781 340 776 q 345 791 340 787 q 357 795 349 795 l 1032 795 q 1044 791 1040 795 q 1048 781 1048 787 q 1044 772 1048 776 q 1032 768 1040 768 l 357 768 z "},"ø":{"ha":1389,"x_min":167,"x_max":1222,"o":"m 183 -100 q 171 -96 175 -100 q 167 -87 167 -92 q 171 -77 167 -81 q 183 -73 175 -73 l 511 -73 q 524 -77 519 -73 q 528 -87 528 -81 q 524 -96 528 -92 q 511 -100 519 -100 l 183 -100 m 357 73 q 345 77 349 73 q 340 87 340 81 q 345 96 340 92 q 357 100 349 100 l 1032 100 q 1044 96 1040 100 q 1048 87 1048 92 q 1044 77 1048 81 q 1032 73 1040 73 l 357 73 m 183 247 q 171 251 175 247 q 167 260 167 255 q 171 270 167 266 q 183 274 175 274 l 511 274 q 524 270 519 274 q 528 260 528 266 q 524 251 528 255 q 511 247 519 247 l 183 247 m 878 247 q 865 251 869 247 q 861 260 861 255 q 865 270 861 266 q 878 274 869 274 l 1206 274 q 1218 270 1214 274 q 1222 260 1222 266 q 1218 251 1222 255 q 1206 247 1214 247 l 878 247 m 183 420 q 171 425 175 420 q 167 434 167 429 q 171 444 167 439 q 183 448 175 448 l 511 448 q 524 444 519 448 q 528 434 528 439 q 524 425 528 429 q 511 420 519 420 l 183 420 m 878 420 q 865 425 869 420 q 861 434 861 429 q 865 444 861 439 q 878 448 869 448 l 1206 448 q 1218 444 1214 448 q 1222 434 1222 439 q 1218 425 1222 429 q 1206 420 1214 420 l 878 420 m 183 594 q 171 598 175 594 q 167 608 167 602 q 171 617 167 613 q 183 621 175 621 l 511 621 q 524 617 519 621 q 528 608 528 613 q 524 598 528 602 q 511 594 519 594 l 183 594 m 878 594 q 865 598 869 594 q 861 608 861 602 q 865 617 861 613 q 878 621 869 621 l 1206 621 q 1218 617 1214 621 q 1222 608 1222 613 q 1218 598 1222 602 q 1206 594 1214 594 l 878 594 m 357 768 q 345 772 349 768 q 340 781 340 776 q 345 791 340 787 q 357 795 349 795 l 1032 795 q 1044 791 1040 795 q 1048 781 1048 787 q 1044 772 1048 776 q 1032 768 1040 768 l 357 768 m 878 941 q 865 945 869 941 q 861 955 861 949 q 865 964 861 960 q 878 968 869 968 l 1206 968 q 1218 964 1214 968 q 1222 955 1222 960 q 1218 945 1222 949 q 1206 941 1214 941 l 878 941 z "},"õ":{"ha":1389,"x_min":167,"x_max":1396,"o":"m 357 73 q 345 77 349 73 q 340 87 340 81 q 345 96 340 92 q 357 100 349 100 l 1032 100 q 1044 96 1040 100 q 1048 87 1048 92 q 1044 77 1048 81 q 1032 73 1040 73 l 357 73 m 183 247 q 171 251 175 247 q 167 260 167 255 q 171 270 167 266 q 183 274 175 274 l 511 274 q 524 270 519 274 q 528 260 528 266 q 524 251 528 255 q 511 247 519 247 l 183 247 m 878 247 q 865 251 869 247 q 861 260 861 255 q 865 270 861 266 q 878 274 869 274 l 1206 274 q 1218 270 1214 274 q 1222 260 1222 266 q 1218 251 1222 255 q 1206 247 1214 247 l 878 247 m 183 420 q 171 425 175 420 q 167 434 167 429 q 171 444 167 439 q 183 448 175 448 l 511 448 q 524 444 519 448 q 528 434 528 439 q 524 425 528 429 q 511 420 519 420 l 183 420 m 878 420 q 865 425 869 420 q 861 434 861 429 q 865 444 861 439 q 878 448 869 448 l 1206 448 q 1218 444 1214 448 q 1222 434 1222 439 q 1218 425 1222 429 q 1206 420 1214 420 l 878 420 m 183 594 q 171 598 175 594 q 167 608 167 602 q 171 617 167 613 q 183 621 175 621 l 511 621 q 524 617 519 621 q 528 608 528 613 q 524 598 528 602 q 511 594 519 594 l 183 594 m 878 594 q 865 598 869 594 q 861 608 861 602 q 865 617 861 613 q 878 621 869 621 l 1206 621 q 1218 617 1214 621 q 1222 608 1222 613 q 1218 598 1222 602 q 1206 594 1214 594 l 878 594 m 357 768 q 345 772 349 768 q 340 781 340 776 q 345 791 340 787 q 357 795 349 795 l 1032 795 q 1044 791 1040 795 q 1048 781 1048 787 q 1044 772 1048 776 q 1032 768 1040 768 l 357 768 z "},"œ":{"ha":1389,"x_min":167,"x_max":1396,"o":"m 357 73 q 345 77 349 73 q 340 87 340 81 q 345 96 340 92 q 357 100 349 100 l 1379 100 q 1392 96 1388 100 q 1396 87 1396 92 q 1392 77 1396 81 q 1379 73 1388 73 l 357 73 m 183 247 q 171 251 175 247 q 167 260 167 255 q 171 270 167 266 q 183 274 175 274 l 511 274 q 524 270 519 274 q 528 260 528 266 q 524 251 528 255 q 511 247 519 247 l 183 247 m 704 247 q 692 251 696 247 q 688 260 688 255 q 692 270 688 266 q 704 274 696 274 l 1032 274 q 1044 270 1040 274 q 1048 260 1048 266 q 1044 251 1048 255 q 1032 247 1040 247 l 704 247 m 183 420 q 171 425 175 420 q 167 434 167 429 q 171 444 167 439 q 183 448 175 448 l 511 448 q 524 444 519 448 q 528 434 528 439 q 524 425 528 429 q 511 420 519 420 l 183 420 m 704 420 q 692 425 696 420 q 688 434 688 429 q 692 444 688 439 q 704 448 696 448 l 1379 448 q 1392 444 1388 448 q 1396 434 1396 439 q 1392 425 1396 429 q 1379 420 1388 420 l 704 420 m 183 594 q 171 598 175 594 q 167 608 167 602 q 171 617 167 613 q 183 621 175 621 l 511 621 q 524 617 519 621 q 528 608 528 613 q 524 598 528 602 q 511 594 519 594 l 183 594 m 704 594 q 692 598 696 594 q 688 608 688 602 q 692 617 688 613 q 704 621 696 621 l 1032 621 q 1044 617 1040 621 q 1048 608 1048 613 q 1044 598 1048 602 q 1032 594 1040 594 l 704 594 m 1225 594 q 1213 598 1217 594 q 1208 608 1208 602 q 1213 617 1208 613 q 1225 621 1217 621 l 1379 621 q 1392 617 1388 621 q 1396 608 1396 613 q 1392 598 1396 602 q 1379 594 1388 594 l 1225 594 m 357 768 q 345 772 349 768 q 340 781 340 776 q 345 791 340 787 q 357 795 349 795 l 1206 795 q 1218 791 1214 795 q 1222 781 1222 787 q 1218 772 1222 776 q 1206 768 1214 768 l 357 768 z "},"p":{"ha":1389,"x_min":167,"x_max":1222,"o":"m 183 -100 q 171 -96 175 -100 q 167 -87 167 -92 q 171 -77 167 -81 q 183 -73 175 -73 l 511 -73 q 524 -77 519 -73 q 528 -87 528 -81 q 524 -96 528 -92 q 511 -100 519 -100 l 183 -100 m 183 73 q 171 77 175 73 q 167 87 167 81 q 171 96 167 92 q 183 100 175 100 l 511 100 q 524 96 519 100 q 528 87 528 92 q 524 77 528 81 q 511 73 519 73 l 183 73 m 183 247 q 171 251 175 247 q 167 260 167 255 q 171 270 167 266 q 183 274 175 274 l 1032 274 q 1044 270 1040 274 q 1048 260 1048 266 q 1044 251 1048 255 q 1032 247 1040 247 l 183 247 m 183 420 q 171 425 175 420 q 167 434 167 429 q 171 444 167 439 q 183 448 175 448 l 511 448 q 524 444 519 448 q 528 434 528 439 q 524 425 528 429 q 511 420 519 420 l 183 420 m 878 420 q 865 425 869 420 q 861 434 861 429 q 865 444 861 439 q 878 448 869 448 l 1206 448 q 1218 444 1214 448 q 1222 434 1222 439 q 1218 425 1222 429 q 1206 420 1214 420 l 878 420 m 183 594 q 171 598 175 594 q 167 608 167 602 q 171 617 167 613 q 183 621 175 621 l 511 621 q 524 617 519 621 q 528 608 528 613 q 524 598 528 602 q 511 594 519 594 l 183 594 m 878 594 q 865 598 869 594 q 861 608 861 602 q 865 617 861 613 q 878 621 869 621 l 1206 621 q 1218 617 1214 621 q 1222 608 1222 613 q 1218 598 1222 602 q 1206 594 1214 594 l 878 594 m 183 768 q 171 772 175 768 q 167 781 167 776 q 171 791 167 787 q 183 795 175 795 l 1032 795 q 1044 791 1040 795 q 1048 781 1048 787 q 1044 772 1048 776 q 1032 768 1040 768 l 183 768 z "},"þ":{"ha":1389,"x_min":167,"x_max":1222,"o":"m 183 -100 q 171 -96 175 -100 q 167 -87 167 -92 q 171 -77 167 -81 q 183 -73 175 -73 l 511 -73 q 524 -77 519 -73 q 528 -87 528 -81 q 524 -96 528 -92 q 511 -100 519 -100 l 183 -100 m 183 73 q 171 77 175 73 q 167 87 167 81 q 171 96 167 92 q 183 100 175 100 l 511 100 q 524 96 519 100 q 528 87 528 92 q 524 77 528 81 q 511 73 519 73 l 183 73 m 183 247 q 171 251 175 247 q 167 260 167 255 q 171 270 167 266 q 183 274 175 274 l 1032 274 q 1044 270 1040 274 q 1048 260 1048 266 q 1044 251 1048 255 q 1032 247 1040 247 l 183 247 m 183 420 q 171 425 175 420 q 167 434 167 429 q 171 444 167 439 q 183 448 175 448 l 511 448 q 524 444 519 448 q 528 434 528 439 q 524 425 528 429 q 511 420 519 420 l 183 420 m 878 420 q 865 425 869 420 q 861 434 861 429 q 865 444 861 439 q 878 448 869 448 l 1206 448 q 1218 444 1214 448 q 1222 434 1222 439 q 1218 425 1222 429 q 1206 420 1214 420 l 878 420 m 183 594 q 171 598 175 594 q 167 608 167 602 q 171 617 167 613 q 183 621 175 621 l 511 621 q 524 617 519 621 q 528 608 528 613 q 524 598 528 602 q 511 594 519 594 l 183 594 m 878 594 q 865 598 869 594 q 861 608 861 602 q 865 617 861 613 q 878 621 869 621 l 1206 621 q 1218 617 1214 621 q 1222 608 1222 613 q 1218 598 1222 602 q 1206 594 1214 594 l 878 594 m 183 768 q 171 772 175 768 q 167 781 167 776 q 171 791 167 787 q 183 795 175 795 l 1032 795 q 1044 791 1040 795 q 1048 781 1048 787 q 1044 772 1048 776 q 1032 768 1040 768 l 183 768 m 183 941 q 171 945 175 941 q 167 955 167 949 q 171 964 167 960 q 183 968 175 968 l 511 968 q 524 964 519 968 q 528 955 528 960 q 524 945 528 949 q 511 941 519 941 l 183 941 z "},"q":{"ha":1389,"x_min":167,"x_max":1222,"o":"m 878 -100 q 865 -96 869 -100 q 861 -87 861 -92 q 865 -77 861 -81 q 878 -73 869 -73 l 1206 -73 q 1218 -77 1214 -73 q 1222 -87 1222 -81 q 1218 -96 1222 -92 q 1206 -100 1214 -100 l 878 -100 m 878 73 q 865 77 869 73 q 861 87 861 81 q 865 96 861 92 q 878 100 869 100 l 1206 100 q 1218 96 1214 100 q 1222 87 1222 92 q 1218 77 1222 81 q 1206 73 1214 73 l 878 73 m 357 247 q 345 251 349 247 q 340 260 340 255 q 345 270 340 266 q 357 274 349 274 l 1206 274 q 1218 270 1214 274 q 1222 260 1222 266 q 1218 251 1222 255 q 1206 247 1214 247 l 357 247 m 183 420 q 171 425 175 420 q 167 434 167 429 q 171 444 167 439 q 183 448 175 448 l 511 448 q 524 444 519 448 q 528 434 528 439 q 524 425 528 429 q 511 420 519 420 l 183 420 m 878 420 q 865 425 869 420 q 861 434 861 429 q 865 444 861 439 q 878 448 869 448 l 1206 448 q 1218 444 1214 448 q 1222 434 1222 439 q 1218 425 1222 429 q 1206 420 1214 420 l 878 420 m 183 594 q 171 598 175 594 q 167 608 167 602 q 171 617 167 613 q 183 621 175 621 l 511 621 q 524 617 519 621 q 528 608 528 613 q 524 598 528 602 q 511 594 519 594 l 183 594 m 878 594 q 865 598 869 594 q 861 608 861 602 q 865 617 861 613 q 878 621 869 621 l 1206 621 q 1218 617 1214 621 q 1222 608 1222 613 q 1218 598 1222 602 q 1206 594 1214 594 l 878 594 m 357 768 q 345 772 349 768 q 340 781 340 776 q 345 791 340 787 q 357 795 349 795 l 1206 795 q 1218 791 1214 795 q 1222 781 1222 787 q 1218 772 1222 776 q 1206 768 1214 768 l 357 768 z "},"r":{"ha":1389,"x_min":167,"x_max":1222,"o":"m 183 73 q 171 77 175 73 q 167 87 167 81 q 171 96 167 92 q 183 100 175 100 l 511 100 q 524 96 519 100 q 528 87 528 92 q 524 77 528 81 q 511 73 519 73 l 183 73 m 183 247 q 171 251 175 247 q 167 260 167 255 q 171 270 167 266 q 183 274 175 274 l 511 274 q 524 270 519 274 q 528 260 528 266 q 524 251 528 255 q 511 247 519 247 l 183 247 m 183 420 q 171 425 175 420 q 167 434 167 429 q 171 444 167 439 q 183 448 175 448 l 511 448 q 524 444 519 448 q 528 434 528 439 q 524 425 528 429 q 511 420 519 420 l 183 420 m 183 594 q 171 598 175 594 q 167 608 167 602 q 171 617 167 613 q 183 621 175 621 l 511 621 q 524 617 519 621 q 528 608 528 613 q 524 598 528 602 q 511 594 519 594 l 183 594 m 878 594 q 865 598 869 594 q 861 608 861 602 q 865 617 861 613 q 878 621 869 621 l 1206 621 q 1218 617 1214 621 q 1222 608 1222 613 q 1218 598 1222 602 q 1206 594 1214 594 l 878 594 m 183 768 q 171 772 175 768 q 167 781 167 776 q 171 791 167 787 q 183 795 175 795 l 1032 795 q 1044 791 1040 795 q 1048 781 1048 787 q 1044 772 1048 776 q 1032 768 1040 768 l 183 768 z "},"s":{"ha":1389,"x_min":167,"x_max":1222,"o":"m 183 73 q 171 77 175 73 q 167 87 167 81 q 171 96 167 92 q 183 100 175 100 l 1032 100 q 1044 96 1040 100 q 1048 87 1048 92 q 1044 77 1048 81 q 1032 73 1040 73 l 183 73 m 878 247 q 865 251 869 247 q 861 260 861 255 q 865 270 861 266 q 878 274 869 274 l 1206 274 q 1218 270 1214 274 q 1222 260 1222 266 q 1218 251 1222 255 q 1206 247 1214 247 l 878 247 m 357 420 q 345 425 349 420 q 340 434 340 429 q 345 444 340 439 q 357 448 349 448 l 1032 448 q 1044 444 1040 448 q 1048 434 1048 439 q 1044 425 1048 429 q 1032 420 1040 420 l 357 420 m 183 594 q 171 598 175 594 q 167 608 167 602 q 171 617 167 613 q 183 621 175 621 l 511 621 q 524 617 519 621 q 528 608 528 613 q 524 598 528 602 q 511 594 519 594 l 183 594 m 357 768 q 345 772 349 768 q 340 781 340 776 q 345 791 340 787 q 357 795 349 795 l 1206 795 q 1218 791 1214 795 q 1222 781 1222 787 q 1218 772 1222 776 q 1206 768 1214 768 l 357 768 z "},"ß":{"ha":1389,"x_min":167,"x_max":1222,"o":"m 183 73 q 171 77 175 73 q 167 87 167 81 q 171 96 167 92 q 183 100 175 100 l 511 100 q 524 96 519 100 q 528 87 528 92 q 524 77 528 81 q 511 73 519 73 l 183 73 m 704 73 q 692 77 696 73 q 688 87 688 81 q 692 96 688 92 q 704 100 696 100 l 1032 100 q 1044 96 1040 100 q 1048 87 1048 92 q 1044 77 1048 81 q 1032 73 1040 73 l 704 73 m 183 247 q 171 251 175 247 q 167 260 167 255 q 171 270 167 266 q 183 274 175 274 l 511 274 q 524 270 519 274 q 528 260 528 266 q 524 251 528 255 q 511 247 519 247 l 183 247 m 878 247 q 865 251 869 247 q 861 260 861 255 q 865 270 861 266 q 878 274 869 274 l 1206 274 q 1218 270 1214 274 q 1222 260 1222 266 q 1218 251 1222 255 q 1206 247 1214 247 l 878 247 m 183 420 q 171 425 175 420 q 167 434 167 429 q 171 444 167 439 q 183 448 175 448 l 511 448 q 524 444 519 448 q 528 434 528 439 q 524 425 528 429 q 511 420 519 420 l 183 420 m 878 420 q 865 425 869 420 q 861 434 861 429 q 865 444 861 439 q 878 448 869 448 l 1206 448 q 1218 444 1214 448 q 1222 434 1222 439 q 1218 425 1222 429 q 1206 420 1214 420 l 878 420 m 183 594 q 171 598 175 594 q 167 608 167 602 q 171 617 167 613 q 183 621 175 621 l 511 621 q 524 617 519 621 q 528 608 528 613 q 524 598 528 602 q 511 594 519 594 l 183 594 m 704 594 q 692 598 696 594 q 688 608 688 602 q 692 617 688 613 q 704 621 696 621 l 1032 621 q 1044 617 1040 621 q 1048 608 1048 613 q 1044 598 1048 602 q 1032 594 1040 594 l 704 594 m 183 768 q 171 772 175 768 q 167 781 167 776 q 171 791 167 787 q 183 795 175 795 l 511 795 q 524 791 519 795 q 528 781 528 787 q 524 772 528 776 q 511 768 519 768 l 183 768 m 878 768 q 865 772 869 768 q 861 781 861 776 q 865 791 861 787 q 878 795 869 795 l 1206 795 q 1218 791 1214 795 q 1222 781 1222 787 q 1218 772 1222 776 q 1206 768 1214 768 l 878 768 m 183 941 q 171 945 175 941 q 167 955 167 949 q 171 964 167 960 q 183 968 175 968 l 511 968 q 524 964 519 968 q 528 955 528 960 q 524 945 528 949 q 511 941 519 941 l 183 941 m 878 941 q 865 945 869 941 q 861 955 861 949 q 865 964 861 960 q 878 968 869 968 l 1206 968 q 1218 964 1214 968 q 1222 955 1222 960 q 1218 945 1222 949 q 1206 941 1214 941 l 878 941 m 357 1115 q 345 1119 349 1115 q 340 1128 340 1123 q 345 1138 340 1134 q 357 1142 349 1142 l 1032 1142 q 1044 1138 1040 1142 q 1048 1128 1048 1134 q 1044 1119 1048 1123 q 1032 1115 1040 1115 l 357 1115 z "},"ſ":{"ha":1389,"x_min":514,"x_max":1222,"o":"m 530 73 q 518 77 522 73 q 514 87 514 81 q 518 96 514 92 q 530 100 522 100 l 859 100 q 871 96 867 100 q 875 87 875 92 q 871 77 875 81 q 859 73 867 73 l 530 73 m 530 247 q 518 251 522 247 q 514 260 514 255 q 518 270 514 266 q 530 274 522 274 l 859 274 q 871 270 867 274 q 875 260 875 266 q 871 251 875 255 q 859 247 867 247 l 530 247 m 530 420 q 518 425 522 420 q 514 434 514 429 q 518 444 514 439 q 530 448 522 448 l 859 448 q 871 444 867 448 q 875 434 875 439 q 871 425 875 429 q 859 420 867 420 l 530 420 m 530 594 q 518 598 522 594 q 514 608 514 602 q 518 617 514 613 q 530 621 522 621 l 859 621 q 871 617 867 621 q 875 608 875 613 q 871 598 875 602 q 859 594 867 594 l 530 594 m 530 768 q 518 772 522 768 q 514 781 514 776 q 518 791 514 787 q 530 795 522 795 l 859 795 q 871 791 867 795 q 875 781 875 787 q 871 772 875 776 q 859 768 867 768 l 530 768 m 704 941 q 692 945 696 941 q 688 955 688 949 q 692 964 688 960 q 704 968 696 968 l 1206 968 q 1218 964 1214 968 q 1222 955 1222 960 q 1218 945 1222 949 q 1206 941 1214 941 l 704 941 z "},"t":{"ha":1389,"x_min":167,"x_max":1222,"o":"m 704 73 q 692 77 696 73 q 688 87 688 81 q 692 96 688 92 q 704 100 696 100 l 1206 100 q 1218 96 1214 100 q 1222 87 1222 92 q 1218 77 1222 81 q 1206 73 1214 73 l 704 73 m 530 247 q 518 251 522 247 q 514 260 514 255 q 518 270 514 266 q 530 274 522 274 l 859 274 q 871 270 867 274 q 875 260 875 266 q 871 251 875 255 q 859 247 867 247 l 530 247 m 530 420 q 518 425 522 420 q 514 434 514 429 q 518 444 514 439 q 530 448 522 448 l 859 448 q 871 444 867 448 q 875 434 875 439 q 871 425 875 429 q 859 420 867 420 l 530 420 m 530 594 q 518 598 522 594 q 514 608 514 602 q 518 617 514 613 q 530 621 522 621 l 859 621 q 871 617 867 621 q 875 608 875 613 q 871 598 875 602 q 859 594 867 594 l 530 594 m 183 768 q 171 772 175 768 q 167 781 167 776 q 171 791 167 787 q 183 795 175 795 l 1206 795 q 1218 791 1214 795 q 1222 781 1222 787 q 1218 772 1222 776 q 1206 768 1214 768 l 183 768 m 530 941 q 518 945 522 941 q 514 955 514 949 q 518 964 514 960 q 530 968 522 968 l 859 968 q 871 964 867 968 q 875 955 875 960 q 871 945 875 949 q 859 941 867 941 l 530 941 z "},"u":{"ha":1389,"x_min":167,"x_max":1222,"o":"m 357 73 q 345 77 349 73 q 340 87 340 81 q 345 96 340 92 q 357 100 349 100 l 1206 100 q 1218 96 1214 100 q 1222 87 1222 92 q 1218 77 1222 81 q 1206 73 1214 73 l 357 73 m 183 247 q 171 251 175 247 q 167 260 167 255 q 171 270 167 266 q 183 274 175 274 l 511 274 q 524 270 519 274 q 528 260 528 266 q 524 251 528 255 q 511 247 519 247 l 183 247 m 878 247 q 865 251 869 247 q 861 260 861 255 q 865 270 861 266 q 878 274 869 274 l 1206 274 q 1218 270 1214 274 q 1222 260 1222 266 q 1218 251 1222 255 q 1206 247 1214 247 l 878 247 m 183 420 q 171 425 175 420 q 167 434 167 429 q 171 444 167 439 q 183 448 175 448 l 511 448 q 524 444 519 448 q 528 434 528 439 q 524 425 528 429 q 511 420 519 420 l 183 420 m 878 420 q 865 425 869 420 q 861 434 861 429 q 865 444 861 439 q 878 448 869 448 l 1206 448 q 1218 444 1214 448 q 1222 434 1222 439 q 1218 425 1222 429 q 1206 420 1214 420 l 878 420 m 183 594 q 171 598 175 594 q 167 608 167 602 q 171 617 167 613 q 183 621 175 621 l 511 621 q 524 617 519 621 q 528 608 528 613 q 524 598 528 602 q 511 594 519 594 l 183 594 m 878 594 q 865 598 869 594 q 861 608 861 602 q 865 617 861 613 q 878 621 869 621 l 1206 621 q 1218 617 1214 621 q 1222 608 1222 613 q 1218 598 1222 602 q 1206 594 1214 594 l 878 594 m 183 768 q 171 772 175 768 q 167 781 167 776 q 171 791 167 787 q 183 795 175 795 l 511 795 q 524 791 519 795 q 528 781 528 787 q 524 772 528 776 q 511 768 519 768 l 183 768 m 878 768 q 865 772 869 768 q 861 781 861 776 q 865 791 861 787 q 878 795 869 795 l 1206 795 q 1218 791 1214 795 q 1222 781 1222 787 q 1218 772 1222 776 q 1206 768 1214 768 l 878 768 z "},"ú":{"ha":1389,"x_min":167,"x_max":1222,"o":"m 357 73 q 345 77 349 73 q 340 87 340 81 q 345 96 340 92 q 357 100 349 100 l 1206 100 q 1218 96 1214 100 q 1222 87 1222 92 q 1218 77 1222 81 q 1206 73 1214 73 l 357 73 m 183 247 q 171 251 175 247 q 167 260 167 255 q 171 270 167 266 q 183 274 175 274 l 511 274 q 524 270 519 274 q 528 260 528 266 q 524 251 528 255 q 511 247 519 247 l 183 247 m 878 247 q 865 251 869 247 q 861 260 861 255 q 865 270 861 266 q 878 274 869 274 l 1206 274 q 1218 270 1214 274 q 1222 260 1222 266 q 1218 251 1222 255 q 1206 247 1214 247 l 878 247 m 183 420 q 171 425 175 420 q 167 434 167 429 q 171 444 167 439 q 183 448 175 448 l 511 448 q 524 444 519 448 q 528 434 528 439 q 524 425 528 429 q 511 420 519 420 l 183 420 m 878 420 q 865 425 869 420 q 861 434 861 429 q 865 444 861 439 q 878 448 869 448 l 1206 448 q 1218 444 1214 448 q 1222 434 1222 439 q 1218 425 1222 429 q 1206 420 1214 420 l 878 420 m 183 594 q 171 598 175 594 q 167 608 167 602 q 171 617 167 613 q 183 621 175 621 l 511 621 q 524 617 519 621 q 528 608 528 613 q 524 598 528 602 q 511 594 519 594 l 183 594 m 878 594 q 865 598 869 594 q 861 608 861 602 q 865 617 861 613 q 878 621 869 621 l 1206 621 q 1218 617 1214 621 q 1222 608 1222 613 q 1218 598 1222 602 q 1206 594 1214 594 l 878 594 m 183 768 q 171 772 175 768 q 167 781 167 776 q 171 791 167 787 q 183 795 175 795 l 511 795 q 524 791 519 795 q 528 781 528 787 q 524 772 528 776 q 511 768 519 768 l 183 768 m 878 768 q 865 772 869 768 q 861 781 861 776 q 865 791 861 787 q 878 795 869 795 l 1206 795 q 1218 791 1214 795 q 1222 781 1222 787 q 1218 772 1222 776 q 1206 768 1214 768 l 878 768 z "},"û":{"ha":1389,"x_min":167,"x_max":1222,"o":"m 357 73 q 345 77 349 73 q 340 87 340 81 q 345 96 340 92 q 357 100 349 100 l 1206 100 q 1218 96 1214 100 q 1222 87 1222 92 q 1218 77 1222 81 q 1206 73 1214 73 l 357 73 m 183 247 q 171 251 175 247 q 167 260 167 255 q 171 270 167 266 q 183 274 175 274 l 511 274 q 524 270 519 274 q 528 260 528 266 q 524 251 528 255 q 511 247 519 247 l 183 247 m 878 247 q 865 251 869 247 q 861 260 861 255 q 865 270 861 266 q 878 274 869 274 l 1206 274 q 1218 270 1214 274 q 1222 260 1222 266 q 1218 251 1222 255 q 1206 247 1214 247 l 878 247 m 183 420 q 171 425 175 420 q 167 434 167 429 q 171 444 167 439 q 183 448 175 448 l 511 448 q 524 444 519 448 q 528 434 528 439 q 524 425 528 429 q 511 420 519 420 l 183 420 m 878 420 q 865 425 869 420 q 861 434 861 429 q 865 444 861 439 q 878 448 869 448 l 1206 448 q 1218 444 1214 448 q 1222 434 1222 439 q 1218 425 1222 429 q 1206 420 1214 420 l 878 420 m 183 594 q 171 598 175 594 q 167 608 167 602 q 171 617 167 613 q 183 621 175 621 l 511 621 q 524 617 519 621 q 528 608 528 613 q 524 598 528 602 q 511 594 519 594 l 183 594 m 878 594 q 865 598 869 594 q 861 608 861 602 q 865 617 861 613 q 878 621 869 621 l 1206 621 q 1218 617 1214 621 q 1222 608 1222 613 q 1218 598 1222 602 q 1206 594 1214 594 l 878 594 m 183 768 q 171 772 175 768 q 167 781 167 776 q 171 791 167 787 q 183 795 175 795 l 511 795 q 524 791 519 795 q 528 781 528 787 q 524 772 528 776 q 511 768 519 768 l 183 768 m 878 768 q 865 772 869 768 q 861 781 861 776 q 865 791 861 787 q 878 795 869 795 l 1206 795 q 1218 791 1214 795 q 1222 781 1222 787 q 1218 772 1222 776 q 1206 768 1214 768 l 878 768 z "},"ü":{"ha":1389,"x_min":167,"x_max":1222,"o":"m 357 73 q 345 77 349 73 q 340 87 340 81 q 345 96 340 92 q 357 100 349 100 l 1206 100 q 1218 96 1214 100 q 1222 87 1222 92 q 1218 77 1222 81 q 1206 73 1214 73 l 357 73 m 183 247 q 171 251 175 247 q 167 260 167 255 q 171 270 167 266 q 183 274 175 274 l 511 274 q 524 270 519 274 q 528 260 528 266 q 524 251 528 255 q 511 247 519 247 l 183 247 m 878 247 q 865 251 869 247 q 861 260 861 255 q 865 270 861 266 q 878 274 869 274 l 1206 274 q 1218 270 1214 274 q 1222 260 1222 266 q 1218 251 1222 255 q 1206 247 1214 247 l 878 247 m 183 420 q 171 425 175 420 q 167 434 167 429 q 171 444 167 439 q 183 448 175 448 l 511 448 q 524 444 519 448 q 528 434 528 439 q 524 425 528 429 q 511 420 519 420 l 183 420 m 878 420 q 865 425 869 420 q 861 434 861 429 q 865 444 861 439 q 878 448 869 448 l 1206 448 q 1218 444 1214 448 q 1222 434 1222 439 q 1218 425 1222 429 q 1206 420 1214 420 l 878 420 m 183 594 q 171 598 175 594 q 167 608 167 602 q 171 617 167 613 q 183 621 175 621 l 511 621 q 524 617 519 621 q 528 608 528 613 q 524 598 528 602 q 511 594 519 594 l 183 594 m 878 594 q 865 598 869 594 q 861 608 861 602 q 865 617 861 613 q 878 621 869 621 l 1206 621 q 1218 617 1214 621 q 1222 608 1222 613 q 1218 598 1222 602 q 1206 594 1214 594 l 878 594 m 183 768 q 171 772 175 768 q 167 781 167 776 q 171 791 167 787 q 183 795 175 795 l 511 795 q 524 791 519 795 q 528 781 528 787 q 524 772 528 776 q 511 768 519 768 l 183 768 m 878 768 q 865 772 869 768 q 861 781 861 776 q 865 791 861 787 q 878 795 869 795 l 1206 795 q 1218 791 1214 795 q 1222 781 1222 787 q 1218 772 1222 776 q 1206 768 1214 768 l 878 768 z "},"ù":{"ha":1389,"x_min":167,"x_max":1222,"o":"m 357 73 q 345 77 349 73 q 340 87 340 81 q 345 96 340 92 q 357 100 349 100 l 1206 100 q 1218 96 1214 100 q 1222 87 1222 92 q 1218 77 1222 81 q 1206 73 1214 73 l 357 73 m 183 247 q 171 251 175 247 q 167 260 167 255 q 171 270 167 266 q 183 274 175 274 l 511 274 q 524 270 519 274 q 528 260 528 266 q 524 251 528 255 q 511 247 519 247 l 183 247 m 878 247 q 865 251 869 247 q 861 260 861 255 q 865 270 861 266 q 878 274 869 274 l 1206 274 q 1218 270 1214 274 q 1222 260 1222 266 q 1218 251 1222 255 q 1206 247 1214 247 l 878 247 m 183 420 q 171 425 175 420 q 167 434 167 429 q 171 444 167 439 q 183 448 175 448 l 511 448 q 524 444 519 448 q 528 434 528 439 q 524 425 528 429 q 511 420 519 420 l 183 420 m 878 420 q 865 425 869 420 q 861 434 861 429 q 865 444 861 439 q 878 448 869 448 l 1206 448 q 1218 444 1214 448 q 1222 434 1222 439 q 1218 425 1222 429 q 1206 420 1214 420 l 878 420 m 183 594 q 171 598 175 594 q 167 608 167 602 q 171 617 167 613 q 183 621 175 621 l 511 621 q 524 617 519 621 q 528 608 528 613 q 524 598 528 602 q 511 594 519 594 l 183 594 m 878 594 q 865 598 869 594 q 861 608 861 602 q 865 617 861 613 q 878 621 869 621 l 1206 621 q 1218 617 1214 621 q 1222 608 1222 613 q 1218 598 1222 602 q 1206 594 1214 594 l 878 594 m 183 768 q 171 772 175 768 q 167 781 167 776 q 171 791 167 787 q 183 795 175 795 l 511 795 q 524 791 519 795 q 528 781 528 787 q 524 772 528 776 q 511 768 519 768 l 183 768 m 878 768 q 865 772 869 768 q 861 781 861 776 q 865 791 861 787 q 878 795 869 795 l 1206 795 q 1218 791 1214 795 q 1222 781 1222 787 q 1218 772 1222 776 q 1206 768 1214 768 l 878 768 z "},"v":{"ha":1389,"x_min":167,"x_max":1222,"o":"m 530 73 q 518 77 522 73 q 514 87 514 81 q 518 96 514 92 q 530 100 522 100 l 859 100 q 871 96 867 100 q 875 87 875 92 q 871 77 875 81 q 859 73 867 73 l 530 73 m 357 247 q 345 251 349 247 q 340 260 340 255 q 345 270 340 266 q 357 274 349 274 l 1032 274 q 1044 270 1040 274 q 1048 260 1048 266 q 1044 251 1048 255 q 1032 247 1040 247 l 357 247 m 183 420 q 171 425 175 420 q 167 434 167 429 q 171 444 167 439 q 183 448 175 448 l 511 448 q 524 444 519 448 q 528 434 528 439 q 524 425 528 429 q 511 420 519 420 l 183 420 m 878 420 q 865 425 869 420 q 861 434 861 429 q 865 444 861 439 q 878 448 869 448 l 1206 448 q 1218 444 1214 448 q 1222 434 1222 439 q 1218 425 1222 429 q 1206 420 1214 420 l 878 420 m 183 594 q 171 598 175 594 q 167 608 167 602 q 171 617 167 613 q 183 621 175 621 l 511 621 q 524 617 519 621 q 528 608 528 613 q 524 598 528 602 q 511 594 519 594 l 183 594 m 878 594 q 865 598 869 594 q 861 608 861 602 q 865 617 861 613 q 878 621 869 621 l 1206 621 q 1218 617 1214 621 q 1222 608 1222 613 q 1218 598 1222 602 q 1206 594 1214 594 l 878 594 m 183 768 q 171 772 175 768 q 167 781 167 776 q 171 791 167 787 q 183 795 175 795 l 511 795 q 524 791 519 795 q 528 781 528 787 q 524 772 528 776 q 511 768 519 768 l 183 768 m 878 768 q 865 772 869 768 q 861 781 861 776 q 865 791 861 787 q 878 795 869 795 l 1206 795 q 1218 791 1214 795 q 1222 781 1222 787 q 1218 772 1222 776 q 1206 768 1214 768 l 878 768 z "},"w":{"ha":1389,"x_min":167,"x_max":1396,"o":"m 357 73 q 345 77 349 73 q 340 87 340 81 q 345 96 340 92 q 357 100 349 100 l 685 100 q 697 96 693 100 q 701 87 701 92 q 697 77 701 81 q 685 73 693 73 l 357 73 m 878 73 q 865 77 869 73 q 861 87 861 81 q 865 96 861 92 q 878 100 869 100 l 1206 100 q 1218 96 1214 100 q 1222 87 1222 92 q 1218 77 1222 81 q 1206 73 1214 73 l 878 73 m 357 247 q 345 251 349 247 q 340 260 340 255 q 345 270 340 266 q 357 274 349 274 l 1206 274 q 1218 270 1214 274 q 1222 260 1222 266 q 1218 251 1222 255 q 1206 247 1214 247 l 357 247 m 183 420 q 171 425 175 420 q 167 434 167 429 q 171 444 167 439 q 183 448 175 448 l 1379 448 q 1392 444 1388 448 q 1396 434 1396 439 q 1392 425 1396 429 q 1379 420 1388 420 l 183 420 m 183 594 q 171 598 175 594 q 167 608 167 602 q 171 617 167 613 q 183 621 175 621 l 511 621 q 524 617 519 621 q 528 608 528 613 q 524 598 528 602 q 511 594 519 594 l 183 594 m 704 594 q 692 598 696 594 q 688 608 688 602 q 692 617 688 613 q 704 621 696 621 l 859 621 q 871 617 867 621 q 875 608 875 613 q 871 598 875 602 q 859 594 867 594 l 704 594 m 1051 594 q 1039 598 1043 594 q 1035 608 1035 602 q 1039 617 1035 613 q 1051 621 1043 621 l 1379 621 q 1392 617 1388 621 q 1396 608 1396 613 q 1392 598 1396 602 q 1379 594 1388 594 l 1051 594 m 183 768 q 171 772 175 768 q 167 781 167 776 q 171 791 167 787 q 183 795 175 795 l 511 795 q 524 791 519 795 q 528 781 528 787 q 524 772 528 776 q 511 768 519 768 l 183 768 m 1051 768 q 1039 772 1043 768 q 1035 781 1035 776 q 1039 791 1035 787 q 1051 795 1043 795 l 1379 795 q 1392 791 1388 795 q 1396 781 1396 787 q 1392 772 1396 776 q 1379 768 1388 768 l 1051 768 z "},"x":{"ha":1389,"x_min":167,"x_max":1222,"o":"m 183 73 q 171 77 175 73 q 167 87 167 81 q 171 96 167 92 q 183 100 175 100 l 511 100 q 524 96 519 100 q 528 87 528 92 q 524 77 528 81 q 511 73 519 73 l 183 73 m 878 73 q 865 77 869 73 q 861 87 861 81 q 865 96 861 92 q 878 100 869 100 l 1206 100 q 1218 96 1214 100 q 1222 87 1222 92 q 1218 77 1222 81 q 1206 73 1214 73 l 878 73 m 357 247 q 345 251 349 247 q 340 260 340 255 q 345 270 340 266 q 357 274 349 274 l 1032 274 q 1044 270 1040 274 q 1048 260 1048 266 q 1044 251 1048 255 q 1032 247 1040 247 l 357 247 m 530 420 q 518 425 522 420 q 514 434 514 429 q 518 444 514 439 q 530 448 522 448 l 859 448 q 871 444 867 448 q 875 434 875 439 q 871 425 875 429 q 859 420 867 420 l 530 420 m 357 594 q 345 598 349 594 q 340 608 340 602 q 345 617 340 613 q 357 621 349 621 l 1032 621 q 1044 617 1040 621 q 1048 608 1048 613 q 1044 598 1048 602 q 1032 594 1040 594 l 357 594 m 183 768 q 171 772 175 768 q 167 781 167 776 q 171 791 167 787 q 183 795 175 795 l 511 795 q 524 791 519 795 q 528 781 528 787 q 524 772 528 776 q 511 768 519 768 l 183 768 m 878 768 q 865 772 869 768 q 861 781 861 776 q 865 791 861 787 q 878 795 869 795 l 1206 795 q 1218 791 1214 795 q 1222 781 1222 787 q 1218 772 1222 776 q 1206 768 1214 768 l 878 768 z "},"y":{"ha":1389,"x_min":167,"x_max":1222,"o":"m 183 -100 q 171 -96 175 -100 q 167 -87 167 -92 q 171 -77 167 -81 q 183 -73 175 -73 l 1032 -73 q 1044 -77 1040 -73 q 1048 -87 1048 -81 q 1044 -96 1048 -92 q 1032 -100 1040 -100 l 183 -100 m 878 73 q 865 77 869 73 q 861 87 861 81 q 865 96 861 92 q 878 100 869 100 l 1206 100 q 1218 96 1214 100 q 1222 87 1222 92 q 1218 77 1222 81 q 1206 73 1214 73 l 878 73 m 357 247 q 345 251 349 247 q 340 260 340 255 q 345 270 340 266 q 357 274 349 274 l 1206 274 q 1218 270 1214 274 q 1222 260 1222 266 q 1218 251 1222 255 q 1206 247 1214 247 l 357 247 m 183 420 q 171 425 175 420 q 167 434 167 429 q 171 444 167 439 q 183 448 175 448 l 511 448 q 524 444 519 448 q 528 434 528 439 q 524 425 528 429 q 511 420 519 420 l 183 420 m 878 420 q 865 425 869 420 q 861 434 861 429 q 865 444 861 439 q 878 448 869 448 l 1206 448 q 1218 444 1214 448 q 1222 434 1222 439 q 1218 425 1222 429 q 1206 420 1214 420 l 878 420 m 183 594 q 171 598 175 594 q 167 608 167 602 q 171 617 167 613 q 183 621 175 621 l 511 621 q 524 617 519 621 q 528 608 528 613 q 524 598 528 602 q 511 594 519 594 l 183 594 m 878 594 q 865 598 869 594 q 861 608 861 602 q 865 617 861 613 q 878 621 869 621 l 1206 621 q 1218 617 1214 621 q 1222 608 1222 613 q 1218 598 1222 602 q 1206 594 1214 594 l 878 594 m 183 768 q 171 772 175 768 q 167 781 167 776 q 171 791 167 787 q 183 795 175 795 l 511 795 q 524 791 519 795 q 528 781 528 787 q 524 772 528 776 q 511 768 519 768 l 183 768 m 878 768 q 865 772 869 768 q 861 781 861 776 q 865 791 861 787 q 878 795 869 795 l 1206 795 q 1218 791 1214 795 q 1222 781 1222 787 q 1218 772 1222 776 q 1206 768 1214 768 l 878 768 z "},"ý":{"ha":1389,"x_min":167,"x_max":1222,"o":"m 183 -100 q 171 -96 175 -100 q 167 -87 167 -92 q 171 -77 167 -81 q 183 -73 175 -73 l 1032 -73 q 1044 -77 1040 -73 q 1048 -87 1048 -81 q 1044 -96 1048 -92 q 1032 -100 1040 -100 l 183 -100 m 878 73 q 865 77 869 73 q 861 87 861 81 q 865 96 861 92 q 878 100 869 100 l 1206 100 q 1218 96 1214 100 q 1222 87 1222 92 q 1218 77 1222 81 q 1206 73 1214 73 l 878 73 m 357 247 q 345 251 349 247 q 340 260 340 255 q 345 270 340 266 q 357 274 349 274 l 1206 274 q 1218 270 1214 274 q 1222 260 1222 266 q 1218 251 1222 255 q 1206 247 1214 247 l 357 247 m 183 420 q 171 425 175 420 q 167 434 167 429 q 171 444 167 439 q 183 448 175 448 l 511 448 q 524 444 519 448 q 528 434 528 439 q 524 425 528 429 q 511 420 519 420 l 183 420 m 878 420 q 865 425 869 420 q 861 434 861 429 q 865 444 861 439 q 878 448 869 448 l 1206 448 q 1218 444 1214 448 q 1222 434 1222 439 q 1218 425 1222 429 q 1206 420 1214 420 l 878 420 m 183 594 q 171 598 175 594 q 167 608 167 602 q 171 617 167 613 q 183 621 175 621 l 511 621 q 524 617 519 621 q 528 608 528 613 q 524 598 528 602 q 511 594 519 594 l 183 594 m 878 594 q 865 598 869 594 q 861 608 861 602 q 865 617 861 613 q 878 621 869 621 l 1206 621 q 1218 617 1214 621 q 1222 608 1222 613 q 1218 598 1222 602 q 1206 594 1214 594 l 878 594 m 183 768 q 171 772 175 768 q 167 781 167 776 q 171 791 167 787 q 183 795 175 795 l 511 795 q 524 791 519 795 q 528 781 528 787 q 524 772 528 776 q 511 768 519 768 l 183 768 m 878 768 q 865 772 869 768 q 861 781 861 776 q 865 791 861 787 q 878 795 869 795 l 1206 795 q 1218 791 1214 795 q 1222 781 1222 787 q 1218 772 1222 776 q 1206 768 1214 768 l 878 768 z "},"ÿ":{"ha":1389,"x_min":167,"x_max":1222,"o":"m 183 -100 q 171 -96 175 -100 q 167 -87 167 -92 q 171 -77 167 -81 q 183 -73 175 -73 l 1032 -73 q 1044 -77 1040 -73 q 1048 -87 1048 -81 q 1044 -96 1048 -92 q 1032 -100 1040 -100 l 183 -100 m 878 73 q 865 77 869 73 q 861 87 861 81 q 865 96 861 92 q 878 100 869 100 l 1206 100 q 1218 96 1214 100 q 1222 87 1222 92 q 1218 77 1222 81 q 1206 73 1214 73 l 878 73 m 357 247 q 345 251 349 247 q 340 260 340 255 q 345 270 340 266 q 357 274 349 274 l 1206 274 q 1218 270 1214 274 q 1222 260 1222 266 q 1218 251 1222 255 q 1206 247 1214 247 l 357 247 m 183 420 q 171 425 175 420 q 167 434 167 429 q 171 444 167 439 q 183 448 175 448 l 511 448 q 524 444 519 448 q 528 434 528 439 q 524 425 528 429 q 511 420 519 420 l 183 420 m 878 420 q 865 425 869 420 q 861 434 861 429 q 865 444 861 439 q 878 448 869 448 l 1206 448 q 1218 444 1214 448 q 1222 434 1222 439 q 1218 425 1222 429 q 1206 420 1214 420 l 878 420 m 183 594 q 171 598 175 594 q 167 608 167 602 q 171 617 167 613 q 183 621 175 621 l 511 621 q 524 617 519 621 q 528 608 528 613 q 524 598 528 602 q 511 594 519 594 l 183 594 m 878 594 q 865 598 869 594 q 861 608 861 602 q 865 617 861 613 q 878 621 869 621 l 1206 621 q 1218 617 1214 621 q 1222 608 1222 613 q 1218 598 1222 602 q 1206 594 1214 594 l 878 594 m 183 768 q 171 772 175 768 q 167 781 167 776 q 171 791 167 787 q 183 795 175 795 l 511 795 q 524 791 519 795 q 528 781 528 787 q 524 772 528 776 q 511 768 519 768 l 183 768 m 878 768 q 865 772 869 768 q 861 781 861 776 q 865 791 861 787 q 878 795 869 795 l 1206 795 q 1218 791 1214 795 q 1222 781 1222 787 q 1218 772 1222 776 q 1206 768 1214 768 l 878 768 z "},"z":{"ha":1389,"x_min":167,"x_max":1222,"o":"m 183 73 q 171 77 175 73 q 167 87 167 81 q 171 96 167 92 q 183 100 175 100 l 1206 100 q 1218 96 1214 100 q 1222 87 1222 92 q 1218 77 1222 81 q 1206 73 1214 73 l 183 73 m 357 247 q 345 251 349 247 q 340 260 340 255 q 345 270 340 266 q 357 274 349 274 l 685 274 q 697 270 693 274 q 701 260 701 266 q 697 251 701 255 q 685 247 693 247 l 357 247 m 530 420 q 518 425 522 420 q 514 434 514 429 q 518 444 514 439 q 530 448 522 448 l 859 448 q 871 444 867 448 q 875 434 875 439 q 871 425 875 429 q 859 420 867 420 l 530 420 m 704 594 q 692 598 696 594 q 688 608 688 602 q 692 617 688 613 q 704 621 696 621 l 1032 621 q 1044 617 1040 621 q 1048 608 1048 613 q 1044 598 1048 602 q 1032 594 1040 594 l 704 594 m 183 768 q 171 772 175 768 q 167 781 167 776 q 171 791 167 787 q 183 795 175 795 l 1206 795 q 1218 791 1214 795 q 1222 781 1222 787 q 1218 772 1222 776 q 1206 768 1214 768 l 183 768 z "},"ª":{"ha":1389,"x_min":167,"x_max":1222,"o":"m 357 420 q 345 425 349 420 q 340 434 340 429 q 345 444 340 439 q 357 448 349 448 l 1206 448 q 1218 444 1214 448 q 1222 434 1222 439 q 1218 425 1222 429 q 1206 420 1214 420 l 357 420 m 183 594 q 171 598 175 594 q 167 608 167 602 q 171 617 167 613 q 183 621 175 621 l 511 621 q 524 617 519 621 q 528 608 528 613 q 524 598 528 602 q 511 594 519 594 l 183 594 m 878 594 q 865 598 869 594 q 861 608 861 602 q 865 617 861 613 q 878 621 869 621 l 1206 621 q 1218 617 1214 621 q 1222 608 1222 613 q 1218 598 1222 602 q 1206 594 1214 594 l 878 594 m 357 768 q 345 772 349 768 q 340 781 340 776 q 345 791 340 787 q 357 795 349 795 l 1206 795 q 1218 791 1214 795 q 1222 781 1222 787 q 1218 772 1222 776 q 1206 768 1214 768 l 357 768 m 878 941 q 865 945 869 941 q 861 955 861 949 q 865 964 861 960 q 878 968 869 968 l 1206 968 q 1218 964 1214 968 q 1222 955 1222 960 q 1218 945 1222 949 q 1206 941 1214 941 l 878 941 m 357 1115 q 345 1119 349 1115 q 340 1128 340 1123 q 345 1138 340 1134 q 357 1142 349 1142 l 1032 1142 q 1044 1138 1040 1142 q 1048 1128 1048 1134 q 1044 1119 1048 1123 q 1032 1115 1040 1115 l 357 1115 z "},"º":{"ha":1389,"x_min":167,"x_max":1222,"o":"m 357 420 q 345 425 349 420 q 340 434 340 429 q 345 444 340 439 q 357 448 349 448 l 1032 448 q 1044 444 1040 448 q 1048 434 1048 439 q 1044 425 1048 429 q 1032 420 1040 420 l 357 420 m 183 594 q 171 598 175 594 q 167 608 167 602 q 171 617 167 613 q 183 621 175 621 l 511 621 q 524 617 519 621 q 528 608 528 613 q 524 598 528 602 q 511 594 519 594 l 183 594 m 878 594 q 865 598 869 594 q 861 608 861 602 q 865 617 861 613 q 878 621 869 621 l 1206 621 q 1218 617 1214 621 q 1222 608 1222 613 q 1218 598 1222 602 q 1206 594 1214 594 l 878 594 m 183 768 q 171 772 175 768 q 167 781 167 776 q 171 791 167 787 q 183 795 175 795 l 511 795 q 524 791 519 795 q 528 781 528 787 q 524 772 528 776 q 511 768 519 768 l 183 768 m 878 768 q 865 772 869 768 q 861 781 861 776 q 865 791 861 787 q 878 795 869 795 l 1206 795 q 1218 791 1214 795 q 1222 781 1222 787 q 1218 772 1222 776 q 1206 768 1214 768 l 878 768 m 183 941 q 171 945 175 941 q 167 955 167 949 q 171 964 167 960 q 183 968 175 968 l 511 968 q 524 964 519 968 q 528 955 528 960 q 524 945 528 949 q 511 941 519 941 l 183 941 m 878 941 q 865 945 869 941 q 861 955 861 949 q 865 964 861 960 q 878 968 869 968 l 1206 968 q 1218 964 1214 968 q 1222 955 1222 960 q 1218 945 1222 949 q 1206 941 1214 941 l 878 941 m 357 1115 q 345 1119 349 1115 q 340 1128 340 1123 q 345 1138 340 1134 q 357 1142 349 1142 l 1032 1142 q 1044 1138 1040 1142 q 1048 1128 1048 1134 q 1044 1119 1048 1123 q 1032 1115 1040 1115 l 357 1115 z "},"Δ":{"ha":1389,"x_min":167,"x_max":1396,"o":"m 183 73 q 171 77 175 73 q 167 87 167 81 q 171 96 167 92 q 183 100 175 100 l 1379 100 q 1392 96 1388 100 q 1396 87 1396 92 q 1392 77 1396 81 q 1379 73 1388 73 l 183 73 m 183 247 q 171 251 175 247 q 167 260 167 255 q 171 270 167 266 q 183 274 175 274 l 511 274 q 524 270 519 274 q 528 260 528 266 q 524 251 528 255 q 511 247 519 247 l 183 247 m 1051 247 q 1039 251 1043 247 q 1035 260 1035 255 q 1039 270 1035 266 q 1051 274 1043 274 l 1379 274 q 1392 270 1388 274 q 1396 260 1396 266 q 1392 251 1396 255 q 1379 247 1388 247 l 1051 247 m 183 420 q 171 425 175 420 q 167 434 167 429 q 171 444 167 439 q 183 448 175 448 l 511 448 q 524 444 519 448 q 528 434 528 439 q 524 425 528 429 q 511 420 519 420 l 183 420 m 1051 420 q 1039 425 1043 420 q 1035 434 1035 429 q 1039 444 1035 439 q 1051 448 1043 448 l 1379 448 q 1392 444 1388 448 q 1396 434 1396 439 q 1392 425 1396 429 q 1379 420 1388 420 l 1051 420 m 357 594 q 345 598 349 594 q 340 608 340 602 q 345 617 340 613 q 357 621 349 621 l 685 621 q 697 617 693 621 q 701 608 701 613 q 697 598 701 602 q 685 594 693 594 l 357 594 m 878 594 q 865 598 869 594 q 861 608 861 602 q 865 617 861 613 q 878 621 869 621 l 1206 621 q 1218 617 1214 621 q 1222 608 1222 613 q 1218 598 1222 602 q 1206 594 1214 594 l 878 594 m 357 768 q 345 772 349 768 q 340 781 340 776 q 345 791 340 787 q 357 795 349 795 l 685 795 q 697 791 693 795 q 701 781 701 787 q 697 772 701 776 q 685 768 693 768 l 357 768 m 878 768 q 865 772 869 768 q 861 781 861 776 q 865 791 861 787 q 878 795 869 795 l 1206 795 q 1218 791 1214 795 q 1222 781 1222 787 q 1218 772 1222 776 q 1206 768 1214 768 l 878 768 m 530 941 q 518 945 522 941 q 514 955 514 949 q 518 964 514 960 q 530 968 522 968 l 1032 968 q 1044 964 1040 968 q 1048 955 1048 960 q 1044 945 1048 949 q 1032 941 1040 941 l 530 941 m 530 1115 q 518 1119 522 1115 q 514 1128 514 1123 q 518 1138 514 1134 q 530 1142 522 1142 l 1032 1142 q 1044 1138 1040 1142 q 1048 1128 1048 1134 q 1044 1119 1048 1123 q 1032 1115 1040 1115 l 530 1115 z "},"Ω":{"ha":1389,"x_min":167,"x_max":1396,"o":"m 183 73 q 171 77 175 73 q 167 87 167 81 q 171 96 167 92 q 183 100 175 100 l 685 100 q 697 96 693 100 q 701 87 701 92 q 697 77 701 81 q 685 73 693 73 l 183 73 m 878 73 q 865 77 869 73 q 861 87 861 81 q 865 96 861 92 q 878 100 869 100 l 1379 100 q 1392 96 1388 100 q 1396 87 1396 92 q 1392 77 1396 81 q 1379 73 1388 73 l 878 73 m 357 247 q 345 251 349 247 q 340 260 340 255 q 345 270 340 266 q 357 274 349 274 l 685 274 q 697 270 693 274 q 701 260 701 266 q 697 251 701 255 q 685 247 693 247 l 357 247 m 878 247 q 865 251 869 247 q 861 260 861 255 q 865 270 861 266 q 878 274 869 274 l 1206 274 q 1218 270 1214 274 q 1222 260 1222 266 q 1218 251 1222 255 q 1206 247 1214 247 l 878 247 m 183 420 q 171 425 175 420 q 167 434 167 429 q 171 444 167 439 q 183 448 175 448 l 511 448 q 524 444 519 448 q 528 434 528 439 q 524 425 528 429 q 511 420 519 420 l 183 420 m 1051 420 q 1039 425 1043 420 q 1035 434 1035 429 q 1039 444 1035 439 q 1051 448 1043 448 l 1379 448 q 1392 444 1388 448 q 1396 434 1396 439 q 1392 425 1396 429 q 1379 420 1388 420 l 1051 420 m 183 594 q 171 598 175 594 q 167 608 167 602 q 171 617 167 613 q 183 621 175 621 l 511 621 q 524 617 519 621 q 528 608 528 613 q 524 598 528 602 q 511 594 519 594 l 183 594 m 1051 594 q 1039 598 1043 594 q 1035 608 1035 602 q 1039 617 1035 613 q 1051 621 1043 621 l 1379 621 q 1392 617 1388 621 q 1396 608 1396 613 q 1392 598 1396 602 q 1379 594 1388 594 l 1051 594 m 183 768 q 171 772 175 768 q 167 781 167 776 q 171 791 167 787 q 183 795 175 795 l 511 795 q 524 791 519 795 q 528 781 528 787 q 524 772 528 776 q 511 768 519 768 l 183 768 m 1051 768 q 1039 772 1043 768 q 1035 781 1035 776 q 1039 791 1035 787 q 1051 795 1043 795 l 1379 795 q 1392 791 1388 795 q 1396 781 1396 787 q 1392 772 1396 776 q 1379 768 1388 768 l 1051 768 m 183 941 q 171 945 175 941 q 167 955 167 949 q 171 964 167 960 q 183 968 175 968 l 511 968 q 524 964 519 968 q 528 955 528 960 q 524 945 528 949 q 511 941 519 941 l 183 941 m 1051 941 q 1039 945 1043 941 q 1035 955 1035 949 q 1039 964 1035 960 q 1051 968 1043 968 l 1379 968 q 1392 964 1388 968 q 1396 955 1396 960 q 1392 945 1396 949 q 1379 941 1388 941 l 1051 941 m 357 1115 q 345 1119 349 1115 q 340 1128 340 1123 q 345 1138 340 1134 q 357 1142 349 1142 l 1206 1142 q 1218 1138 1214 1142 q 1222 1128 1222 1134 q 1218 1119 1222 1123 q 1206 1115 1214 1115 l 357 1115 z "},"μ":{"ha":1389,"x_min":167,"x_max":1222,"o":"m 183 -100 q 171 -96 175 -100 q 167 -87 167 -92 q 171 -77 167 -81 q 183 -73 175 -73 l 511 -73 q 524 -77 519 -73 q 528 -87 528 -81 q 524 -96 528 -92 q 511 -100 519 -100 l 183 -100 m 183 73 q 171 77 175 73 q 167 87 167 81 q 171 96 167 92 q 183 100 175 100 l 1206 100 q 1218 96 1214 100 q 1222 87 1222 92 q 1218 77 1222 81 q 1206 73 1214 73 l 183 73 m 183 247 q 171 251 175 247 q 167 260 167 255 q 171 270 167 266 q 183 274 175 274 l 511 274 q 524 270 519 274 q 528 260 528 266 q 524 251 528 255 q 511 247 519 247 l 183 247 m 878 247 q 865 251 869 247 q 861 260 861 255 q 865 270 861 266 q 878 274 869 274 l 1206 274 q 1218 270 1214 274 q 1222 260 1222 266 q 1218 251 1222 255 q 1206 247 1214 247 l 878 247 m 183 420 q 171 425 175 420 q 167 434 167 429 q 171 444 167 439 q 183 448 175 448 l 511 448 q 524 444 519 448 q 528 434 528 439 q 524 425 528 429 q 511 420 519 420 l 183 420 m 878 420 q 865 425 869 420 q 861 434 861 429 q 865 444 861 439 q 878 448 869 448 l 1206 448 q 1218 444 1214 448 q 1222 434 1222 439 q 1218 425 1222 429 q 1206 420 1214 420 l 878 420 m 183 594 q 171 598 175 594 q 167 608 167 602 q 171 617 167 613 q 183 621 175 621 l 511 621 q 524 617 519 621 q 528 608 528 613 q 524 598 528 602 q 511 594 519 594 l 183 594 m 878 594 q 865 598 869 594 q 861 608 861 602 q 865 617 861 613 q 878 621 869 621 l 1206 621 q 1218 617 1214 621 q 1222 608 1222 613 q 1218 598 1222 602 q 1206 594 1214 594 l 878 594 m 183 768 q 171 772 175 768 q 167 781 167 776 q 171 791 167 787 q 183 795 175 795 l 511 795 q 524 791 519 795 q 528 781 528 787 q 524 772 528 776 q 511 768 519 768 l 183 768 m 878 768 q 865 772 869 768 q 861 781 861 776 q 865 791 861 787 q 878 795 869 795 l 1206 795 q 1218 791 1214 795 q 1222 781 1222 787 q 1218 772 1222 776 q 1206 768 1214 768 l 878 768 z "},"π":{"ha":1389,"x_min":167,"x_max":1396,"o":"m 357 73 q 345 77 349 73 q 340 87 340 81 q 345 96 340 92 q 357 100 349 100 l 685 100 q 697 96 693 100 q 701 87 701 92 q 697 77 701 81 q 685 73 693 73 l 357 73 m 878 73 q 865 77 869 73 q 861 87 861 81 q 865 96 861 92 q 878 100 869 100 l 1206 100 q 1218 96 1214 100 q 1222 87 1222 92 q 1218 77 1222 81 q 1206 73 1214 73 l 878 73 m 357 247 q 345 251 349 247 q 340 260 340 255 q 345 270 340 266 q 357 274 349 274 l 685 274 q 697 270 693 274 q 701 260 701 266 q 697 251 701 255 q 685 247 693 247 l 357 247 m 878 247 q 865 251 869 247 q 861 260 861 255 q 865 270 861 266 q 878 274 869 274 l 1206 274 q 1218 270 1214 274 q 1222 260 1222 266 q 1218 251 1222 255 q 1206 247 1214 247 l 878 247 m 183 420 q 171 425 175 420 q 167 434 167 429 q 171 444 167 439 q 183 448 175 448 l 685 448 q 697 444 693 448 q 701 434 701 439 q 697 425 701 429 q 685 420 693 420 l 183 420 m 878 420 q 865 425 869 420 q 861 434 861 429 q 865 444 861 439 q 878 448 869 448 l 1206 448 q 1218 444 1214 448 q 1222 434 1222 439 q 1218 425 1222 429 q 1206 420 1214 420 l 878 420 m 357 594 q 345 598 349 594 q 340 608 340 602 q 345 617 340 613 q 357 621 349 621 l 1206 621 q 1218 617 1214 621 q 1222 608 1222 613 q 1218 598 1222 602 q 1206 594 1214 594 l 357 594 m 1051 768 q 1039 772 1043 768 q 1035 781 1035 776 q 1039 791 1035 787 q 1051 795 1043 795 l 1379 795 q 1392 791 1388 795 q 1396 781 1396 787 q 1392 772 1396 776 q 1379 768 1388 768 l 1051 768 z "},"¹":{"ha":1389,"x_min":340,"x_max":1048,"o":"m 357 420 q 345 425 349 420 q 340 434 340 429 q 345 444 340 439 q 357 448 349 448 l 1032 448 q 1044 444 1040 448 q 1048 434 1048 439 q 1044 425 1048 429 q 1032 420 1040 420 l 357 420 m 530 594 q 518 598 522 594 q 514 608 514 602 q 518 617 514 613 q 530 621 522 621 l 859 621 q 871 617 867 621 q 875 608 875 613 q 871 598 875 602 q 859 594 867 594 l 530 594 m 530 768 q 518 772 522 768 q 514 781 514 776 q 518 791 514 787 q 530 795 522 795 l 859 795 q 871 791 867 795 q 875 781 875 787 q 871 772 875 776 q 859 768 867 768 l 530 768 m 357 941 q 345 945 349 941 q 340 955 340 949 q 345 964 340 960 q 357 968 349 968 l 859 968 q 871 964 867 968 q 875 955 875 960 q 871 945 875 949 q 859 941 867 941 l 357 941 m 530 1115 q 518 1119 522 1115 q 514 1128 514 1123 q 518 1138 514 1134 q 530 1142 522 1142 l 859 1142 q 871 1138 867 1142 q 875 1128 875 1134 q 871 1119 875 1123 q 859 1115 867 1115 l 530 1115 z "},"²":{"ha":1389,"x_min":340,"x_max":1048,"o":"m 357 420 q 345 425 349 420 q 340 434 340 429 q 345 444 340 439 q 357 448 349 448 l 1032 448 q 1044 444 1040 448 q 1048 434 1048 439 q 1044 425 1048 429 q 1032 420 1040 420 l 357 420 m 357 594 q 345 598 349 594 q 340 608 340 602 q 345 617 340 613 q 357 621 349 621 l 685 621 q 697 617 693 621 q 701 608 701 613 q 697 598 701 602 q 685 594 693 594 l 357 594 m 530 768 q 518 772 522 768 q 514 781 514 776 q 518 791 514 787 q 530 795 522 795 l 859 795 q 871 791 867 795 q 875 781 875 787 q 871 772 875 776 q 859 768 867 768 l 530 768 m 704 941 q 692 945 696 941 q 688 955 688 949 q 692 964 688 960 q 704 968 696 968 l 1032 968 q 1044 964 1040 968 q 1048 955 1048 960 q 1044 945 1048 949 q 1032 941 1040 941 l 704 941 m 357 1115 q 345 1119 349 1115 q 340 1128 340 1123 q 345 1138 340 1134 q 357 1142 349 1142 l 859 1142 q 871 1138 867 1142 q 875 1128 875 1134 q 871 1119 875 1123 q 859 1115 867 1115 l 357 1115 z "},"³":{"ha":1389,"x_min":340,"x_max":1048,"o":"m 357 420 q 345 425 349 420 q 340 434 340 429 q 345 444 340 439 q 357 448 349 448 l 859 448 q 871 444 867 448 q 875 434 875 439 q 871 425 875 429 q 859 420 867 420 l 357 420 m 704 594 q 692 598 696 594 q 688 608 688 602 q 692 617 688 613 q 704 621 696 621 l 1032 621 q 1044 617 1040 621 q 1048 608 1048 613 q 1044 598 1048 602 q 1032 594 1040 594 l 704 594 m 530 768 q 518 772 522 768 q 514 781 514 776 q 518 791 514 787 q 530 795 522 795 l 859 795 q 871 791 867 795 q 875 781 875 787 q 871 772 875 776 q 859 768 867 768 l 530 768 m 704 941 q 692 945 696 941 q 688 955 688 949 q 692 964 688 960 q 704 968 696 968 l 1032 968 q 1044 964 1040 968 q 1048 955 1048 960 q 1044 945 1048 949 q 1032 941 1040 941 l 704 941 m 357 1115 q 345 1119 349 1115 q 340 1128 340 1123 q 345 1138 340 1134 q 357 1142 349 1142 l 859 1142 q 871 1138 867 1142 q 875 1128 875 1134 q 871 1119 875 1123 q 859 1115 867 1115 l 357 1115 z "},"⁄":{"ha":1389,"x_min":167,"x_max":1396,"o":"z "},"½":{"ha":1389,"x_min":167,"x_max":1396,"o":"m 878 -100 q 865 -96 869 -100 q 861 -87 861 -92 q 865 -77 861 -81 q 878 -73 869 -73 l 1379 -73 q 1392 -77 1388 -73 q 1396 -87 1396 -81 q 1392 -96 1396 -92 q 1379 -100 1388 -100 l 878 -100 m 183 73 q 171 77 175 73 q 167 87 167 81 q 171 96 167 92 q 183 100 175 100 l 511 100 q 524 96 519 100 q 528 87 528 92 q 524 77 528 81 q 511 73 519 73 l 183 73 m 1051 73 q 1039 77 1043 73 q 1035 87 1035 81 q 1039 96 1035 92 q 1051 100 1043 100 l 1206 100 q 1218 96 1214 100 q 1222 87 1222 92 q 1218 77 1222 81 q 1206 73 1214 73 l 1051 73 m 357 247 q 345 251 349 247 q 340 260 340 255 q 345 270 340 266 q 357 274 349 274 l 685 274 q 697 270 693 274 q 701 260 701 266 q 697 251 701 255 q 685 247 693 247 l 357 247 m 1225 247 q 1213 251 1217 247 q 1208 260 1208 255 q 1213 270 1208 266 q 1225 274 1217 274 l 1379 274 q 1392 270 1388 274 q 1396 260 1396 266 q 1392 251 1396 255 q 1379 247 1388 247 l 1225 247 m 530 420 q 518 425 522 420 q 514 434 514 429 q 518 444 514 439 q 530 448 522 448 l 1206 448 q 1218 444 1214 448 q 1222 434 1222 439 q 1218 425 1222 429 q 1206 420 1214 420 l 530 420 m 357 594 q 345 598 349 594 q 340 608 340 602 q 345 617 340 613 q 357 621 349 621 l 511 621 q 524 617 519 621 q 528 608 528 613 q 524 598 528 602 q 511 594 519 594 l 357 594 m 704 594 q 692 598 696 594 q 688 608 688 602 q 692 617 688 613 q 704 621 696 621 l 1032 621 q 1044 617 1040 621 q 1048 608 1048 613 q 1044 598 1048 602 q 1032 594 1040 594 l 704 594 m 357 768 q 345 772 349 768 q 340 781 340 776 q 345 791 340 787 q 357 795 349 795 l 511 795 q 524 791 519 795 q 528 781 528 787 q 524 772 528 776 q 511 768 519 768 l 357 768 m 878 768 q 865 772 869 768 q 861 781 861 776 q 865 791 861 787 q 878 795 869 795 l 1206 795 q 1218 791 1214 795 q 1222 781 1222 787 q 1218 772 1222 776 q 1206 768 1214 768 l 878 768 m 183 941 q 171 945 175 941 q 167 955 167 949 q 171 964 167 960 q 183 968 175 968 l 511 968 q 524 964 519 968 q 528 955 528 960 q 524 945 528 949 q 511 941 519 941 l 183 941 m 1051 941 q 1039 945 1043 941 q 1035 955 1035 949 q 1039 964 1035 960 q 1051 968 1043 968 l 1379 968 q 1392 964 1388 968 q 1396 955 1396 960 q 1392 945 1396 949 q 1379 941 1388 941 l 1051 941 m 357 1115 q 345 1119 349 1115 q 340 1128 340 1123 q 345 1138 340 1134 q 357 1142 349 1142 l 511 1142 q 524 1138 519 1142 q 528 1128 528 1134 q 524 1119 528 1123 q 511 1115 519 1115 l 357 1115 z "},"¼":{"ha":1389,"x_min":167,"x_max":1396,"o":"m 1051 -100 q 1039 -96 1043 -100 q 1035 -87 1035 -92 q 1039 -77 1035 -81 q 1051 -73 1043 -73 l 1206 -73 q 1218 -77 1214 -73 q 1222 -87 1222 -81 q 1218 -96 1222 -92 q 1206 -100 1214 -100 l 1051 -100 m 183 73 q 171 77 175 73 q 167 87 167 81 q 171 96 167 92 q 183 100 175 100 l 511 100 q 524 96 519 100 q 528 87 528 92 q 524 77 528 81 q 511 73 519 73 l 183 73 m 878 73 q 865 77 869 73 q 861 87 861 81 q 865 96 861 92 q 878 100 869 100 l 1379 100 q 1392 96 1388 100 q 1396 87 1396 92 q 1392 77 1396 81 q 1379 73 1388 73 l 878 73 m 357 247 q 345 251 349 247 q 340 260 340 255 q 345 270 340 266 q 357 274 349 274 l 685 274 q 697 270 693 274 q 701 260 701 266 q 697 251 701 255 q 685 247 693 247 l 357 247 m 878 247 q 865 251 869 247 q 861 260 861 255 q 865 270 861 266 q 878 274 869 274 l 1206 274 q 1218 270 1214 274 q 1222 260 1222 266 q 1218 251 1222 255 q 1206 247 1214 247 l 878 247 m 530 420 q 518 425 522 420 q 514 434 514 429 q 518 444 514 439 q 530 448 522 448 l 1032 448 q 1044 444 1040 448 q 1048 434 1048 439 q 1044 425 1048 429 q 1032 420 1040 420 l 530 420 m 357 594 q 345 598 349 594 q 340 608 340 602 q 345 617 340 613 q 357 621 349 621 l 511 621 q 524 617 519 621 q 528 608 528 613 q 524 598 528 602 q 511 594 519 594 l 357 594 m 704 594 q 692 598 696 594 q 688 608 688 602 q 692 617 688 613 q 704 621 696 621 l 1032 621 q 1044 617 1040 621 q 1048 608 1048 613 q 1044 598 1048 602 q 1032 594 1040 594 l 704 594 m 357 768 q 345 772 349 768 q 340 781 340 776 q 345 791 340 787 q 357 795 349 795 l 511 795 q 524 791 519 795 q 528 781 528 787 q 524 772 528 776 q 511 768 519 768 l 357 768 m 878 768 q 865 772 869 768 q 861 781 861 776 q 865 791 861 787 q 878 795 869 795 l 1206 795 q 1218 791 1214 795 q 1222 781 1222 787 q 1218 772 1222 776 q 1206 768 1214 768 l 878 768 m 183 941 q 171 945 175 941 q 167 955 167 949 q 171 964 167 960 q 183 968 175 968 l 511 968 q 524 964 519 968 q 528 955 528 960 q 524 945 528 949 q 511 941 519 941 l 183 941 m 1051 941 q 1039 945 1043 941 q 1035 955 1035 949 q 1039 964 1035 960 q 1051 968 1043 968 l 1379 968 q 1392 964 1388 968 q 1396 955 1396 960 q 1392 945 1396 949 q 1379 941 1388 941 l 1051 941 m 357 1115 q 345 1119 349 1115 q 340 1128 340 1123 q 345 1138 340 1134 q 357 1142 349 1142 l 511 1142 q 524 1138 519 1142 q 528 1128 528 1134 q 524 1119 528 1123 q 511 1115 519 1115 l 357 1115 z "},"¾":{"ha":1389,"x_min":167,"x_max":1396,"o":"m 1051 -100 q 1039 -96 1043 -100 q 1035 -87 1035 -92 q 1039 -77 1035 -81 q 1051 -73 1043 -73 l 1206 -73 q 1218 -77 1214 -73 q 1222 -87 1222 -81 q 1218 -96 1222 -92 q 1206 -100 1214 -100 l 1051 -100 m 183 73 q 171 77 175 73 q 167 87 167 81 q 171 96 167 92 q 183 100 175 100 l 511 100 q 524 96 519 100 q 528 87 528 92 q 524 77 528 81 q 511 73 519 73 l 183 73 m 878 73 q 865 77 869 73 q 861 87 861 81 q 865 96 861 92 q 878 100 869 100 l 1379 100 q 1392 96 1388 100 q 1396 87 1396 92 q 1392 77 1396 81 q 1379 73 1388 73 l 878 73 m 357 247 q 345 251 349 247 q 340 260 340 255 q 345 270 340 266 q 357 274 349 274 l 685 274 q 697 270 693 274 q 701 260 701 266 q 697 251 701 255 q 685 247 693 247 l 357 247 m 878 247 q 865 251 869 247 q 861 260 861 255 q 865 270 861 266 q 878 274 869 274 l 1206 274 q 1218 270 1214 274 q 1222 260 1222 266 q 1218 251 1222 255 q 1206 247 1214 247 l 878 247 m 530 420 q 518 425 522 420 q 514 434 514 429 q 518 444 514 439 q 530 448 522 448 l 1032 448 q 1044 444 1040 448 q 1048 434 1048 439 q 1044 425 1048 429 q 1032 420 1040 420 l 530 420 m 183 594 q 171 598 175 594 q 167 608 167 602 q 171 617 167 613 q 183 621 175 621 l 511 621 q 524 617 519 621 q 528 608 528 613 q 524 598 528 602 q 511 594 519 594 l 183 594 m 704 594 q 692 598 696 594 q 688 608 688 602 q 692 617 688 613 q 704 621 696 621 l 1032 621 q 1044 617 1040 621 q 1048 608 1048 613 q 1044 598 1048 602 q 1032 594 1040 594 l 704 594 m 357 768 q 345 772 349 768 q 340 781 340 776 q 345 791 340 787 q 357 795 349 795 l 685 795 q 697 791 693 795 q 701 781 701 787 q 697 772 701 776 q 685 768 693 768 l 357 768 m 878 768 q 865 772 869 768 q 861 781 861 776 q 865 791 861 787 q 878 795 869 795 l 1206 795 q 1218 791 1214 795 q 1222 781 1222 787 q 1218 772 1222 776 q 1206 768 1214 768 l 878 768 m 357 941 q 345 945 349 941 q 340 955 340 949 q 345 964 340 960 q 357 968 349 968 l 685 968 q 697 964 693 968 q 701 955 701 960 q 697 945 701 949 q 685 941 693 941 l 357 941 m 1051 941 q 1039 945 1043 941 q 1035 955 1035 949 q 1039 964 1035 960 q 1051 968 1043 968 l 1379 968 q 1392 964 1388 968 q 1396 955 1396 960 q 1392 945 1396 949 q 1379 941 1388 941 l 1051 941 m 183 1115 q 171 1119 175 1115 q 167 1128 167 1123 q 171 1138 167 1134 q 183 1142 175 1142 l 511 1142 q 524 1138 519 1142 q 528 1128 528 1134 q 524 1119 528 1123 q 511 1115 519 1115 l 183 1115 z "},".":{"ha":1389,"x_min":514,"x_max":875,"o":"m 530 73 q 518 77 522 73 q 514 87 514 81 q 518 96 514 92 q 530 100 522 100 l 859 100 q 871 96 867 100 q 875 87 875 92 q 871 77 875 81 q 859 73 867 73 l 530 73 m 530 247 q 518 251 522 247 q 514 260 514 255 q 518 270 514 266 q 530 274 522 274 l 859 274 q 871 270 867 274 q 875 260 875 266 q 871 251 875 255 q 859 247 867 247 l 530 247 z "},",":{"ha":1389,"x_min":340,"x_max":875,"o":"m 357 -100 q 345 -96 349 -100 q 340 -87 340 -92 q 345 -77 340 -81 q 357 -73 349 -73 l 685 -73 q 697 -77 693 -73 q 701 -87 701 -81 q 697 -96 701 -92 q 685 -100 693 -100 l 357 -100 m 530 73 q 518 77 522 73 q 514 87 514 81 q 518 96 514 92 q 530 100 522 100 l 859 100 q 871 96 867 100 q 875 87 875 92 q 871 77 875 81 q 859 73 867 73 l 530 73 m 530 247 q 518 251 522 247 q 514 260 514 255 q 518 270 514 266 q 530 274 522 274 l 859 274 q 871 270 867 274 q 875 260 875 266 q 871 251 875 255 q 859 247 867 247 l 530 247 z "},":":{"ha":1389,"x_min":514,"x_max":875,"o":"m 530 247 q 518 251 522 247 q 514 260 514 255 q 518 270 514 266 q 530 274 522 274 l 859 274 q 871 270 867 274 q 875 260 875 266 q 871 251 875 255 q 859 247 867 247 l 530 247 m 530 768 q 518 772 522 768 q 514 781 514 776 q 518 791 514 787 q 530 795 522 795 l 859 795 q 871 791 867 795 q 875 781 875 787 q 871 772 875 776 q 859 768 867 768 l 530 768 z "},";":{"ha":1389,"x_min":340,"x_max":875,"o":"m 357 -100 q 345 -96 349 -100 q 340 -87 340 -92 q 345 -77 340 -81 q 357 -73 349 -73 l 685 -73 q 697 -77 693 -73 q 701 -87 701 -81 q 697 -96 701 -92 q 685 -100 693 -100 l 357 -100 m 530 73 q 518 77 522 73 q 514 87 514 81 q 518 96 514 92 q 530 100 522 100 l 859 100 q 871 96 867 100 q 875 87 875 92 q 871 77 875 81 q 859 73 867 73 l 530 73 m 530 247 q 518 251 522 247 q 514 260 514 255 q 518 270 514 266 q 530 274 522 274 l 859 274 q 871 270 867 274 q 875 260 875 266 q 871 251 875 255 q 859 247 867 247 l 530 247 m 530 768 q 518 772 522 768 q 514 781 514 776 q 518 791 514 787 q 530 795 522 795 l 859 795 q 871 791 867 795 q 875 781 875 787 q 871 772 875 776 q 859 768 867 768 l 530 768 z "},"…":{"ha":1389,"x_min":340,"x_max":1222,"o":"m 357 73 q 345 77 349 73 q 340 87 340 81 q 345 96 340 92 q 357 100 349 100 l 511 100 q 524 96 519 100 q 528 87 528 92 q 524 77 528 81 q 511 73 519 73 l 357 73 m 704 73 q 692 77 696 73 q 688 87 688 81 q 692 96 688 92 q 704 100 696 100 l 859 100 q 871 96 867 100 q 875 87 875 92 q 871 77 875 81 q 859 73 867 73 l 704 73 m 1051 73 q 1039 77 1043 73 q 1035 87 1035 81 q 1039 96 1035 92 q 1051 100 1043 100 l 1206 100 q 1218 96 1214 100 q 1222 87 1222 92 q 1218 77 1222 81 q 1206 73 1214 73 l 1051 73 m 357 247 q 345 251 349 247 q 340 260 340 255 q 345 270 340 266 q 357 274 349 274 l 511 274 q 524 270 519 274 q 528 260 528 266 q 524 251 528 255 q 511 247 519 247 l 357 247 m 704 247 q 692 251 696 247 q 688 260 688 255 q 692 270 688 266 q 704 274 696 274 l 859 274 q 871 270 867 274 q 875 260 875 266 q 871 251 875 255 q 859 247 867 247 l 704 247 m 1051 247 q 1039 251 1043 247 q 1035 260 1035 255 q 1039 270 1035 266 q 1051 274 1043 274 l 1206 274 q 1218 270 1214 274 q 1222 260 1222 266 q 1218 251 1222 255 q 1206 247 1214 247 l 1051 247 z "},"!":{"ha":1389,"x_min":514,"x_max":875,"o":"m 530 73 q 518 77 522 73 q 514 87 514 81 q 518 96 514 92 q 530 100 522 100 l 859 100 q 871 96 867 100 q 875 87 875 92 q 871 77 875 81 q 859 73 867 73 l 530 73 m 530 594 q 518 598 522 594 q 514 608 514 602 q 518 617 514 613 q 530 621 522 621 l 859 621 q 871 617 867 621 q 875 608 875 613 q 871 598 875 602 q 859 594 867 594 l 530 594 m 530 768 q 518 772 522 768 q 514 781 514 776 q 518 791 514 787 q 530 795 522 795 l 859 795 q 871 791 867 795 q 875 781 875 787 q 871 772 875 776 q 859 768 867 768 l 530 768 m 530 941 q 518 945 522 941 q 514 955 514 949 q 518 964 514 960 q 530 968 522 968 l 859 968 q 871 964 867 968 q 875 955 875 960 q 871 945 875 949 q 859 941 867 941 l 530 941 m 530 1115 q 518 1119 522 1115 q 514 1128 514 1123 q 518 1138 514 1134 q 530 1142 522 1142 l 859 1142 q 871 1138 867 1142 q 875 1128 875 1134 q 871 1119 875 1123 q 859 1115 867 1115 l 530 1115 z "},"¡":{"ha":1389,"x_min":514,"x_max":875,"o":"m 530 -100 q 518 -96 522 -100 q 514 -87 514 -92 q 518 -77 514 -81 q 530 -73 522 -73 l 859 -73 q 871 -77 867 -73 q 875 -87 875 -81 q 871 -96 875 -92 q 859 -100 867 -100 l 530 -100 m 530 73 q 518 77 522 73 q 514 87 514 81 q 518 96 514 92 q 530 100 522 100 l 859 100 q 871 96 867 100 q 875 87 875 92 q 871 77 875 81 q 859 73 867 73 l 530 73 m 530 247 q 518 251 522 247 q 514 260 514 255 q 518 270 514 266 q 530 274 522 274 l 859 274 q 871 270 867 274 q 875 260 875 266 q 871 251 875 255 q 859 247 867 247 l 530 247 m 530 420 q 518 425 522 420 q 514 434 514 429 q 518 444 514 439 q 530 448 522 448 l 859 448 q 871 444 867 448 q 875 434 875 439 q 871 425 875 429 q 859 420 867 420 l 530 420 m 530 941 q 518 945 522 941 q 514 955 514 949 q 518 964 514 960 q 530 968 522 968 l 859 968 q 871 964 867 968 q 875 955 875 960 q 871 945 875 949 q 859 941 867 941 l 530 941 z "},"?":{"ha":1389,"x_min":167,"x_max":1222,"o":"m 530 73 q 518 77 522 73 q 514 87 514 81 q 518 96 514 92 q 530 100 522 100 l 859 100 q 871 96 867 100 q 875 87 875 92 q 871 77 875 81 q 859 73 867 73 l 530 73 m 530 420 q 518 425 522 420 q 514 434 514 429 q 518 444 514 439 q 530 448 522 448 l 859 448 q 871 444 867 448 q 875 434 875 439 q 871 425 875 429 q 859 420 867 420 l 530 420 m 704 594 q 692 598 696 594 q 688 608 688 602 q 692 617 688 613 q 704 621 696 621 l 1032 621 q 1044 617 1040 621 q 1048 608 1048 613 q 1044 598 1048 602 q 1032 594 1040 594 l 704 594 m 878 768 q 865 772 869 768 q 861 781 861 776 q 865 791 861 787 q 878 795 869 795 l 1206 795 q 1218 791 1214 795 q 1222 781 1222 787 q 1218 772 1222 776 q 1206 768 1214 768 l 878 768 m 183 941 q 171 945 175 941 q 167 955 167 949 q 171 964 167 960 q 183 968 175 968 l 511 968 q 524 964 519 968 q 528 955 528 960 q 524 945 528 949 q 511 941 519 941 l 183 941 m 878 941 q 865 945 869 941 q 861 955 861 949 q 865 964 861 960 q 878 968 869 968 l 1206 968 q 1218 964 1214 968 q 1222 955 1222 960 q 1218 945 1222 949 q 1206 941 1214 941 l 878 941 m 357 1115 q 345 1119 349 1115 q 340 1128 340 1123 q 345 1138 340 1134 q 357 1142 349 1142 l 1032 1142 q 1044 1138 1040 1142 q 1048 1128 1048 1134 q 1044 1119 1048 1123 q 1032 1115 1040 1115 l 357 1115 z "},"¿":{"ha":1389,"x_min":167,"x_max":1222,"o":"m 357 73 q 345 77 349 73 q 340 87 340 81 q 345 96 340 92 q 357 100 349 100 l 1032 100 q 1044 96 1040 100 q 1048 87 1048 92 q 1044 77 1048 81 q 1032 73 1040 73 l 357 73 m 183 247 q 171 251 175 247 q 167 260 167 255 q 171 270 167 266 q 183 274 175 274 l 511 274 q 524 270 519 274 q 528 260 528 266 q 524 251 528 255 q 511 247 519 247 l 183 247 m 878 247 q 865 251 869 247 q 861 260 861 255 q 865 270 861 266 q 878 274 869 274 l 1206 274 q 1218 270 1214 274 q 1222 260 1222 266 q 1218 251 1222 255 q 1206 247 1214 247 l 878 247 m 183 420 q 171 425 175 420 q 167 434 167 429 q 171 444 167 439 q 183 448 175 448 l 511 448 q 524 444 519 448 q 528 434 528 439 q 524 425 528 429 q 511 420 519 420 l 183 420 m 357 594 q 345 598 349 594 q 340 608 340 602 q 345 617 340 613 q 357 621 349 621 l 685 621 q 697 617 693 621 q 701 608 701 613 q 697 598 701 602 q 685 594 693 594 l 357 594 m 530 768 q 518 772 522 768 q 514 781 514 776 q 518 791 514 787 q 530 795 522 795 l 859 795 q 871 791 867 795 q 875 781 875 787 q 871 772 875 776 q 859 768 867 768 l 530 768 m 530 1115 q 518 1119 522 1115 q 514 1128 514 1123 q 518 1138 514 1134 q 530 1142 522 1142 l 859 1142 q 871 1138 867 1142 q 875 1128 875 1134 q 871 1119 875 1123 q 859 1115 867 1115 l 530 1115 z "},"·":{"ha":1389,"x_min":514,"x_max":875,"o":"m 530 420 q 518 425 522 420 q 514 434 514 429 q 518 444 514 439 q 530 448 522 448 l 859 448 q 871 444 867 448 q 875 434 875 439 q 871 425 875 429 q 859 420 867 420 l 530 420 m 530 594 q 518 598 522 594 q 514 608 514 602 q 518 617 514 613 q 530 621 522 621 l 859 621 q 871 617 867 621 q 875 608 875 613 q 871 598 875 602 q 859 594 867 594 l 530 594 z "},"•":{"ha":1389,"x_min":340,"x_max":1048,"o":"m 530 247 q 518 251 522 247 q 514 260 514 255 q 518 270 514 266 q 530 274 522 274 l 859 274 q 871 270 867 274 q 875 260 875 266 q 871 251 875 255 q 859 247 867 247 l 530 247 m 357 420 q 345 425 349 420 q 340 434 340 429 q 345 444 340 439 q 357 448 349 448 l 1032 448 q 1044 444 1040 448 q 1048 434 1048 439 q 1044 425 1048 429 q 1032 420 1040 420 l 357 420 m 357 594 q 345 598 349 594 q 340 608 340 602 q 345 617 340 613 q 357 621 349 621 l 1032 621 q 1044 617 1040 621 q 1048 608 1048 613 q 1044 598 1048 602 q 1032 594 1040 594 l 357 594 m 530 768 q 518 772 522 768 q 514 781 514 776 q 518 791 514 787 q 530 795 522 795 l 859 795 q 871 791 867 795 q 875 781 875 787 q 871 772 875 776 q 859 768 867 768 l 530 768 z "},"*":{"ha":1389,"x_min":-7,"x_max":1396,"o":"m 183 247 q 171 251 175 247 q 167 260 167 255 q 171 270 167 266 q 183 274 175 274 l 511 274 q 524 270 519 274 q 528 260 528 266 q 524 251 528 255 q 511 247 519 247 l 183 247 m 878 247 q 865 251 869 247 q 861 260 861 255 q 865 270 861 266 q 878 274 869 274 l 1206 274 q 1218 270 1214 274 q 1222 260 1222 266 q 1218 251 1222 255 q 1206 247 1214 247 l 878 247 m 357 420 q 345 425 349 420 q 340 434 340 429 q 345 444 340 439 q 357 448 349 448 l 1032 448 q 1044 444 1040 448 q 1048 434 1048 439 q 1044 425 1048 429 q 1032 420 1040 420 l 357 420 m 9 594 q -3 598 1 594 q -7 608 -7 602 q -3 617 -7 613 q 9 621 1 621 l 1379 621 q 1392 617 1388 621 q 1396 608 1396 613 q 1392 598 1396 602 q 1379 594 1388 594 l 9 594 m 357 768 q 345 772 349 768 q 340 781 340 776 q 345 791 340 787 q 357 795 349 795 l 1032 795 q 1044 791 1040 795 q 1048 781 1048 787 q 1044 772 1048 776 q 1032 768 1040 768 l 357 768 m 183 941 q 171 945 175 941 q 167 955 167 949 q 171 964 167 960 q 183 968 175 968 l 511 968 q 524 964 519 968 q 528 955 528 960 q 524 945 528 949 q 511 941 519 941 l 183 941 m 878 941 q 865 945 869 941 q 861 955 861 949 q 865 964 861 960 q 878 968 869 968 l 1206 968 q 1218 964 1214 968 q 1222 955 1222 960 q 1218 945 1222 949 q 1206 941 1214 941 l 878 941 z "},"#":{"ha":1389,"x_min":-7,"x_max":1396,"o":"m 183 73 q 171 77 175 73 q 167 87 167 81 q 171 96 167 92 q 183 100 175 100 l 511 100 q 524 96 519 100 q 528 87 528 92 q 524 77 528 81 q 511 73 519 73 l 183 73 m 878 73 q 865 77 869 73 q 861 87 861 81 q 865 96 861 92 q 878 100 869 100 l 1206 100 q 1218 96 1214 100 q 1222 87 1222 92 q 1218 77 1222 81 q 1206 73 1214 73 l 878 73 m 183 247 q 171 251 175 247 q 167 260 167 255 q 171 270 167 266 q 183 274 175 274 l 511 274 q 524 270 519 274 q 528 260 528 266 q 524 251 528 255 q 511 247 519 247 l 183 247 m 878 247 q 865 251 869 247 q 861 260 861 255 q 865 270 861 266 q 878 274 869 274 l 1206 274 q 1218 270 1214 274 q 1222 260 1222 266 q 1218 251 1222 255 q 1206 247 1214 247 l 878 247 m 9 420 q -3 425 1 420 q -7 434 -7 429 q -3 444 -7 439 q 9 448 1 448 l 1379 448 q 1392 444 1388 448 q 1396 434 1396 439 q 1392 425 1396 429 q 1379 420 1388 420 l 9 420 m 183 594 q 171 598 175 594 q 167 608 167 602 q 171 617 167 613 q 183 621 175 621 l 511 621 q 524 617 519 621 q 528 608 528 613 q 524 598 528 602 q 511 594 519 594 l 183 594 m 878 594 q 865 598 869 594 q 861 608 861 602 q 865 617 861 613 q 878 621 869 621 l 1206 621 q 1218 617 1214 621 q 1222 608 1222 613 q 1218 598 1222 602 q 1206 594 1214 594 l 878 594 m 9 768 q -3 772 1 768 q -7 781 -7 776 q -3 791 -7 787 q 9 795 1 795 l 1379 795 q 1392 791 1388 795 q 1396 781 1396 787 q 1392 772 1396 776 q 1379 768 1388 768 l 9 768 m 183 941 q 171 945 175 941 q 167 955 167 949 q 171 964 167 960 q 183 968 175 968 l 511 968 q 524 964 519 968 q 528 955 528 960 q 524 945 528 949 q 511 941 519 941 l 183 941 m 878 941 q 865 945 869 941 q 861 955 861 949 q 865 964 861 960 q 878 968 869 968 l 1206 968 q 1218 964 1214 968 q 1222 955 1222 960 q 1218 945 1222 949 q 1206 941 1214 941 l 878 941 m 183 1115 q 171 1119 175 1115 q 167 1128 167 1123 q 171 1138 167 1134 q 183 1142 175 1142 l 511 1142 q 524 1138 519 1142 q 528 1128 528 1134 q 524 1119 528 1123 q 511 1115 519 1115 l 183 1115 m 878 1115 q 865 1119 869 1115 q 861 1128 861 1123 q 865 1138 861 1134 q 878 1142 869 1142 l 1206 1142 q 1218 1138 1214 1142 q 1222 1128 1222 1134 q 1218 1119 1222 1123 q 1206 1115 1214 1115 l 878 1115 z "},"/":{"ha":1389,"x_min":167,"x_max":1396,"o":"m 183 73 q 171 77 175 73 q 167 87 167 81 q 171 96 167 92 q 183 100 175 100 l 511 100 q 524 96 519 100 q 528 87 528 92 q 524 77 528 81 q 511 73 519 73 l 183 73 m 357 247 q 345 251 349 247 q 340 260 340 255 q 345 270 340 266 q 357 274 349 274 l 685 274 q 697 270 693 274 q 701 260 701 266 q 697 251 701 255 q 685 247 693 247 l 357 247 m 530 420 q 518 425 522 420 q 514 434 514 429 q 518 444 514 439 q 530 448 522 448 l 859 448 q 871 444 867 448 q 875 434 875 439 q 871 425 875 429 q 859 420 867 420 l 530 420 m 704 594 q 692 598 696 594 q 688 608 688 602 q 692 617 688 613 q 704 621 696 621 l 1032 621 q 1044 617 1040 621 q 1048 608 1048 613 q 1044 598 1048 602 q 1032 594 1040 594 l 704 594 m 878 768 q 865 772 869 768 q 861 781 861 776 q 865 791 861 787 q 878 795 869 795 l 1206 795 q 1218 791 1214 795 q 1222 781 1222 787 q 1218 772 1222 776 q 1206 768 1214 768 l 878 768 m 1051 941 q 1039 945 1043 941 q 1035 955 1035 949 q 1039 964 1035 960 q 1051 968 1043 968 l 1379 968 q 1392 964 1388 968 q 1396 955 1396 960 q 1392 945 1396 949 q 1379 941 1388 941 l 1051 941 z "},"\\":{"ha":1389,"x_min":167,"x_max":1396,"o":"m 1051 73 q 1039 77 1043 73 q 1035 87 1035 81 q 1039 96 1035 92 q 1051 100 1043 100 l 1379 100 q 1392 96 1388 100 q 1396 87 1396 92 q 1392 77 1396 81 q 1379 73 1388 73 l 1051 73 m 878 247 q 865 251 869 247 q 861 260 861 255 q 865 270 861 266 q 878 274 869 274 l 1206 274 q 1218 270 1214 274 q 1222 260 1222 266 q 1218 251 1222 255 q 1206 247 1214 247 l 878 247 m 704 420 q 692 425 696 420 q 688 434 688 429 q 692 444 688 439 q 704 448 696 448 l 1032 448 q 1044 444 1040 448 q 1048 434 1048 439 q 1044 425 1048 429 q 1032 420 1040 420 l 704 420 m 530 594 q 518 598 522 594 q 514 608 514 602 q 518 617 514 613 q 530 621 522 621 l 859 621 q 871 617 867 621 q 875 608 875 613 q 871 598 875 602 q 859 594 867 594 l 530 594 m 357 768 q 345 772 349 768 q 340 781 340 776 q 345 791 340 787 q 357 795 349 795 l 685 795 q 697 791 693 795 q 701 781 701 787 q 697 772 701 776 q 685 768 693 768 l 357 768 m 183 941 q 171 945 175 941 q 167 955 167 949 q 171 964 167 960 q 183 968 175 968 l 511 968 q 524 964 519 968 q 528 955 528 960 q 524 945 528 949 q 511 941 519 941 l 183 941 z "},"(":{"ha":1389,"x_min":340,"x_max":1048,"o":"m 704 73 q 692 77 696 73 q 688 87 688 81 q 692 96 688 92 q 704 100 696 100 l 1032 100 q 1044 96 1040 100 q 1048 87 1048 92 q 1044 77 1048 81 q 1032 73 1040 73 l 704 73 m 530 247 q 518 251 522 247 q 514 260 514 255 q 518 270 514 266 q 530 274 522 274 l 859 274 q 871 270 867 274 q 875 260 875 266 q 871 251 875 255 q 859 247 867 247 l 530 247 m 357 420 q 345 425 349 420 q 340 434 340 429 q 345 444 340 439 q 357 448 349 448 l 685 448 q 697 444 693 448 q 701 434 701 439 q 697 425 701 429 q 685 420 693 420 l 357 420 m 357 594 q 345 598 349 594 q 340 608 340 602 q 345 617 340 613 q 357 621 349 621 l 685 621 q 697 617 693 621 q 701 608 701 613 q 697 598 701 602 q 685 594 693 594 l 357 594 m 357 768 q 345 772 349 768 q 340 781 340 776 q 345 791 340 787 q 357 795 349 795 l 685 795 q 697 791 693 795 q 701 781 701 787 q 697 772 701 776 q 685 768 693 768 l 357 768 m 530 941 q 518 945 522 941 q 514 955 514 949 q 518 964 514 960 q 530 968 522 968 l 859 968 q 871 964 867 968 q 875 955 875 960 q 871 945 875 949 q 859 941 867 941 l 530 941 m 704 1115 q 692 1119 696 1115 q 688 1128 688 1123 q 692 1138 688 1134 q 704 1142 696 1142 l 1032 1142 q 1044 1138 1040 1142 q 1048 1128 1048 1134 q 1044 1119 1048 1123 q 1032 1115 1040 1115 l 704 1115 z "},")":{"ha":1389,"x_min":340,"x_max":1048,"o":"m 357 73 q 345 77 349 73 q 340 87 340 81 q 345 96 340 92 q 357 100 349 100 l 685 100 q 697 96 693 100 q 701 87 701 92 q 697 77 701 81 q 685 73 693 73 l 357 73 m 530 247 q 518 251 522 247 q 514 260 514 255 q 518 270 514 266 q 530 274 522 274 l 859 274 q 871 270 867 274 q 875 260 875 266 q 871 251 875 255 q 859 247 867 247 l 530 247 m 704 420 q 692 425 696 420 q 688 434 688 429 q 692 444 688 439 q 704 448 696 448 l 1032 448 q 1044 444 1040 448 q 1048 434 1048 439 q 1044 425 1048 429 q 1032 420 1040 420 l 704 420 m 704 594 q 692 598 696 594 q 688 608 688 602 q 692 617 688 613 q 704 621 696 621 l 1032 621 q 1044 617 1040 621 q 1048 608 1048 613 q 1044 598 1048 602 q 1032 594 1040 594 l 704 594 m 704 768 q 692 772 696 768 q 688 781 688 776 q 692 791 688 787 q 704 795 696 795 l 1032 795 q 1044 791 1040 795 q 1048 781 1048 787 q 1044 772 1048 776 q 1032 768 1040 768 l 704 768 m 530 941 q 518 945 522 941 q 514 955 514 949 q 518 964 514 960 q 530 968 522 968 l 859 968 q 871 964 867 968 q 875 955 875 960 q 871 945 875 949 q 859 941 867 941 l 530 941 m 357 1115 q 345 1119 349 1115 q 340 1128 340 1123 q 345 1138 340 1134 q 357 1142 349 1142 l 685 1142 q 697 1138 693 1142 q 701 1128 701 1134 q 697 1119 701 1123 q 685 1115 693 1115 l 357 1115 z "}}}
